<?xml version="1.0" encoding="utf-8"?>
<!-- Generator: Adobe Illustrator 16.0.0, SVG Export Plug-In . SVG Version: 6.00 Build 0)  -->
<!DOCTYPE svg PUBLIC "-//W3C//DTD SVG 1.1//EN" "http://www.w3.org/Graphics/SVG/1.1/DTD/svg11.dtd">
<svg version="1.1" id="Layer_1" xmlns="http://www.w3.org/2000/svg" xmlns:xlink="http://www.w3.org/1999/xlink" x="0px" y="0px"
	 width="62px" height="62px" viewBox="0 0 62 62" enable-background="new 0 0 62 62" xml:space="preserve">
<g>
	<g>
		<g>
			<g>
				<g>
					<path fill="#0A0C0C" d="M29.947,41.076c0,2.295-1.86,4.155-4.153,4.155c-2.294,0-4.154-1.86-4.154-4.155
						c0-2.289,1.86-4.153,4.154-4.153C28.087,36.923,29.947,38.787,29.947,41.076"/>
				</g>
				<g>
					<path fill="#0A0C0C" d="M29.947,30c0,2.294-1.86,4.154-4.153,4.154c-2.294,0-4.154-1.86-4.154-4.154
						c0-2.289,1.86-4.154,4.154-4.154C28.087,25.846,29.947,27.711,29.947,30"/>
				</g>
				<g>
					<path fill="#0A0C0C" d="M29.947,18.923c0,2.294-1.86,4.155-4.153,4.155c-2.294,0-4.154-1.861-4.154-4.155
						c0-2.29,1.86-4.154,4.154-4.154C28.087,14.769,29.947,16.633,29.947,18.923"/>
				</g>
			</g>
			<rect x="36" y="18" fill="#0A0C0C" width="19" height="3"/>
			<rect x="36" y="29" fill="#0A0C0C" width="19" height="3"/>
			<rect x="36" y="40" fill="#0A0C0C" width="19" height="3"/>
		</g>
	</g>
	<polygon fill="#0A0C0C" points="12,35 19.225,30.015 12,25 12,28 8,28 8,32 12,32 12,32.24 	"/>
</g>
</svg>
