<?xml version="1.0" encoding="utf-8"?>
<!-- Generator: Adobe Illustrator 16.0.0, SVG Export Plug-In . SVG Version: 6.00 Build 0)  -->
<!DOCTYPE svg PUBLIC "-//W3C//DTD SVG 1.1//EN" "http://www.w3.org/Graphics/SVG/1.1/DTD/svg11.dtd">
<svg version="1.1" id="Layer_1" xmlns="http://www.w3.org/2000/svg" xmlns:xlink="http://www.w3.org/1999/xlink" x="0px" y="0px"
	 width="62px" height="62px" viewBox="0 0 62 62" enable-background="new 0 0 62 62" xml:space="preserve">
<path fill="#0A0C0C" d="M46.401,21H37v-3.043C37,16.308,36.052,15,34.401,15h-6C26.751,15,25,16.308,25,17.957V21h-8.599
	C14.751,21,13,22.308,13,23.957v18C13,43.607,14.751,45,16.401,45h30C48.052,45,49,43.607,49,41.957v-18
	C49,22.308,48.052,21,46.401,21z M35,21h-8v-2h8V21z"/>
<polygon fill="#FFFFFF" points="29,37.74 36.225,32.755 29,27.74 29,31 25,31 25,35 29,35 29,34.98 "/>
</svg>
