<?xml version="1.0" encoding="utf-8"?>
<!-- Generator: Adobe Illustrator 16.0.4, SVG Export Plug-In . SVG Version: 6.00 Build 0)  -->
<!DOCTYPE svg PUBLIC "-//W3C//DTD SVG 1.1//EN" "http://www.w3.org/Graphics/SVG/1.1/DTD/svg11.dtd">
<svg version="1.1" id="Layer_1" xmlns="http://www.w3.org/2000/svg" xmlns:xlink="http://www.w3.org/1999/xlink" x="0px" y="0px"
	 width="62px" height="62px" viewBox="0 0 62 62" enable-background="new 0 0 62 62" xml:space="preserve">
<polygon fill="#FFFFFF" points="29,37.74 36.225,32.755 29,27.74 29,31 25,31 25,35 29,35 29,34.98 "/>
<g>
	<path d="M31.209,15C21.707,15,14,22.705,14,32.209s7.707,17.209,17.209,17.209c9.504,0,17.209-7.705,17.209-17.209
		S40.713,15,31.209,15z M37.749,41.051c-0.22,2.219-1.099,4.133-4.685,4.133H26.71c-4.767,0-4.767-3.375-4.767-6.354V26.12
		c0-0.872,0.715-1.587,1.59-1.587h1.59v-1.59c0-0.872,0.713-1.59,1.587-1.59h1.589c0-0.869,0.713-1.589,1.588-1.589h1.59
		c0.873,0,1.587,0.72,1.587,1.589h1.588c0.871,0,1.589,0.718,1.589,1.59V33.41l2.057-2.052c0.968-0.968,1.974-1.171,2.649-1.171
		c1.521,0,2.576,0.975,2.773,1.171c0.572,0.574,0.621,1.484,0.111,2.119L37.749,41.051z"/>
	<path d="M39.418,32.48c-1.588,1.59-3.178,3.176-3.178,3.176V35.65h-1.588v-9.53v-1.587v-1.59h-1.588v1.59v1.587v6.354h-1.588
		v-9.531v-1.59h-1.59v1.59v9.531h-1.588v-7.94v-1.59H26.71v1.59v7.94h-1.587v-4.768V26.12h-1.59v1.587c0,2.85,0,8.752,0,11.123
		c0,3.174,0,4.764,3.177,4.764c3.177,0,3.177,0,6.354,0c2.586,0,3.06-1.07,3.146-3.178h0.029v-0.027l6.355-7.908
		c0,0-0.709-0.705-1.648-0.705C40.475,31.775,39.948,31.952,39.418,32.48z"/>
</g>
</svg>
