<?xml version="1.0" encoding="utf-8"?>
<!-- Generator: Adobe Illustrator 16.0.4, SVG Export Plug-In . SVG Version: 6.00 Build 0)  -->
<!DOCTYPE svg PUBLIC "-//W3C//DTD SVG 1.1//EN" "http://www.w3.org/Graphics/SVG/1.1/DTD/svg11.dtd">
<svg version="1.1" id="Layer_1" xmlns="http://www.w3.org/2000/svg" xmlns:xlink="http://www.w3.org/1999/xlink" x="0px" y="0px"
	 width="78px" height="113.199px" viewBox="0 0 78 113.199" style="enable-background:new 0 0 78 113.199;" xml:space="preserve">
<style type="text/css">
<![CDATA[
	.st0{fill:#20376B;}
	.st1{fill:url(#SVGID_1_);}
	.st2{fill:url(#SVGID_2_);}
	.st3{fill:#FFFFFF;}
	.st4{fill:#010101;}
]]>
</style>
<g>
	<g>
		<g>
			<path class="st3" d="M39,8C21.906,8,8,21.906,8,39c0,17.093,13.906,31,31,31s31-13.907,31-31C70,21.906,56.094,8,39,8z"/>
			<g>
				<linearGradient id="SVGID_1_" gradientUnits="userSpaceOnUse" x1="38.9995" y1="0" x2="38.9995" y2="78">
					<stop  offset="0" style="stop-color:#4471A8"/>
					<stop  offset="1" style="stop-color:#20376B"/>
				</linearGradient>
				<path class="st1" d="M39,78C17.495,78,0,60.505,0,39C0,17.495,17.495,0,39,0c21.504,0,39,17.495,39,39
					C78,60.505,60.504,78,39,78z M39,8C21.906,8,8,21.906,8,39c0,17.093,13.906,31,31,31s31-13.907,31-31C70,21.906,56.094,8,39,8z"
					/>
			</g>
		</g>
	</g>
	<g>
		<linearGradient id="SVGID_2_" gradientUnits="userSpaceOnUse" x1="38.9995" y1="9" x2="38.9995" y2="69">
			<stop  offset="0" style="stop-color:#FFFFFF"/>
			<stop  offset="1" style="stop-color:#ABABAB"/>
		</linearGradient>
		<path class="st2" d="M39,69C22.459,69,9,55.542,9,39C9,22.458,22.459,9,39,9c16.543,0,30,13.458,30,30C69,55.542,55.543,69,39,69z
			"/>
		<path class="st3" d="M39,10c15.99,0,29,13.01,29,29S54.99,68,39,68S10,54.99,10,39S23.01,10,39,10 M39,8C21.906,8,8,21.906,8,39
			c0,17.093,13.906,31,31,31s31-13.907,31-31C70,21.906,56.094,8,39,8L39,8z"/>
	</g>
</g>
<g>
	<path class="st4" d="M21.836,88.105c-0.684,0-1.213,0.257-1.588,0.771s-0.562,1.229-0.562,2.147c0,1.91,0.717,2.865,2.15,2.865
		c0.602,0,1.33-0.15,2.186-0.451v1.523c-0.703,0.293-1.488,0.439-2.355,0.439c-1.246,0-2.199-0.378-2.859-1.134
		s-0.99-1.841-0.99-3.255c0-0.891,0.162-1.671,0.486-2.341s0.79-1.184,1.397-1.541s1.319-0.536,2.136-0.536
		c0.832,0,1.668,0.201,2.508,0.604l-0.586,1.477c-0.32-0.152-0.643-0.285-0.967-0.398S22.149,88.105,21.836,88.105z"/>
	<path class="st4" d="M27.661,91.996v3.287h-1.816v-8.566h2.496c1.164,0,2.025,0.212,2.584,0.636s0.838,1.067,0.838,1.931
		c0,0.504-0.139,0.952-0.416,1.345s-0.67,0.7-1.178,0.923c1.289,1.926,2.129,3.17,2.52,3.732h-2.016l-2.045-3.287H27.661z
		 M27.661,90.519h0.586c0.574,0,0.998-0.096,1.271-0.287s0.41-0.492,0.41-0.902c0-0.406-0.14-0.695-0.419-0.867
		s-0.712-0.258-1.298-0.258h-0.551V90.519z"/>
	<path class="st4" d="M38.7,95.283h-4.934v-8.566H38.7v1.488h-3.117v1.881h2.9v1.488h-2.9v2.209H38.7V95.283z"/>
	<path class="st4" d="M45.731,95.283l-0.621-2.039h-3.123l-0.621,2.039h-1.957l3.023-8.602h2.221l3.035,8.602H45.731z M44.677,91.72
		c-0.574-1.848-0.898-2.893-0.971-3.135s-0.123-0.434-0.154-0.574c-0.129,0.5-0.498,1.736-1.107,3.709H44.677z"/>
	<path class="st4" d="M52.071,95.283h-1.816v-7.055h-2.326v-1.512h6.469v1.512h-2.326V95.283z"/>
	<path class="st4" d="M60.649,95.283h-4.934v-8.566h4.934v1.488h-3.117v1.881h2.9v1.488h-2.9v2.209h3.117V95.283z"/>
	<path class="st4" d="M26.99,109.683h-1.816v-7.055h-2.326v-1.512h6.469v1.512H26.99V109.683z"/>
	<path class="st4" d="M35.568,109.683h-4.934v-8.566h4.934v1.488h-3.117v1.881h2.9v1.488h-2.9v2.209h3.117V109.683z"/>
	<path class="st4" d="M42.599,109.683l-0.621-2.039h-3.123l-0.621,2.039h-1.957l3.023-8.602h2.221l3.035,8.602H42.599z
		 M41.544,106.121c-0.574-1.848-0.896-2.893-0.969-3.135s-0.125-0.434-0.156-0.574c-0.129,0.5-0.498,1.736-1.107,3.709H41.544z"/>
	<path class="st4" d="M49.261,109.683l-2.062-6.721h-0.053c0.074,1.367,0.111,2.279,0.111,2.736v3.984h-1.623v-8.566h2.473
		l2.027,6.551h0.035l2.15-6.551h2.473v8.566h-1.693v-4.055c0-0.191,0.004-0.412,0.01-0.662s0.031-0.914,0.078-1.992h-0.053
		l-2.209,6.709H49.261z"/>
</g>
<g>
	<g>
		<polygon class="st0" points="58.021,23.901 55.021,23.901 55.021,20.901 52.021,20.901 52.021,23.901 49.021,23.901 
			49.021,26.901 52.021,26.901 52.021,29.901 55.021,29.901 55.021,26.901 58.021,26.901 		"/>
	</g>
	<g>
		<path class="st0" d="M35.404,49.405H20.111c0,0-0.285-6.003,0.668-7.214c1.066-1.344,1.9-2.283,5.443-3.482l4.379-1.666
			l0.035-2.777c0,0-1.33-0.84-1.738-3.436c-0.832,0.195-0.979-6.184-0.906-6.789C28.254,21.828,30.939,19,35.072,19
			c4.131,0,6.818,2.824,7.078,5.035c0.074,0.608-0.072,6.979-0.904,6.784c-0.408,2.596-1.738,3.422-1.738,3.422l0.033,2.752
			l4.381,1.615c3.542,1.198,4.377,2.24,5.443,3.585c0.951,1.21,0.666,7.212,0.666,7.212H35.404"/>
		<g>
			<path class="st0" d="M54.021,40.833c-0.912-1.15-1.627-2.041-4.655-3.066l-3.747-1.381l-0.027-2.353c0,0,1.139-0.707,1.486-2.926
				c0.711,0.167,0.838-5.281,0.775-5.801c-0.223-1.887-2.516-4.298-6.039-4.305c0.746,0.908,1.215,1.925,1.332,2.917
				c0.007,0.053,0.145,6.239-0.957,7.482c-0.014,0.015-0.026,0.029-0.04,0.044c-0.37,1.761-1.13,2.76-1.634,3.254l0.019,1.593
				l3.735,1.376c3.809,1.288,4.768,2.5,5.881,3.902C50.88,42.5,51.066,44.936,51.084,47h3.508
				C54.592,47,54.836,41.868,54.021,40.833z"/>
		</g>
	</g>
	<g>
		<path class="st0" d="M25.904,37.762l3.709-1.412l0.02-1.628c-0.504-0.496-1.264-1.5-1.633-3.265
			c-0.015-0.014-0.027-0.028-0.041-0.042c-1.098-1.237-0.965-7.435-0.957-7.492c0.117-0.994,0.588-2.013,1.336-2.922
			c-3.529,0.004-5.824,2.419-6.047,4.31c-0.061,0.518,0.062,5.973,0.775,5.806c0.35,2.22,1.486,2.938,1.486,2.938l-0.029,2.375
			l-3.745,1.425c-3.03,1.025-3.743,1.829-4.655,2.978C15.309,41.868,15.553,47,15.553,47h3.512c0.016-2.064,0.203-4.501,0.931-5.427
			C21.219,40.031,22.227,39.007,25.904,37.762z"/>
	</g>
</g>
</svg>
