<?xml version="1.0" encoding="utf-8"?>
<!-- Generator: Adobe Illustrator 16.0.0, SVG Export Plug-In . SVG Version: 6.00 Build 0)  -->
<!DOCTYPE svg PUBLIC "-//W3C//DTD SVG 1.1//EN" "http://www.w3.org/Graphics/SVG/1.1/DTD/svg11.dtd">
<svg version="1.1" id="Layer_1" xmlns="http://www.w3.org/2000/svg" xmlns:xlink="http://www.w3.org/1999/xlink" x="0px" y="0px"
	 width="62px" height="62px" viewBox="0 0 62 62" enable-background="new 0 0 62 62" xml:space="preserve">
<g>
	<polygon fill="#0B0C0C" points="34.893,23.125 32.096,23.125 32.096,18.9 29.924,18.9 29.924,23.125 26.893,23.125 30.893,26.9 	
		"/>
	<path fill="#0B0C0C" d="M48.992,32.827c-0.006-0.113-0.042-0.226-0.123-0.315l-2.879-3.176c0.748-0.551,1.303-1.375,1.434-2.305
		l1.152-8.134C48.809,17.248,47.65,15.9,46,15.9H16c-1.65,0-2.809,1.348-2.576,2.997l1.152,8.134
		c0.133,0.947,0.705,1.785,1.475,2.335l-2.92,3.223c-0.063,0.069-0.095,0.152-0.113,0.238H13v3.027v1.009v1.01
		c0,1.665,1.35,3.027,3,3.027h8.892v2.543c0,1.649,1.448,2.457,3.099,2.457h6c1.65,0,2.901-0.808,2.901-2.457V40.9H46
		c1.65,0,3-1.362,3-3.027v-1.01v-1.009v-3.027H48.992z M46,16.909c0.504,0,0.943,0.189,1.238,0.532s0.419,0.811,0.348,1.313
		l-1.152,8.136c-0.111,0.79-0.673,1.488-1.385,1.855c-0.012,0.004-0.021,0.012-0.033,0.017C44.697,28.921,44.352,29.02,44,29.02H18
		c-1.156,0-2.271-0.976-2.434-2.131l-1.152-8.134c-0.071-0.503,0.053-0.971,0.348-1.313s0.734-0.532,1.238-0.532 M34.892,42.4h-8
		v-1.5h8V42.4z M46,32.674H16h-1.729l2.703-2.956C17.305,29.829,17.648,29.9,18,29.9h26c0.371,0,0.733-0.076,1.08-0.199l2.719,2.973
		H46z"/>
</g>
</svg>
