<?xml version="1.0" encoding="utf-8"?>
<!-- Generator: Adobe Illustrator 17.1.0, SVG Export Plug-In . SVG Version: 6.00 Build 0)  -->
<!DOCTYPE svg PUBLIC "-//W3C//DTD SVG 1.1//EN" "http://www.w3.org/Graphics/SVG/1.1/DTD/svg11.dtd">
<svg version="1.1" id="Layer_1" xmlns="http://www.w3.org/2000/svg" xmlns:xlink="http://www.w3.org/1999/xlink" x="0px" y="0px"
	 viewBox="0 0 36.7 42" enable-background="new 0 0 36.7 42" xml:space="preserve">
<g>
	<g>
		<path fill="#1F3766" d="M0,0v42h36.7V10.5L25.5,0H0z M32.7,38.7H3.9V3.5h19.7l0,8.4l9.2,0L32.7,38.7z"/>
	</g>
</g>
<g>
	<path fill="#1F3766" d="M16,32.6h-0.3v1.2H16c0.3,0,0.5,0,0.6-0.1c0.1-0.1,0.2-0.2,0.2-0.5c0-0.2-0.1-0.3-0.2-0.4
		C16.5,32.6,16.3,32.6,16,32.6z"/>
	<path fill="#1F3766" d="M4.9,30v8h26.8v-8H4.9z M12.8,35.4c0.3,0,0.7-0.1,1.1-0.2v0.8c-0.4,0.1-0.7,0.2-1.2,0.2
		c-0.6,0-1.1-0.2-1.4-0.6c-0.3-0.4-0.5-0.9-0.5-1.6c0-0.4,0.1-0.8,0.2-1.2c0.2-0.3,0.4-0.6,0.7-0.8c0.3-0.2,0.7-0.3,1.1-0.3
		c0.4,0,0.8,0.1,1.3,0.3l-0.3,0.7c-0.2-0.1-0.3-0.1-0.5-0.2c-0.2-0.1-0.3-0.1-0.5-0.1c-0.3,0-0.6,0.1-0.8,0.4
		c-0.2,0.3-0.3,0.6-0.3,1.1C11.7,34.9,12.1,35.4,12.8,35.4z M17.2,36.1l-1-1.6h-0.5v1.6h-0.9v-4.3h1.2c0.6,0,1,0.1,1.3,0.3
		c0.3,0.2,0.4,0.5,0.4,1c0,0.3-0.1,0.5-0.2,0.7c-0.1,0.2-0.3,0.4-0.6,0.5c0.6,1,1.1,1.6,1.3,1.9H17.2z M21.2,32.6h-1.6v0.9h1.5v0.7
		h-1.5v1.1h1.6v0.8h-2.5v-4.3h2.5V32.6z M24,35.4c0.3,0,0.7-0.1,1.1-0.2v0.8c-0.4,0.1-0.7,0.2-1.2,0.2c-0.6,0-1.1-0.2-1.4-0.6
		c-0.3-0.4-0.5-0.9-0.5-1.6c0-0.4,0.1-0.8,0.2-1.2c0.2-0.3,0.4-0.6,0.7-0.8c0.3-0.2,0.7-0.3,1.1-0.3c0.4,0,0.8,0.1,1.3,0.3l-0.3,0.7
		c-0.2-0.1-0.3-0.1-0.5-0.2c-0.2-0.1-0.3-0.1-0.5-0.1c-0.3,0-0.6,0.1-0.8,0.4c-0.2,0.3-0.3,0.6-0.3,1.1C22.9,34.9,23.2,35.4,24,35.4
		z"/>
</g>
<g>
	<line fill="#1F3766" x1="13.9" y1="28.4" x2="22.9" y2="28.4"/>
	<path fill="#1F3766" d="M13.9,28.2c0,0,0.1-0.2,0.4-0.5c0.2-0.3,0.6-0.6,1-1c0.4-0.3,0.9-0.6,1.4-0.8c0.3-0.1,0.5-0.2,0.8-0.2
		c0.3-0.1,0.6-0.1,0.8-0.1c0.3,0,0.6,0,0.8,0.1c0.3,0,0.5,0.1,0.8,0.2c0.5,0.2,1,0.5,1.4,0.8c0.4,0.3,0.8,0.7,1,1
		c0.2,0.3,0.4,0.5,0.4,0.5v0.3c0,0-0.6,0-1.4,0.1c-0.8,0-2,0-3.1,0.1c-1.1,0-2.3-0.1-3.1-0.1c-0.8,0-1.4-0.1-1.4-0.1V28.2z"/>
</g>
<g>
	<line fill="#1F3766" x1="15.7" y1="23.4" x2="9.6" y2="23.4"/>
	<path fill="#1F3766" d="M15.7,23.5c0,0-0.4,0.6-0.9,1c-0.3,0.2-0.6,0.4-1,0.5c-0.4,0.1-0.7,0.2-1.1,0.2c-0.4,0-0.8-0.1-1.1-0.2
		c-0.2-0.1-0.4-0.2-0.5-0.2c-0.2-0.1-0.3-0.2-0.5-0.3c-0.6-0.4-0.9-1-0.9-1v-0.2c0,0,0.4,0,0.9-0.1c0.6,0,1.3,0,2.1,0
		c0.8,0,1.5,0,2.1,0c0.6,0,0.9,0.1,0.9,0.1V23.5z"/>
</g>
<g>
	<path fill="#1F3766" d="M19.4,26.1c0,0.6-0.4,1-1,1s-1-0.4-1-1V13c0-0.6,0.4-1,1-1s1,0.5,1,1V26.1z"/>
</g>
<g>
	<path fill="#1F3766" d="M25.3,13.7c0,0.5-0.5,0.9-1,0.9H12.5c-0.6,0-1-0.4-1-0.9s0.4-0.9,1-0.9h11.8C24.9,12.8,25.3,13.2,25.3,13.7
		z"/>
</g>
<polygon fill="#1F3766" points="10.3,23.3 11.4,23.7 13.2,14.6 12.1,14.2 "/>
<polygon fill="#1F3766" points="14,23.7 15.1,23.4 13.5,14.2 12.4,14.5 "/>
<g>
	<line fill="#1F3766" x1="26.9" y1="23.4" x2="20.8" y2="23.4"/>
	<path fill="#1F3766" d="M26.9,23.5c0,0-0.4,0.6-0.9,1c-0.3,0.2-0.6,0.4-1,0.5c-0.4,0.1-0.7,0.2-1.1,0.2c-0.4,0-0.8-0.1-1.1-0.2
		c-0.2-0.1-0.4-0.2-0.5-0.2c-0.2-0.1-0.3-0.2-0.5-0.3c-0.6-0.4-0.9-1-0.9-1v-0.2c0,0,0.4,0,0.9-0.1c0.6,0,1.3,0,2.1,0
		c0.8,0,1.5,0,2.1,0c0.6,0,0.9,0.1,0.9,0.1V23.5z"/>
</g>
<polygon fill="#1F3766" points="21.6,23.3 22.7,23.7 24.4,14.6 23.3,14.2 "/>
<polygon fill="#1F3766" points="25.2,23.7 26.3,23.4 24.7,14.2 23.6,14.5 "/>
</svg>
