<?xml version="1.0" encoding="utf-8"?>
<!-- Generator: Adobe Illustrator 16.0.4, SVG Export Plug-In . SVG Version: 6.00 Build 0)  -->
<!DOCTYPE svg PUBLIC "-//W3C//DTD SVG 1.1//EN" "http://www.w3.org/Graphics/SVG/1.1/DTD/svg11.dtd">
<svg version="1.1" id="Layer_1" xmlns="http://www.w3.org/2000/svg" xmlns:xlink="http://www.w3.org/1999/xlink" x="0px" y="0px"
	 width="62px" height="62px" viewBox="0 0 62 62" enable-background="new 0 0 62 62" xml:space="preserve">
<polygon fill="#0B0C0C" points="52,15.24 49,15.24 49,12.24 46,12.24 46,15.24 43,15.24 43,18.24 46,18.24 46,21.24 49,21.24 
	49,18.24 52,18.24 "/>
<path d="M42.943,24.887h-7.83v-2.678c0-1.449-1.273-2.603-2.727-2.603h-5.279c-1.451,0-2.551,1.151-2.551,2.603v2.678H16.55
	c-1.45,0-2.551,1.15-2.551,2.602v15.836C13.999,44.775,15.1,46,16.55,46h26.394c1.453,0,2.727-1.225,2.727-2.676V27.488
	C45.67,26.037,44.396,24.887,42.943,24.887z M26.314,23.127h7.039v1.76h-7.039V23.127z"/>
</svg>
