<?xml version="1.0" encoding="utf-8"?>
<!-- Generator: Adobe Illustrator 16.0.4, SVG Export Plug-In . SVG Version: 6.00 Build 0)  -->
<!DOCTYPE svg PUBLIC "-//W3C//DTD SVG 1.1//EN" "http://www.w3.org/Graphics/SVG/1.1/DTD/svg11.dtd">
<svg version="1.1" id="Layer_1" xmlns="http://www.w3.org/2000/svg" xmlns:xlink="http://www.w3.org/1999/xlink" x="0px" y="0px"
	 width="62px" height="62px" viewBox="0 0 62 62" enable-background="new 0 0 62 62" xml:space="preserve">
<g>
	<circle fill="#0B0C0C" cx="29" cy="23.5" r="7.502"/>
	<path fill="#0B0C0C" d="M14,46c0-6.213,6.714-11.25,14.998-11.25C37.286,34.75,44,39.787,44,46"/>
</g>
<g>
	<polygon points="39.039,21.836 39.25,20.34 39.465,18.844 40.748,20.127 42.031,21.41 40.535,21.625 	"/>
	<polygon points="46.168,16.419 42.346,20.27 41.922,19.648 45.744,15.798 45.09,15.138 41.268,18.984 40.646,18.559 44.469,14.71 
		44.045,14.283 39.799,18.559 42.346,21.125 46.594,16.849 	"/>
	<path d="M47.713,15.735c0.223-0.225,0.215-0.603-0.018-0.839l-1.691-1.715c-0.232-0.235-0.605-0.242-0.828-0.017
		c-0.018,0.018-0.025,0.042-0.041,0.061l-0.01-0.009l-0.812,0.822l2.537,2.571l0.812-0.822l-0.009-0.01
		C47.672,15.76,47.693,15.754,47.713,15.735z"/>
</g>
</svg>
