<?xml version="1.0" encoding="utf-8"?>
<!-- Generator: Adobe Illustrator 16.0.4, SVG Export Plug-In . SVG Version: 6.00 Build 0)  -->
<!DOCTYPE svg PUBLIC "-//W3C//DTD SVG 1.1//EN" "http://www.w3.org/Graphics/SVG/1.1/DTD/svg11.dtd">
<svg version="1.1" id="Layer_1" xmlns="http://www.w3.org/2000/svg" xmlns:xlink="http://www.w3.org/1999/xlink" x="0px" y="0px"
	 width="78px" height="113.198px" viewBox="0 0 78 113.198" style="enable-background:new 0 0 78 113.198;" xml:space="preserve">
<style type="text/css">
<![CDATA[
	.st0{fill:#20376B;}
	.st1{fill:url(#SVGID_1_);}
	.st2{fill:url(#SVGID_2_);}
	.st3{fill:#FFFFFF;}
	.st4{fill:#010101;}
]]>
</style>
<g>
	<g>
		<g>
			<path class="st3" d="M39,8C21.906,8,8,21.906,8,39c0,17.092,13.906,31,31,31c17.093,0,31-13.908,31-31C70,21.906,56.093,8,39,8z"
				/>
			<g>
				<linearGradient id="SVGID_1_" gradientUnits="userSpaceOnUse" x1="38.9995" y1="0" x2="38.9995" y2="78.0005">
					<stop  offset="0" style="stop-color:#4471A8"/>
					<stop  offset="1" style="stop-color:#20376B"/>
				</linearGradient>
				<path class="st1" d="M39,78C17.495,78,0,60.505,0,39C0,17.495,17.495,0,39,0c21.504,0,39,17.495,39,39
					C78,60.505,60.504,78,39,78z M39,8C21.906,8,8,21.906,8,39c0,17.092,13.906,31,31,31c17.093,0,31-13.908,31-31
					C70,21.906,56.093,8,39,8z"/>
			</g>
		</g>
	</g>
	<g>
		<linearGradient id="SVGID_2_" gradientUnits="userSpaceOnUse" x1="38.9995" y1="9" x2="38.9995" y2="69.0005">
			<stop  offset="0" style="stop-color:#FFFFFF"/>
			<stop  offset="1" style="stop-color:#ABABAB"/>
		</linearGradient>
		<path class="st2" d="M39,69C22.459,69,9,55.542,9,39C9,22.458,22.459,9,39,9c16.543,0,30,13.458,30,30C69,55.542,55.543,69,39,69z
			"/>
		<path class="st3" d="M39,10c15.99,0,29,13.009,29,29c0,15.99-13.01,29-29,29c-15.991,0-29-13.01-29-29C10,23.009,23.009,10,39,10
			 M39,8C21.906,8,8,21.906,8,39c0,17.092,13.906,31,31,31c17.093,0,31-13.908,31-31C70,21.906,56.093,8,39,8L39,8z"/>
	</g>
</g>
<g>
	<path class="st4" d="M31.988,95.282h-4.934v-8.566h4.934v1.488h-3.117v1.881h2.9v1.488h-2.9v2.209h3.117V95.282z"/>
	<path class="st4" d="M40.883,90.917c0,1.41-0.402,2.49-1.205,3.24c-0.803,0.75-1.962,1.125-3.478,1.125h-2.426v-8.566h2.689
		c1.398,0,2.484,0.369,3.258,1.107C40.496,88.562,40.883,89.593,40.883,90.917z M38.996,90.964c0-1.84-0.812-2.76-2.438-2.76h-0.967
		v5.578h0.779C38.121,93.782,38.996,92.843,38.996,90.964z"/>
	<path class="st4" d="M42.658,95.282v-8.566h1.816v8.566H42.658z"/>
	<path class="st4" d="M49.936,95.282h-1.816v-7.055h-2.326v-1.512h6.469v1.512h-2.326V95.282z"/>
	<path class="st4" d="M26.99,109.683h-1.816v-7.055h-2.326v-1.512h6.469v1.512H26.99V109.683z"/>
	<path class="st4" d="M35.568,109.683h-4.934v-8.566h4.934v1.488h-3.117v1.881h2.9v1.488h-2.9v2.209h3.117V109.683z"/>
	<path class="st4" d="M42.6,109.683l-0.621-2.039h-3.124l-0.621,2.039h-1.957l3.023-8.602h2.221l3.035,8.602H42.6z M41.545,106.12
		c-0.574-1.848-0.898-2.893-0.971-3.135s-0.123-0.434-0.154-0.574c-0.129,0.5-0.499,1.736-1.108,3.709H41.545z"/>
	<path class="st4" d="M49.262,109.683l-2.062-6.721h-0.053c0.074,1.367,0.111,2.279,0.111,2.736v3.984h-1.623v-8.566h2.473
		l2.027,6.551h0.035l2.15-6.551h2.473v8.566H53.1v-4.055c0-0.191,0.002-0.412,0.008-0.662s0.033-0.914,0.08-1.992h-0.053
		l-2.209,6.709H49.262z"/>
</g>
<g>
	<g>
		<path class="st0" d="M35.404,53.405H20.11c0,0-0.284-6.003,0.668-7.214c1.066-1.344,1.9-2.283,5.444-3.482l4.379-1.666
			l0.035-2.777c0,0-1.33-0.84-1.738-3.436c-0.832,0.195-0.979-6.184-0.907-6.789C28.254,25.828,30.939,23,35.072,23
			c4.131,0,6.818,2.824,7.078,5.034c0.074,0.608-0.072,6.979-0.904,6.783c-0.408,2.596-1.738,3.422-1.738,3.422l0.033,2.752
			l4.381,1.615c3.542,1.198,4.377,2.24,5.443,3.585c0.951,1.21,0.666,7.212,0.666,7.212H35.404"/>
		<g>
			<path class="st0" d="M54.021,44.833c-0.912-1.15-1.627-2.041-4.655-3.066l-3.747-1.381l-0.027-2.353c0,0,1.139-0.707,1.486-2.926
				c0.712,0.167,0.838-5.281,0.775-5.801c-0.223-1.887-2.516-4.298-6.039-4.305c0.746,0.908,1.215,1.925,1.331,2.917
				c0.008,0.053,0.146,6.239-0.956,7.482c-0.014,0.015-0.026,0.029-0.04,0.044c-0.371,1.761-1.13,2.76-1.634,3.254l0.019,1.593
				l3.735,1.376c3.809,1.288,4.769,2.5,5.881,3.902C50.88,46.5,51.066,48.936,51.084,51h3.508
				C54.592,51,54.836,45.868,54.021,44.833z"/>
		</g>
	</g>
	<g>
		<path class="st0" d="M25.904,41.761l3.708-1.412l0.021-1.628c-0.505-0.496-1.264-1.5-1.633-3.265
			c-0.015-0.014-0.027-0.028-0.041-0.042c-1.098-1.237-0.965-7.435-0.957-7.492c0.117-0.993,0.588-2.012,1.336-2.921
			c-3.529,0.004-5.824,2.419-6.047,4.31c-0.061,0.518,0.062,5.973,0.775,5.806c0.35,2.22,1.486,2.938,1.486,2.938l-0.029,2.375
			l-3.745,1.424c-3.03,1.025-3.743,1.829-4.655,2.978C15.309,45.867,15.553,51,15.553,51h3.512c0.015-2.064,0.203-4.501,0.931-5.427
			C21.219,44.031,22.227,43.006,25.904,41.761z"/>
	</g>
</g>
<g>
	<polygon class="st0" points="49.71,36.487 49.995,34.457 50.285,32.422 52.031,34.167 53.773,35.909 51.745,36.2 	"/>
	<polygon class="st0" points="59.392,29.131 54.201,34.36 53.626,33.514 58.814,28.286 57.928,27.39 52.736,32.616 51.895,32.038 
		57.086,26.809 56.506,26.229 50.741,32.038 54.201,35.52 59.969,29.713 	"/>
	<path class="st0" d="M61.488,28.2c0.301-0.304,0.293-0.818-0.021-1.139l-2.299-2.328c-0.312-0.32-0.821-0.327-1.122-0.021
		c-0.026,0.023-0.037,0.057-0.058,0.083l-0.016-0.013l-1.102,1.117l3.445,3.492l1.102-1.118l-0.014-0.015
		C61.432,28.236,61.463,28.228,61.488,28.2z"/>
</g>
</svg>
