<?xml version="1.0" encoding="utf-8"?>
<!-- Generator: Adobe Illustrator 16.0.4, SVG Export Plug-In . SVG Version: 6.00 Build 0)  -->
<!DOCTYPE svg PUBLIC "-//W3C//DTD SVG 1.1//EN" "http://www.w3.org/Graphics/SVG/1.1/DTD/svg11.dtd">
<svg version="1.1" id="Layer_1" xmlns="http://www.w3.org/2000/svg" xmlns:xlink="http://www.w3.org/1999/xlink" x="0px" y="0px"
	 width="62px" height="62px" viewBox="0 0 62 62" enable-background="new 0 0 62 62" xml:space="preserve">
<g>
	<path d="M41.944,24.574h-7.83v-2.678c0-1.449-1.273-2.602-2.727-2.602h-5.279c-1.452,0-2.552,1.152-2.552,2.602v2.678h-8.006
		c-1.451,0-2.551,1.15-2.551,2.602v15.836c0,1.451,1.1,2.676,2.551,2.676h26.394c1.453,0,2.727-1.225,2.727-2.676V27.176
		C44.671,25.725,43.397,24.574,41.944,24.574z M25.316,22.814h7.039v1.76h-7.039V22.814z"/>
	<g>
		<polygon points="41.039,18.836 41.25,17.34 41.465,15.844 42.748,17.127 44.031,18.41 42.535,18.625 		"/>
		<polygon points="48.168,13.419 44.346,17.27 43.922,16.648 47.744,12.798 47.09,12.138 43.268,15.984 42.646,15.559 46.469,11.71 
			46.045,11.283 41.799,15.559 44.346,18.125 48.594,13.849 		"/>
		<path d="M49.713,12.735c0.223-0.225,0.215-0.603-0.018-0.839l-1.691-1.715c-0.232-0.235-0.605-0.242-0.828-0.017
			c-0.018,0.018-0.025,0.042-0.041,0.061l-0.01-0.009l-0.812,0.822l2.537,2.571l0.812-0.822l-0.009-0.01
			C49.672,12.76,49.693,12.754,49.713,12.735z"/>
	</g>
</g>
</svg>
