<?xml version="1.0" encoding="utf-8"?>
<!-- Generator: Adobe Illustrator 16.0.0, SVG Export Plug-In . SVG Version: 6.00 Build 0)  -->
<!DOCTYPE svg PUBLIC "-//W3C//DTD SVG 1.1//EN" "http://www.w3.org/Graphics/SVG/1.1/DTD/svg11.dtd">
<svg version="1.1" id="Layer_1" xmlns="http://www.w3.org/2000/svg" xmlns:xlink="http://www.w3.org/1999/xlink" x="0px" y="0px"
	 width="62px" height="62px" viewBox="0 0 62 62" enable-background="new 0 0 62 62" xml:space="preserve">
<g>
	<path fill="#0B0C0C" d="M47.83,15.204c-0.753,0.019-1.191,0.679-1.07,1.388c-0.296,0.263-0.334,0.794-0.214,1.158
		c0.069,0.202,0.179,0.379,0.328,0.532c-0.045,0.091-0.113,0.291-0.107,0.396c-0.009,0.167-0.012,0.375,0.027,0.537
		c0.107,0.869,1.308,1.423,1.877,1.928c-0.839,0.324-0.688,1.492-0.169,2.03c0.302,0.399,0.674,0.795,0.997,1.186
		c0.057,0.101,0.159,0.223,0.256,0.31c-0.086,0.42-0.193,0.836-0.234,1.264c-0.095,0.975-0.048,2.008-0.043,2.983
		c0.121,0.915-0.231,1.658-0.418,2.496c-0.58,1.659-0.866,3.608-0.607,5.363c0.21,0.263,0.222,0.942,0.431,1.28
		c0.227,0.406,0.519,0.789,0.786,1.168c0.55,0.778,1.078,1.641,1.721,2.348c0.381,0.451,0.875-0.049,1.198-0.28
		c0.737-0.528,1.471-0.985,2.306-1.349c0.711-0.31,1.706-0.529,2.314-1.02c0.606-0.488-0.059-1.48-0.189-2.064
		c-0.364-1.631-0.452-3.19-0.529-4.853c-0.039-0.977-0.157-1.954-0.184-2.93c-0.064-0.642,0.14-1.292,0.036-1.928
		c-0.168-0.857-0.771-1.699-1.14-2.483c-0.516-1.093-0.931-2.245-1.381-3.375c-0.811-2.04-2.691-3.163-4.104-4.753
		C49.249,15.979,48.634,15.186,47.83,15.204z"/>
	<path fill="#0B0C0C" d="M15.17,15.204c0.753,0.019,1.191,0.679,1.07,1.388c0.296,0.263,0.334,0.794,0.214,1.158
		c-0.069,0.202-0.179,0.379-0.328,0.532c0.045,0.091,0.113,0.291,0.107,0.396c0.009,0.167,0.012,0.375-0.027,0.537
		c-0.107,0.869-1.308,1.423-1.877,1.928c0.839,0.324,0.688,1.492,0.169,2.03c-0.302,0.399-0.674,0.795-0.997,1.186
		c-0.057,0.101-0.159,0.223-0.256,0.31c0.086,0.42,0.193,0.836,0.234,1.264c0.095,0.975,0.048,2.008,0.043,2.983
		c-0.121,0.915,0.231,1.658,0.418,2.496c0.58,1.659,0.866,3.608,0.607,5.363c-0.21,0.263-0.222,0.942-0.431,1.28
		c-0.227,0.406-0.519,0.789-0.786,1.168c-0.55,0.778-1.078,1.641-1.721,2.348c-0.381,0.451-0.875-0.049-1.198-0.28
		c-0.737-0.528-1.471-0.985-2.306-1.349c-0.711-0.31-1.706-0.529-2.314-1.02c-0.606-0.488,0.059-1.48,0.189-2.064
		c0.364-1.631,0.452-3.19,0.529-4.853c0.039-0.977,0.157-1.954,0.184-2.93c0.064-0.642-0.14-1.292-0.036-1.928
		c0.168-0.857,0.771-1.699,1.14-2.483c0.516-1.093,0.931-2.245,1.381-3.375c0.811-2.04,2.691-3.163,4.104-4.753
		C13.751,15.979,14.366,15.186,15.17,15.204z"/>
	<g>
		<path fill="#0B0C0C" d="M42.412,46.796l0.033-8.504c-2.567,3.143-6.516,5.166-10.946,5.166c-4.43,0-8.378-2.023-10.944-5.166
			v8.504"/>
		<path fill="#0B0C0C" d="M31.499,41.458c7.18,0,13.001-5.667,13.001-12.658s-5.821-12.658-13.001-12.658S18.5,21.81,18.5,28.8
			S24.319,41.458,31.499,41.458z M35.305,20.243c2.484,0,4.5,2.015,4.5,4.5s-2.016,4.5-4.5,4.5c-2.485,0-4.5-2.015-4.5-4.5
			S32.819,20.243,35.305,20.243z"/>
	</g>
</g>
</svg>
