<?xml version="1.0" encoding="utf-8"?>
<!-- Generator: Adobe Illustrator 17.1.0, SVG Export Plug-In . SVG Version: 6.00 Build 0)  -->
<!DOCTYPE svg PUBLIC "-//W3C//DTD SVG 1.1//EN" "http://www.w3.org/Graphics/SVG/1.1/DTD/svg11.dtd">
<svg version="1.1" id="Layer_1" xmlns="http://www.w3.org/2000/svg" xmlns:xlink="http://www.w3.org/1999/xlink" x="0px" y="0px"
	 viewBox="0 0 36.7 42" enable-background="new 0 0 36.7 42" xml:space="preserve">
<g>
	<path fill="#1F3766" d="M0,0v42h36.7V10.5L25.5,0H0z M32.7,38.7H3.9V3.5h19.7l0,8.4l9.2,0L32.7,38.7z"/>
</g>
<g>
	<g>
		<g>
			<path fill="#1F3766" d="M9.6,14.7c0.1,0.6,0.3,1.1,0.6,1.6c0.5,0.8,1.8,0,1.3-0.8c-0.3-0.4-0.4-0.8-0.5-1.3
				C10.8,13.3,9.4,13.7,9.6,14.7L9.6,14.7z"/>
		</g>
	</g>
	<g>
		<g>
			<path fill="#1F3766" d="M11.5,16.3c0.9-1.4,1.8-2.8,3.1-3.9c0.7-0.6-0.3-1.7-1.1-1.1c-1.3,1.2-2.3,2.7-3.3,4.2
				C9.7,16.4,11,17.2,11.5,16.3L11.5,16.3z"/>
		</g>
	</g>
</g>
<path fill="#1F3766" d="M11.5,32.5c-0.3,0-0.5,0.1-0.7,0.3c-0.2,0.2-0.2,0.5-0.2,0.9c0,0.4,0.1,0.7,0.2,0.9c0.2,0.2,0.4,0.3,0.7,0.3
	c0.6,0,0.9-0.4,0.9-1.2C12.4,32.9,12.1,32.5,11.5,32.5z"/>
<path fill="#1F3766" d="M15.1,32.6h-0.4v2.3h0.3c0.7,0,1.1-0.4,1.1-1.2C16.1,33,15.8,32.6,15.1,32.6z"/>
<path fill="#1F3766" d="M4.9,29.6v8.1h26.9v-8.1H4.9z M9.4,35.5H7.2V32h0.8v2.9h1.4V35.5z M12.8,35.1c-0.3,0.3-0.7,0.5-1.3,0.5
	c-0.5,0-1-0.2-1.3-0.5c-0.3-0.3-0.4-0.8-0.4-1.4c0-0.6,0.1-1,0.4-1.4c0.3-0.3,0.7-0.5,1.3-0.5c0.5,0,1,0.2,1.3,0.5
	c0.3,0.3,0.4,0.8,0.4,1.4C13.2,34.3,13.1,34.8,12.8,35.1z M16.4,35.1c-0.3,0.3-0.8,0.5-1.4,0.5h-1V32h1.1c0.6,0,1,0.2,1.4,0.5
	c0.3,0.3,0.5,0.7,0.5,1.3C16.9,34.3,16.8,34.7,16.4,35.1z M20.4,35.4c-0.2,0.1-0.4,0.1-0.6,0.2c-0.2,0-0.4,0-0.6,0
	c-0.5,0-1-0.2-1.2-0.5c-0.3-0.3-0.4-0.8-0.4-1.4c0-0.6,0.2-1,0.5-1.3c0.3-0.3,0.8-0.5,1.4-0.5c0.4,0,0.7,0.1,1.1,0.2l-0.3,0.6
	c-0.3-0.1-0.5-0.2-0.8-0.2c-0.3,0-0.6,0.1-0.8,0.3c-0.2,0.2-0.3,0.5-0.3,0.9c0,0.4,0.1,0.7,0.2,0.9c0.2,0.2,0.4,0.3,0.7,0.3
	c0.2,0,0.3,0,0.5,0v-0.7H19v-0.6h1.4V35.4z M22.1,35.5h-0.8V32h0.8V35.5z M26.1,35.5h-1l-1.6-2.7h0c0,0.5,0,0.8,0,1v1.7h-0.7V32h1
	l1.6,2.7h0c0-0.5,0-0.8,0-1V32h0.7V35.5z M29.8,35.4c-0.2,0.1-0.4,0.1-0.6,0.2c-0.2,0-0.4,0-0.6,0c-0.5,0-1-0.2-1.2-0.5
	c-0.3-0.3-0.4-0.8-0.4-1.4c0-0.6,0.2-1,0.5-1.3c0.3-0.3,0.8-0.5,1.4-0.5c0.4,0,0.7,0.1,1.1,0.2l-0.3,0.6c-0.3-0.1-0.5-0.2-0.8-0.2
	c-0.3,0-0.6,0.1-0.8,0.3c-0.2,0.2-0.3,0.5-0.3,0.9c0,0.4,0.1,0.7,0.2,0.9c0.2,0.2,0.4,0.3,0.7,0.3c0.2,0,0.3,0,0.5,0v-0.7h-0.7v-0.6
	h1.4V35.4z"/>
<rect x="16.4" y="12.9" fill="#1F3766" width="9.9" height="1.8"/>
<g>
	<g>
		<g>
			<path fill="#1F3766" d="M9.6,20.3c0.1,0.6,0.3,1.1,0.6,1.6c0.5,0.8,1.8,0,1.3-0.8c-0.3-0.4-0.4-0.8-0.5-1.3
				C10.8,19,9.4,19.4,9.6,20.3L9.6,20.3z"/>
		</g>
	</g>
	<g>
		<g>
			<path fill="#1F3766" d="M11.5,22c0.9-1.4,1.8-2.8,3.1-3.9c0.7-0.6-0.3-1.7-1.1-1.1c-1.3,1.2-2.3,2.7-3.3,4.2
				C9.7,22.1,11,22.8,11.5,22L11.5,22z"/>
		</g>
	</g>
</g>
<rect x="16.4" y="18.6" fill="#1F3766" width="9.9" height="1.8"/>
<g>
	<g>
		<g>
			<path fill="#1F3766" d="M9.6,26c0.1,0.6,0.3,1.1,0.6,1.6c0.5,0.8,1.8,0,1.3-0.8c-0.3-0.4-0.4-0.8-0.5-1.3
				C10.8,24.7,9.4,25.1,9.6,26L9.6,26z"/>
		</g>
	</g>
	<g>
		<g>
			<path fill="#1F3766" d="M11.5,27.7c0.9-1.4,1.8-2.8,3.1-3.9c0.7-0.6-0.3-1.7-1.1-1.1c-1.3,1.2-2.3,2.7-3.3,4.2
				C9.7,27.8,11,28.5,11.5,27.7L11.5,27.7z"/>
		</g>
	</g>
</g>
<rect x="16.4" y="24.2" fill="#1F3766" width="9.9" height="1.8"/>
</svg>
