<?xml version="1.0" encoding="utf-8"?>
<!-- Generator: Adobe Illustrator 16.0.0, SVG Export Plug-In . SVG Version: 6.00 Build 0)  -->
<!DOCTYPE svg PUBLIC "-//W3C//DTD SVG 1.1//EN" "http://www.w3.org/Graphics/SVG/1.1/DTD/svg11.dtd">
<svg version="1.1" id="Layer_1" xmlns="http://www.w3.org/2000/svg" xmlns:xlink="http://www.w3.org/1999/xlink" x="0px" y="0px"
	 width="62px" height="62px" viewBox="0 0 62 62" enable-background="new 0 0 62 62" xml:space="preserve">
<g>
	<g>
		<g>
			<circle fill="#0B0C0C" cx="26" cy="27.5" r="7.502"/>
			<path fill="#0B0C0C" d="M11,50c0-6.213,6.714-11.25,14.998-11.25C34.285,38.75,41,43.787,41,50"/>
		</g>
	</g>
	<path fill="#0B0C0C" d="M44.002,12C39.584,12,36,15.017,36,18.739c0,2.227,1.285,4.193,3.259,5.417L37.639,28l5.406-2.575
		c0.313,0.032,0.629,0.055,0.957,0.055c4.416,0,7.998-3.02,7.998-6.741C52,15.017,48.418,12,44.002,12z M45.143,23.531h-2.285
		v-2.286h2.285V23.531z M45.143,19.817h-2.285v-5.714h2.285V19.817z"/>
</g>
</svg>
