<?xml version="1.0" encoding="utf-8"?>
<!-- Generator: Adobe Illustrator 16.0.0, SVG Export Plug-In . SVG Version: 6.00 Build 0)  -->
<svg version="1.2" baseProfile="tiny" id="Layer_1" xmlns="http://www.w3.org/2000/svg" xmlns:xlink="http://www.w3.org/1999/xlink"
	 x="0px" y="0px" width="62px" height="62px" viewBox="0 0 62 62" xml:space="preserve">
<path d="M31,6.5C17.49,6.5,6.5,17.49,6.5,31c0,13.509,10.99,24.5,24.5,24.5c13.509,0,24.5-10.991,24.5-24.5
	C55.5,17.49,44.509,6.5,31,6.5z M30.998,13c4.146,0,7.504,3.357,7.504,7.5c0,4.144-3.358,7.5-7.504,7.5c-4.144,0-7.5-3.356-7.5-7.5
	C23.498,16.357,26.854,13,30.998,13z M16,43c0-6.213,6.714-11.25,14.998-11.25C39.285,31.75,46,36.787,46,43H16z M47.021,18.9h-2h-2
	h-2v-3h2h2h2V18.9z"/>
</svg>
