<?xml version="1.0" encoding="utf-8"?>
<!-- Generator: Adobe Illustrator 16.0.4, SVG Export Plug-In . SVG Version: 6.00 Build 0)  -->
<!DOCTYPE svg PUBLIC "-//W3C//DTD SVG 1.1//EN" "http://www.w3.org/Graphics/SVG/1.1/DTD/svg11.dtd">
<svg version="1.1" id="Layer_1" xmlns="http://www.w3.org/2000/svg" xmlns:xlink="http://www.w3.org/1999/xlink" x="0px" y="0px"
	 width="62px" height="62px" viewBox="0 0 62 62" enable-background="new 0 0 62 62" xml:space="preserve">
<g>
	<path d="M23.725,27.493c1.486,0,2.702,1.219,2.702,2.708v3.16c0,1.488-1.216,2.707-2.702,2.707h-8.107
		c-1.488,0-2.705-1.219-2.705-2.707v-3.16c0-1.489,1.217-2.708,2.705-2.708H23.725 M23.725,23.432h-8.107
		c-3.727,0-6.756,3.033-6.756,6.77v3.16c0,3.732,3.029,6.77,6.756,6.77h8.107c3.723,0,6.758-3.037,6.758-6.77v-3.16
		C30.482,26.465,27.447,23.432,23.725,23.432"/>
	<path d="M47.048,27.52c1.499,0,2.726,1.224,2.726,2.724v2.724c0,1.5-1.227,2.727-2.726,2.727h-8.172
		c-1.499,0-2.726-1.227-2.726-2.727v-2.724c0-1.5,1.227-2.724,2.726-2.724H47.048 M47.048,23.432h-8.172
		c-3.757,0-6.81,3.057-6.81,6.812v2.724c0,3.754,3.053,6.812,6.81,6.812h8.172c3.756,0,6.813-3.058,6.813-6.812v-2.724
		C53.861,26.488,50.804,23.432,47.048,23.432"/>
	<path d="M41.029,31.078c0,1.5-1.223,2.723-2.713,2.723H24.756c-1.49,0-2.709-1.223-2.709-2.723s1.219-2.725,2.709-2.725h13.561
		C39.807,28.354,41.029,29.578,41.029,31.078"/>
</g>
</svg>
