<?xml version="1.0" encoding="utf-8"?>
<!-- Generator: Adobe Illustrator 16.0.0, SVG Export Plug-In . SVG Version: 6.00 Build 0)  -->
<!DOCTYPE svg PUBLIC "-//W3C//DTD SVG 1.1//EN" "http://www.w3.org/Graphics/SVG/1.1/DTD/svg11.dtd">
<svg version="1.1" id="Layer_1" xmlns="http://www.w3.org/2000/svg" xmlns:xlink="http://www.w3.org/1999/xlink" x="0px" y="0px"
	 width="62px" height="62px" viewBox="0 0 62 62" enable-background="new 0 0 62 62" xml:space="preserve">
<path fill="#0B0C0C" d="M31.332,46.404H16.04c0,0-0.285-6.002,0.667-7.213c1.066-1.344,1.9-2.283,5.443-3.482l4.38-1.666
	l0.034-2.777c0,0-1.33-0.84-1.738-3.436c-0.832,0.195-0.979-6.184-0.906-6.789C24.182,18.828,26.867,16,31,16
	c4.132,0,6.818,2.824,7.079,5.035c0.073,0.607-0.073,6.979-0.905,6.783c-0.408,2.596-1.738,3.422-1.738,3.422l0.033,2.752
	l4.381,1.615c3.542,1.198,4.377,2.24,5.443,3.585c0.951,1.211,0.667,7.212,0.667,7.212H31.332"/>
</svg>
