<?xml version="1.0" encoding="utf-8"?>
<!-- Generator: Adobe Illustrator 16.0.4, SVG Export Plug-In . SVG Version: 6.00 Build 0)  -->
<!DOCTYPE svg PUBLIC "-//W3C//DTD SVG 1.1//EN" "http://www.w3.org/Graphics/SVG/1.1/DTD/svg11.dtd">
<svg version="1.1" id="Layer_1" xmlns="http://www.w3.org/2000/svg" xmlns:xlink="http://www.w3.org/1999/xlink" x="0px" y="0px"
	 width="62px" height="62px" viewBox="0 0 62 62" enable-background="new 0 0 62 62" xml:space="preserve">
<path d="M49.864,17.813h-1.229h-34.3h-1.224v1.225v25.736V46h1.224h34.3h1.229v-1.226V19.038V17.813z M48.051,19.75v24.5H15.125
	v-24.5H48.051"/>
<g>
	<path d="M18.828,40.605l-1.626-1.164l5.914-8.26l0.826,1.026c0.016,0.02,1.479,1.838,2.36,2.84
		c1.083-0.109,4.737-1.885,7.686-3.592l0.466-0.27l4.754,2.371l5.21-9.915l1.77,0.931l-6.12,11.648l-5.544-2.765
		c-8.147,4.659-9.077,3.629-9.528,3.131c-0.49-0.543-1.218-1.418-1.781-2.104L18.828,40.605z"/>
</g>
</svg>
