<?xml version="1.0" encoding="utf-8"?>
<!-- Generator: Adobe Illustrator 16.0.0, SVG Export Plug-In . SVG Version: 6.00 Build 0)  -->
<!DOCTYPE svg PUBLIC "-//W3C//DTD SVG 1.1//EN" "http://www.w3.org/Graphics/SVG/1.1/DTD/svg11.dtd">
<svg version="1.1" id="Layer_1" xmlns="http://www.w3.org/2000/svg" xmlns:xlink="http://www.w3.org/1999/xlink" x="0px" y="0px"
	 width="62px" height="62px" viewBox="0 0 62 62" enable-background="new 0 0 62 62" xml:space="preserve">
<g>
	<path fill="#0B0C0C" d="M14,15.9v32h28v-24l-8.586-8H14z M38,43.9H18v-24h14v6h6V43.9z"/>
	<polygon fill="#0B0C0C" points="46,15.9 46,12.9 43,12.9 43,15.9 40,15.9 40,18.9 43,18.9 43,21.9 46,21.9 46,18.9 49,18.9 
		49,15.9 	"/>
	<path fill="#0B0C0C" d="M20,27.847v2V31.9v1.947V33.9h16v-0.053V31.9v-2.053v-2h-2H22H20z M34,31.9H22v-2.053h12V31.9z"/>
	<path fill="#0B0C0C" d="M22,35.9h-2v2v2v2h2h12h2v-2v-2v-2h-2H22z M34,39.9H22v-2h12V39.9z"/>
</g>
</svg>
