<?xml version="1.0" encoding="utf-8"?>
<!-- Generator: Adobe Illustrator 16.0.0, SVG Export Plug-In . SVG Version: 6.00 Build 0)  -->
<!DOCTYPE svg PUBLIC "-//W3C//DTD SVG 1.1//EN" "http://www.w3.org/Graphics/SVG/1.1/DTD/svg11.dtd">
<svg version="1.1" id="BLACK" xmlns="http://www.w3.org/2000/svg" xmlns:xlink="http://www.w3.org/1999/xlink" x="0px" y="0px"
	 width="62px" height="62px" viewBox="0 0 62 62" enable-background="new 0 0 62 62" xml:space="preserve">
<path d="M58,15v3h-3v3h-3v-3h-3v-3h3v-3h3v3H58z M18.306,20.5H49.5v22.508H18.306V28.37h-3.356
	c-0.467,2.364-2.553,4.155-5.052,4.155c-2.842,0-5.154-2.313-5.154-5.155s2.313-5.154,5.154-5.154c2.499,0,4.585,1.79,5.052,4.154
	h3.356V20.5z M13.051,27.37c0-1.739-1.415-3.154-3.153-3.154c-1.739,0-3.154,1.415-3.154,3.154s1.415,3.155,3.154,3.155
	C11.636,30.525,13.051,29.109,13.051,27.37z M20.306,41.008H47.5V22.5H20.306V41.008z"/>
</svg>
