<?xml version="1.0" encoding="utf-8"?>
<!-- Generator: Adobe Illustrator 16.0.0, SVG Export Plug-In . SVG Version: 6.00 Build 0)  -->
<!DOCTYPE svg PUBLIC "-//W3C//DTD SVG 1.1//EN" "http://www.w3.org/Graphics/SVG/1.1/DTD/svg11.dtd">
<svg version="1.1" id="Layer_1" xmlns="http://www.w3.org/2000/svg" xmlns:xlink="http://www.w3.org/1999/xlink" x="0px" y="0px"
	 width="62px" height="62px" viewBox="0 0 62 62" enable-background="new 0 0 62 62" xml:space="preserve">
<g>
	<g>
		<g>
			<g>
				<path fill="#0B0C0C" d="M18.891,44.816c0,2.295-1.86,4.155-4.153,4.155c-2.294,0-4.154-1.86-4.154-4.155
					c0-2.289,1.86-4.153,4.154-4.153C17.03,40.663,18.891,42.527,18.891,44.816"/>
			</g>
			<g>
				<path fill="#0B0C0C" d="M18.891,33.74c0,2.294-1.86,4.154-4.153,4.154c-2.294,0-4.154-1.86-4.154-4.154
					c0-2.289,1.86-4.154,4.154-4.154C17.03,29.586,18.891,31.451,18.891,33.74"/>
			</g>
			<g>
				<path fill="#0B0C0C" d="M18.891,22.663c0,2.294-1.86,4.155-4.153,4.155c-2.294,0-4.154-1.86-4.154-4.155
					c0-2.29,1.86-4.154,4.154-4.154C17.03,18.509,18.891,20.374,18.891,22.663"/>
			</g>
		</g>
		<rect x="24" y="21.24" fill="#0B0C0C" width="19" height="3"/>
		<rect x="24" y="32.24" fill="#0B0C0C" width="19" height="3"/>
		<rect x="24" y="43.24" fill="#0B0C0C" width="19" height="3"/>
	</g>
	<polygon fill="#0B0C0C" points="52,15.24 49,15.24 49,12.24 46,12.24 46,15.24 43,15.24 43,18.24 46,18.24 46,21.24 49,21.24 
		49,18.24 52,18.24 	"/>
</g>
</svg>
