<?xml version="1.0" encoding="utf-8"?>
<!-- Generator: Adobe Illustrator 16.0.0, SVG Export Plug-In . SVG Version: 6.00 Build 0)  -->
<!DOCTYPE svg PUBLIC "-//W3C//DTD SVG 1.1//EN" "http://www.w3.org/Graphics/SVG/1.1/DTD/svg11.dtd">
<svg version="1.1" id="Layer_1" xmlns="http://www.w3.org/2000/svg" xmlns:xlink="http://www.w3.org/1999/xlink" x="0px" y="0px"
	 width="62px" height="62px" viewBox="0 0 62 62" enable-background="new 0 0 62 62" xml:space="preserve">
<path fill="#0B0C0C" d="M45.901,22H37v-3.043C37,17.308,35.552,16,33.901,16h-6C26.251,16,25,17.308,25,18.957V22h-9.099
	C14.251,22,13,23.308,13,24.957v18C13,44.607,14.251,46,15.901,46h30C47.552,46,49,44.607,49,42.957v-18
	C49,23.308,47.552,22,45.901,22z M27,20h8v2h-8V20z M37.998,38.664l-2.333,2.332l-4.666-4.665L26.333,41l-2.332-2.333L28.666,34
	l-4.665-4.667L26.333,27l4.666,4.666L35.665,27l2.333,2.333l-4.666,4.666L37.998,38.664z"/>
</svg>
