<?xml version="1.0" encoding="utf-8"?>
<!-- Generator: Adobe Illustrator 16.0.0, SVG Export Plug-In . SVG Version: 6.00 Build 0)  -->
<!DOCTYPE svg PUBLIC "-//W3C//DTD SVG 1.1//EN" "http://www.w3.org/Graphics/SVG/1.1/DTD/svg11.dtd">
<svg version="1.1" id="Layer_1" xmlns="http://www.w3.org/2000/svg" xmlns:xlink="http://www.w3.org/1999/xlink" x="0px" y="0px"
	 width="62px" height="62px" viewBox="0 0 62 62" enable-background="new 0 0 62 62" xml:space="preserve">
<path fill="#0B0C0C" d="M40.5,15.5c-4.963,0-9,4.038-9,9h-18v22h22v-22h-1.996c0-3.857,3.139-6.996,6.996-6.996
	s6.996,3.139,6.996,6.996H49.5C49.5,19.538,45.463,15.5,40.5,15.5z M26.5,40.804h-4l0.799-6.394
	c-0.482-0.365-0.799-0.939-0.799-1.591c0-1.104,0.896-2,2-2s2,0.896,2,2c0,0.651-0.316,1.226-0.799,1.591L26.5,40.804z"/>
</svg>
