<?xml version="1.0" encoding="utf-8"?>
<!-- Generator: Adobe Illustrator 16.0.0, SVG Export Plug-In . SVG Version: 6.00 Build 0)  -->
<!DOCTYPE svg PUBLIC "-//W3C//DTD SVG 1.1//EN" "http://www.w3.org/Graphics/SVG/1.1/DTD/svg11.dtd">
<svg version="1.1" id="Layer_1" xmlns="http://www.w3.org/2000/svg" xmlns:xlink="http://www.w3.org/1999/xlink" x="0px" y="0px"
	 width="62px" height="62px" viewBox="0 0 62 62" enable-background="new 0 0 62 62" xml:space="preserve">
<g>
	<path fill="#0B0C0C" d="M13,21.957v18C13,41.607,14.252,43,15.901,43h30C47.552,43,49,41.607,49,39.957v-18
		C49,20.308,47.552,19,45.901,19H37v-3.043C37,14.308,35.552,13,33.901,13h-6C26.252,13,25,14.308,25,15.957V19h-9.099
		C14.252,19,13,20.308,13,21.957z M27,17h8v2h-8V17z M24.002,26.333L26.334,24l4.665,4.666L35.665,24l2.333,2.333l-4.666,4.666
		l4.666,4.666l-2.333,2.332l-4.666-4.665L26.334,38l-2.332-2.333L28.666,31L24.002,26.333z"/>
	<path fill="#0B0C0C" d="M7.5,31c0-7.802,3.825-14.723,9.694-19h-4.642C7.592,16.819,4.5,23.553,4.5,31
		c0,7.447,3.092,14.182,8.053,19h4.642C11.325,45.723,7.5,38.802,7.5,31z"/>
	<path fill="#0B0C0C" d="M49.446,12h-4.64c5.869,4.277,9.693,11.198,9.693,19s-3.824,14.723-9.693,19h4.64
		c4.962-4.818,8.054-11.553,8.054-19C57.5,23.553,54.408,16.819,49.446,12z"/>
</g>
</svg>
