<?xml version="1.0" encoding="utf-8"?>
<!-- Generator: Adobe Illustrator 16.0.0, SVG Export Plug-In . SVG Version: 6.00 Build 0)  -->
<!DOCTYPE svg PUBLIC "-//W3C//DTD SVG 1.1//EN" "http://www.w3.org/Graphics/SVG/1.1/DTD/svg11.dtd">
<svg version="1.1" id="Layer_1" xmlns="http://www.w3.org/2000/svg" xmlns:xlink="http://www.w3.org/1999/xlink" x="0px" y="0px"
	 width="55px" height="55px" viewBox="0 0 55 55" enable-background="new 0 0 55 55" xml:space="preserve">
<g>
	<path fill="#0B0C0C" d="M35.574,25.305h-1.58c-0.725,0-1.496-0.563-1.71-1.254l-0.909-2.199c-0.342-0.635-0.202-1.576,0.309-2.086
		l1.124-1.115c0.513-0.512,0.513-1.348,0-1.859l-1.869-1.857c-0.511-0.51-1.35-0.51-1.863,0l-1.128,1.119
		c-0.508,0.51-1.454,0.65-2.096,0.307l-2.203-0.904c-0.693-0.213-1.26-0.98-1.26-1.701v-1.576c0-0.721-0.595-1.314-1.32-1.314
		h-2.641c-0.727,0-1.318,0.594-1.318,1.314v1.576c0,0.721-0.567,1.488-1.26,1.701l-2.206,0.904
		c-0.646,0.344-1.585,0.205-2.099-0.307l-1.124-1.119c-0.513-0.51-1.353-0.51-1.864,0l-1.865,1.857
		c-0.517,0.509-0.517,1.347,0,1.857l1.117,1.117c0.515,0.51,0.658,1.451,0.311,2.086l-0.906,2.201
		c-0.219,0.689-0.982,1.254-1.711,1.254l-1.584-0.002c-0.726,0-1.318,0.592-1.318,1.313v2.627c0,0.719,0.593,1.313,1.318,1.313
		h1.584c0.729,0,1.492,0.566,1.707,1.256l0.91,2.199c0.346,0.637,0.206,1.578-0.311,2.086l-1.121,1.117
		c-0.513,0.51-0.513,1.346,0,1.859l1.869,1.855c0.512,0.512,1.349,0.512,1.864,0l1.124-1.115c0.513-0.51,1.453-0.648,2.09-0.305
		l2.215,0.904c0.689,0.213,1.26,0.98,1.26,1.703v1.57c0,0.723,0.592,1.313,1.318,1.313h2.641c0.726,0,1.32-0.59,1.32-1.313v-1.57
		c0-0.723,0.566-1.49,1.26-1.703l2.212-0.904c0.636-0.344,1.581-0.205,2.097,0.305l1.118,1.115c0.513,0.512,1.352,0.512,1.863,0
		l1.869-1.855c0.513-0.514,0.513-1.35,0-1.859l-1.124-1.117c-0.509-0.508-0.65-1.449-0.309-2.086l0.909-2.199
		c0.214-0.688,0.991-1.256,1.71-1.256h1.58c0.725,0,1.321-0.59,1.321-1.311v-2.629C36.896,25.896,36.299,25.305,35.574,25.305z
		 M19.752,34.494c-3.643,0-6.597-2.936-6.597-6.564c0-3.625,2.954-6.564,6.597-6.564s6.598,2.939,6.598,6.564
		C26.35,31.559,23.395,34.494,19.752,34.494z"/>
	<path fill="#0B0C0C" d="M51.54,19.158l-0.769-0.262c-0.35-0.119-0.632-0.521-0.622-0.895l-0.087-1.224
		c-0.06-0.365,0.164-0.803,0.493-0.966l0.721-0.357c0.333-0.164,0.468-0.574,0.303-0.906l-0.603-1.217
		c-0.164-0.332-0.572-0.473-0.904-0.308l-0.721,0.357c-0.332,0.164-0.813,0.077-1.067-0.193l-0.921-0.81
		c-0.303-0.219-0.451-0.686-0.335-1.037l0.257-0.771c0.115-0.352-0.076-0.738-0.426-0.859L45.58,9.275
		c-0.351-0.121-0.734,0.069-0.852,0.422l-0.256,0.771c-0.116,0.351-0.517,0.629-0.887,0.617l-1.213,0.08
		c-0.365,0.058-0.799-0.169-0.965-0.504l-0.361-0.729c-0.165-0.333-0.572-0.473-0.906-0.308l-1.203,0.596
		c-0.33,0.164-0.464,0.572-0.299,0.904L39,11.855c0.166,0.334,0.081,0.818-0.188,1.074l-0.797,0.916
		c-0.219,0.304-0.676,0.452-1.028,0.332l-0.769-0.264c-0.352-0.121-0.735,0.069-0.852,0.422l-0.426,1.281
		c-0.12,0.351,0.072,0.739,0.425,0.857l0.766,0.266c0.352,0.12,0.633,0.522,0.62,0.895l0.091,1.223
		c0.06,0.367-0.161,0.801-0.493,0.965l-0.725,0.359c-0.329,0.164-0.465,0.572-0.3,0.904l0.603,1.215
		c0.165,0.334,0.572,0.475,0.902,0.313l0.725-0.359c0.332-0.164,0.811-0.076,1.066,0.193l0.917,0.811
		c0.304,0.219,0.457,0.686,0.337,1.037l-0.254,0.77c-0.119,0.352,0.073,0.738,0.426,0.861l1.277,0.434
		c0.352,0.123,0.733-0.066,0.852-0.422l0.258-0.768c0.118-0.352,0.513-0.629,0.884-0.615l1.215-0.08
		c0.366-0.059,0.803,0.166,0.968,0.502l0.36,0.725c0.165,0.336,0.57,0.475,0.901,0.311l1.203-0.596
		c0.333-0.166,0.469-0.572,0.304-0.908l-0.36-0.725c-0.165-0.336-0.083-0.818,0.185-1.072l0.802-0.918
		c0.212-0.305,0.675-0.453,1.027-0.334l0.765,0.262c0.351,0.123,0.735-0.066,0.852-0.422l0.429-1.279
		C52.081,19.666,51.89,19.279,51.54,19.158z M44.96,20.854c-1.662,0.824-3.684,0.131-4.516-1.547
		c-0.83-1.676-0.156-3.704,1.506-4.528c1.661-0.822,3.684-0.132,4.515,1.545C47.296,18.002,46.621,20.031,44.96,20.854z"/>
</g>
</svg>
