<?xml version="1.0" encoding="utf-8"?>
<!-- Generator: Adobe Illustrator 16.0.0, SVG Export Plug-In . SVG Version: 6.00 Build 0)  -->
<!DOCTYPE svg PUBLIC "-//W3C//DTD SVG 1.1//EN" "http://www.w3.org/Graphics/SVG/1.1/DTD/svg11.dtd">
<svg version="1.1" id="Layer_1" xmlns="http://www.w3.org/2000/svg" xmlns:xlink="http://www.w3.org/1999/xlink" x="0px" y="0px"
	 width="55px" height="55px" viewBox="-10.5 -16.886 55 55" enable-background="new -10.5 -16.886 55 55" xml:space="preserve">
<g>
	<g>
		<g>
			<path d="M16.934,12.933L31.855,0.021c-0.102-0.014-0.19,0.205-0.295,0.205H2.301C2.237,0.227,2.182-0.006,2.119,0L16.934,12.933z
				"/>
			<path d="M34,1.789c0-0.248-0.236-0.479-0.316-0.7l-10.625,9.302l10.533,9.103C33.754,19.195,34,18.871,34,18.51V1.789z"/>
			<path d="M0.269,0.981C0.165,1.23,0,1.502,0,1.789V18.51c0,0.305,0.178,0.59,0.296,0.851l10.5-9.002L0.269,0.981z"/>
			<path d="M21.393,12.098l-4.464,3.785l-4.452-4.043L2.189,20.931c0.039,0.002,0.073,0.296,0.111,0.296h29.166L21.393,12.098z"/>
		</g>
	</g>
</g>
</svg>
