<?xml version="1.0" encoding="utf-8"?>
<!-- Generator: Adobe Illustrator 16.0.0, SVG Export Plug-In . SVG Version: 6.00 Build 0)  -->
<!DOCTYPE svg PUBLIC "-//W3C//DTD SVG 1.1//EN" "http://www.w3.org/Graphics/SVG/1.1/DTD/svg11.dtd">
<svg version="1.1" id="Layer_1" xmlns="http://www.w3.org/2000/svg" xmlns:xlink="http://www.w3.org/1999/xlink" x="0px" y="0px"
	 width="55px" height="55px" viewBox="-16.061 -2.564 55 55" enable-background="new -16.061 -2.564 55 55" xml:space="preserve">
<g>
	<g>
		<g>
			<polygon points="11.459,50.414 6.752,45.707 8.166,44.293 11.459,47.586 14.752,44.293 16.166,45.707 			"/>
		</g>
	</g>
	<g>
		<g>
			<path d="M11.42,23c1.654,0,3,1.346,3,3c0,1.654-1.346,3-3,3c-1.654,0-3-1.346-3-3C8.42,24.346,9.766,23,11.42,23 M11.42,21
				c-2.762,0-5,2.238-5,5c0,2.762,2.238,5,5,5s5-2.238,5-5C16.42,23.238,14.182,21,11.42,21L11.42,21z"/>
		</g>
		<g>
			<rect y="25" width="7.867" height="2"/>
		</g>
	</g>
	<g>
		<g>
			<path d="M11.459,35c1.654,0,3,1.346,3,3s-1.346,3-3,3c-1.654,0-3-1.346-3-3S9.805,35,11.459,35 M11.459,33c-2.762,0-5,2.238-5,5
				s2.238,5,5,5c2.762,0,5-2.238,5-5S14.221,33,11.459,33L11.459,33z"/>
		</g>
		<g>
			<rect x="15.012" y="37" width="7.867" height="2"/>
		</g>
	</g>
	<g>
		<g>
			<path d="M12.439,34.13v-4.271c0,0.082-0.652,0.142-1,0.142s-1-0.06-1-0.142v4.296c0-0.091,0.678-0.154,1.04-0.154
				C11.813,34,12.439,34.053,12.439,34.13z"/>
			<path d="M12.439,22.142v-3.418h-2v3.418c0-0.083,0.652-0.142,1-0.142S12.439,22.059,12.439,22.142z"/>
			<path d="M10.439,41.846v5.879h2V41.87c0,0.077-0.627,0.13-0.96,0.13C11.117,42,10.439,41.938,10.439,41.846z"/>
		</g>
		<g>
			<g>
				<path d="M11.459,1c4.412,0,8,3.589,8,8s-3.588,8-8,8c-4.41,0-8-3.589-8-8S7.049,1,11.459,1 M11.459-1c-5.521,0-10,4.478-10,10
					s4.479,10,10,10c5.523,0,10-4.478,10-10S16.982-1,11.459-1L11.459-1z"/>
			</g>
		</g>
	</g>
</g>
</svg>
