<?xml version="1.0" encoding="utf-8"?>
<!-- Generator: Adobe Illustrator 16.0.0, SVG Export Plug-In . SVG Version: 6.00 Build 0)  -->
<!DOCTYPE svg PUBLIC "-//W3C//DTD SVG 1.1//EN" "http://www.w3.org/Graphics/SVG/1.1/DTD/svg11.dtd">
<svg version="1.1" id="Layer_1" xmlns="http://www.w3.org/2000/svg" xmlns:xlink="http://www.w3.org/1999/xlink" x="0px" y="0px"
	 width="55px" height="55px" viewBox="-9.666 -12.5 55 55" enable-background="new -9.666 -12.5 55 55" xml:space="preserve">
<g>
	<path d="M20.668,30H5.708c0,0-0.285-5.797,0.667-7.008c1.066-1.346,1.901-2.184,5.443-3.381l4.38-1.615l0.034-2.752
		c0,0-1.33-0.827-1.738-3.423c-0.832,0.196-0.979-6.177-0.905-6.783C13.85,2.826,16.536,0,20.668,0s6.818,2.826,7.079,5.038
		c0.073,0.606-0.073,6.979-0.905,6.783c-0.408,2.596-1.738,3.423-1.738,3.423l0.035,2.752l4.379,1.615
		c3.543,1.197,4.379,2.035,5.443,3.381C35.913,24.203,35.628,30,35.628,30H20.668"/>
	<g>
		<polygon points="0,12.771 4.5,12.771 4.5,9.797 12.448,15.313 4.5,20.797 4.5,17.771 0,17.771 		"/>
	</g>
</g>
</svg>
