<?xml version="1.0" encoding="utf-8"?>
<!-- Generator: Adobe Illustrator 17.1.0, SVG Export Plug-In . SVG Version: 6.00 Build 0)  -->
<!DOCTYPE svg PUBLIC "-//W3C//DTD SVG 1.1//EN" "http://www.w3.org/Graphics/SVG/1.1/DTD/svg11.dtd">
<svg version="1.1" id="Layer_1" xmlns="http://www.w3.org/2000/svg" xmlns:xlink="http://www.w3.org/1999/xlink" x="0px" y="0px"
	 viewBox="0 0 19.1 19.6" enable-background="new 0 0 19.1 19.6" xml:space="preserve">
<g>
	<rect x="12.1" y="0" fill="#1D1D1B" width="1.2" height="2.8"/>
	<path fill="#1D1D1B" d="M18.3,1.7h-4.8v1.6h-1.7V1.7H7v1.6H5.3V1.7H0.8C0.4,1.7,0,2.1,0,2.5v1.6h19.1V2.5
		C19.1,2.1,18.7,1.7,18.3,1.7z"/>
	<path fill="#1D1D1B" d="M0,18.8c0,0.5,0.4,0.8,0.8,0.8h17.4c0.5,0,0.8-0.4,0.8-0.8V4.6H0V18.8z M14.1,6.3h3.3v3.3h-3.3V6.3z
		 M14.1,10.4h3.3v3.3h-3.3V10.4z M14.1,14.6h3.3V18h-3.3V14.6z M10,6.3h3.3v3.3H10V6.3z M10,10.4h3.3v3.3H10V10.4z M10,14.6h3.3V18
		H10V14.6z M5.8,6.3h3.3v3.3H5.8V6.3z M5.8,10.4h3.3v3.3H5.8V10.4z M5.8,14.6h3.3V18H5.8V14.6z M1.7,6.3H5v3.3H1.7V6.3z M1.7,10.4H5
		v3.3H1.7V10.4z M1.7,14.6H5V18H1.7V14.6z"/>
	<rect x="5.5" y="0" fill="#1D1D1B" width="1.2" height="2.8"/>
</g>
</svg>
