<?xml version="1.0" encoding="utf-8"?>
<!-- Generator: Adobe Illustrator 16.0.0, SVG Export Plug-In . SVG Version: 6.00 Build 0)  -->
<!DOCTYPE svg PUBLIC "-//W3C//DTD SVG 1.1//EN" "http://www.w3.org/Graphics/SVG/1.1/DTD/svg11.dtd">
<svg version="1.1" id="Layer_1" xmlns="http://www.w3.org/2000/svg" xmlns:xlink="http://www.w3.org/1999/xlink" x="0px" y="0px"
	 width="18px" height="18px" viewBox="0 0 18 18" enable-background="new 0 0 18 18" xml:space="preserve">
<path fill-rule="evenodd" clip-rule="evenodd" fill="#0B0C0C" d="M8.389,9.457c-0.001-0.406-0.006-3.863-0.01-3.945
	c-1.141,0-2.264,0-3.414,0c0.272,0.551,2.218,4.471,2.908,5.904c0.167,0.348,0.064,0.725-0.042,1.074
	c-0.34,1.114-1.112,1.842-2.168,2.252c-1.53,0.594-3.001,0.438-4.339-0.533C0.521,13.627,0.036,12.83,0,11.811
	c-0.005-0.154,0.021-0.326,0.088-0.462c1.091-2.21,2.192-4.414,3.287-6.622C3.53,4.418,3.755,4.281,4.107,4.283
	c1.375,0.012,4.214,0.012,4.287,0.005c0-0.231-0.011-1.472,0.002-1.696h1.219c0.006,0.206,0.002,1.462,0.002,1.697
	c0.353,0,3.177,0.01,4.258-0.006c0.387-0.006,0.622,0.149,0.787,0.486c0.837,1.711,2.942,6.003,3.177,6.428
	c0.239,0.433,0.175,0.865,0.045,1.298c-0.333,1.11-1.105,1.829-2.149,2.243c-1.436,0.568-2.841,0.457-4.147-0.383
	c-0.891-0.572-1.454-1.383-1.526-2.471c-0.014-0.195,0.034-0.416,0.121-0.592c0.907-1.854,1.828-3.702,2.745-5.552
	c0.035-0.069,0.065-0.142,0.106-0.229c-1.144,0-2.267,0-3.416,0c0,0.305,0.002,3.773,0,3.953 M6.348,11.069
	c-0.793-1.604-1.574-3.185-2.372-4.8c-0.805,1.62-1.59,3.2-2.386,4.8C3.188,11.069,4.748,11.069,6.348,11.069z M16.403,11.066
	c-0.795-1.607-1.573-3.184-2.371-4.798c-0.803,1.616-1.588,3.196-2.384,4.798C13.243,11.066,14.802,11.066,16.403,11.066z"/>
</svg>
