<?xml version="1.0" encoding="utf-8"?>
<!-- Generator: Adobe Illustrator 16.0.4, SVG Export Plug-In . SVG Version: 6.00 Build 0)  -->
<!DOCTYPE svg PUBLIC "-//W3C//DTD SVG 1.1//EN" "http://www.w3.org/Graphics/SVG/1.1/DTD/svg11.dtd">
<svg version="1.1" id="Layer_1" xmlns="http://www.w3.org/2000/svg" xmlns:xlink="http://www.w3.org/1999/xlink" x="0px" y="0px"
	 width="15.791px" height="15.792px" viewBox="0 0 15.791 15.792" enable-background="new 0 0 15.791 15.792" xml:space="preserve">
<path opacity="0.9" enable-background="new    " d="M9.536,0H1.454v14.898h12.414V4.728L9.536,0z M3.71,12.605V2.299h4.519
	l3.388,3.436v6.87H3.71z"/>
<polygon points="8.425,10.835 9.159,10.836 7.66,12.336 6.162,10.837 6.897,10.837 6.896,9.634 8.425,9.635 "/>
<polygon points="6.167,4.142 6.903,4.144 6.902,5.318 8.432,5.318 8.432,4.143 9.166,4.143 7.667,2.642 "/>
<polygon points="9.87,6.812 9.872,6.078 11.368,7.578 9.868,9.076 9.87,8.342 8.669,8.34 8.669,6.811 "/>
<polygon points="5.475,9.076 5.476,8.34 6.654,8.342 6.655,6.813 5.477,6.812 5.479,6.078 3.978,7.576 "/>
</svg>
