<?xml version="1.0" encoding="utf-8"?>
<!-- Generator: Adobe Illustrator 16.0.4, SVG Export Plug-In . SVG Version: 6.00 Build 0)  -->
<!DOCTYPE svg PUBLIC "-//W3C//DTD SVG 1.1//EN" "http://www.w3.org/Graphics/SVG/1.1/DTD/svg11.dtd">
<svg version="1.1" id="Layer_1" xmlns="http://www.w3.org/2000/svg" xmlns:xlink="http://www.w3.org/1999/xlink" x="0px" y="0px"
	 width="13.5px" height="13.501px" viewBox="0 0 13.5 13.501" style="enable-background:new 0 0 13.5 13.501;" xml:space="preserve"
	>
<style type="text/css">
<![CDATA[
	.st0{fill:url(#SVGID_1_);}
	.st1{fill:url(#SVGID_2_);}
	.st2{fill:#FFFFFF;}
	.st3{fill:none;stroke:#20376B;stroke-width:1.5;stroke-miterlimit:8;}
]]>
</style>
<g>
	<g>
		<g>
			<linearGradient id="SVGID_1_" gradientUnits="userSpaceOnUse" x1="6.7495" y1="1.582" x2="6.7495" y2="11.9233">
				<stop  offset="0" style="stop-color:#FFFFFF"/>
				<stop  offset="1" style="stop-color:#ABABAB"/>
			</linearGradient>
			<path class="st0" d="M6.75,11.923c-2.851,0-5.171-2.319-5.171-5.171c0-2.851,2.32-5.17,5.171-5.17c2.851,0,5.17,2.319,5.17,5.17
				C11.92,9.604,9.601,11.923,6.75,11.923z"/>
			<path class="st2" d="M6.75,2.082c2.575,0,4.67,2.095,4.67,4.67s-2.095,4.671-4.67,4.671c-2.576,0-4.671-2.096-4.671-4.671
				S4.174,2.082,6.75,2.082 M6.75,1.082c-3.132,0-5.671,2.538-5.671,5.67c0,3.131,2.539,5.671,5.671,5.671
				c3.131,0,5.67-2.54,5.67-5.671C12.42,3.62,9.881,1.082,6.75,1.082L6.75,1.082z"/>
		</g>
		<g>
			<g>
				<linearGradient id="SVGID_2_" gradientUnits="userSpaceOnUse" x1="6.7495" y1="0" x2="6.7495" y2="13.5015">
					<stop  offset="0" style="stop-color:#4471A8"/>
					<stop  offset="1" style="stop-color:#20376B"/>
				</linearGradient>
				<path class="st1" d="M6.748,13.501C3.026,13.501,0,10.474,0,6.75C0,3.028,3.026,0,6.748,0C10.471,0,13.5,3.028,13.5,6.75
					C13.5,10.474,10.471,13.501,6.748,13.501z M6.748,1.08c-3.125,0-5.669,2.544-5.669,5.67c0,3.127,2.544,5.673,5.669,5.673
					c3.127,0,5.672-2.546,5.672-5.673C12.42,3.624,9.875,1.08,6.748,1.08z"/>
			</g>
		</g>
	</g>
	<line class="st3" x1="4.902" y1="4.886" x2="8.596" y2="8.617"/>
	<line class="st3" x1="8.557" y1="4.886" x2="4.902" y2="8.579"/>
</g>
</svg>
