<?xml version="1.0" encoding="utf-8"?>
<!-- Generated by IcoMoon.io -->
<!DOCTYPE svg PUBLIC "-//W3C//DTD SVG 1.1//EN" "http://www.w3.org/Graphics/SVG/1.1/DTD/svg11.dtd">
<svg version="1.1" xmlns="http://www.w3.org/2000/svg" xmlns:xlink="http://www.w3.org/1999/xlink" width="12" height="12" viewBox="0 0 12 12">
<path fill="#a9a9a9" d="M0.349 9.966c-0.466 0.467-0.466 1.22 0 1.685 0.233 0.233 0.54 0.349 0.844 0.349s0.609-0.116 0.842-0.349l2.202-2.199c0.822 0.554 1.812 0.878 2.878 0.878 2.847 0 5.165-2.317 5.165-5.165s-2.318-5.165-5.165-5.165c-2.848 0-5.165 2.317-5.165 5.165 0 0.92 0.245 1.784 0.668 2.533l-2.269 2.268zM10.691 5.165c0 1.971-1.606 3.576-3.576 3.576-1.971 0-3.576-1.605-3.576-3.576s1.604-3.576 3.576-3.576c1.971 0 3.576 1.605 3.576 3.576z"></path>
</svg>
