<?xml version="1.0" encoding="utf-8"?>
<!-- Generator: Adobe Illustrator 16.0.0, SVG Export Plug-In . SVG Version: 6.00 Build 0)  -->
<!DOCTYPE svg PUBLIC "-//W3C//DTD SVG 1.1//EN" "http://www.w3.org/Graphics/SVG/1.1/DTD/svg11.dtd">
<svg version="1.1" id="Layer_1" xmlns="http://www.w3.org/2000/svg" xmlns:xlink="http://www.w3.org/1999/xlink" x="0px" y="0px"
	 width="18px" height="18px" viewBox="0 0 18 18" enable-background="new 0 0 18 18" xml:space="preserve">
<g>
	<path fill="#0B0C0C" d="M13.194,4.805c2.313,2.313,2.313,6.078,0.001,8.39c-2.314,2.314-6.078,2.313-8.392,0
		C2.491,10.883,2.49,7.119,4.805,4.804C7.117,2.492,10.882,2.492,13.194,4.805 M13.948,4.051C11.216,1.317,6.784,1.317,4.05,4.05
		c-2.732,2.732-2.734,7.167,0,9.899c2.733,2.734,7.167,2.732,9.899,0C16.683,11.216,16.683,6.784,13.948,4.051"/>
	<polygon fill="#0B0C0C" points="11.694,10.281 10.281,8.868 11.694,7.454 10.281,6.04 8.867,7.454 7.453,6.04 6.039,7.454 
		7.453,8.868 6.039,10.281 7.453,11.695 8.867,10.281 10.281,11.695 	"/>
</g>
</svg>
