<?xml version="1.0" encoding="utf-8"?>
<!-- Generator: Adobe Illustrator 16.0.0, SVG Export Plug-In . SVG Version: 6.00 Build 0)  -->
<!DOCTYPE svg PUBLIC "-//W3C//DTD SVG 1.1//EN" "http://www.w3.org/Graphics/SVG/1.1/DTD/svg11.dtd">
<svg version="1.1" id="Layer_1" xmlns="http://www.w3.org/2000/svg" xmlns:xlink="http://www.w3.org/1999/xlink" x="0px" y="0px"
	 width="13.129px" height="13.129px" viewBox="0 0 13.129 13.129" enable-background="new 0 0 13.129 13.129" xml:space="preserve">
<g>
	<path fill="#6F777B" d="M2.63,2.629c2.17-2.169,5.701-2.168,7.87,0C12.67,4.8,12.67,8.33,10.501,10.5
		c-2.17,2.17-5.7,2.17-7.871-0.001C0.462,8.33,0.461,4.799,2.63,2.629 M1.923,1.922c-2.563,2.563-2.563,6.721,0,9.284
		c2.563,2.563,6.722,2.564,9.285,0.001c2.563-2.563,2.562-6.722-0.001-9.285C8.643-0.642,4.485-0.641,1.923,1.922"/>
	<polyline fill="#6F777B" points="7.963,9.058 9.377,7.644 7.963,6.229 9.377,4.814 7.963,3.4 6.549,4.814 5.135,3.4 3.721,4.814 
		5.135,6.229 3.721,7.644 5.135,9.058 6.549,7.644 7.963,9.058 	"/>
</g>
</svg>
