<?xml version="1.0" encoding="utf-8"?>
<!-- Generator: Adobe Illustrator 16.0.4, SVG Export Plug-In . SVG Version: 6.00 Build 0)  -->
<!DOCTYPE svg PUBLIC "-//W3C//DTD SVG 1.1//EN" "http://www.w3.org/Graphics/SVG/1.1/DTD/svg11.dtd">
<svg version="1.1" id="Layer_1" xmlns="http://www.w3.org/2000/svg" xmlns:xlink="http://www.w3.org/1999/xlink" x="0px" y="0px"
	 width="20.843px" height="33.091px" viewBox="0 0 20.843 33.091" enable-background="new 0 0 20.843 33.091" xml:space="preserve">
<linearGradient id="SVGID_1_" gradientUnits="userSpaceOnUse" x1="1610.6982" y1="-1684.9463" x2="1617.3662" y2="-1684.9463" gradientTransform="matrix(-1 0 0 -1 1625.1309 -1680.9463)">
	<stop  offset="0" style="stop-color:#4471A8"/>
	<stop  offset="1" style="stop-color:#20376B"/>
</linearGradient>
<polygon fill="url(#SVGID_1_)" points="7.765,8 7.765,0 14.433,3.999 "/>
<g>
	<linearGradient id="SVGID_2_" gradientUnits="userSpaceOnUse" x1="6.791" y1="23.0991" x2="14.0508" y2="23.0991">
		<stop  offset="0" style="stop-color:#4471A8"/>
		<stop  offset="1" style="stop-color:#20376B"/>
	</linearGradient>
	<path fill="url(#SVGID_2_)" d="M11.042,24.581c0,0.34-0.157,0.315-0.495,0.315h-1.38c-0.339,0-0.28,0.024-0.28-0.315v-2.36
		c0-0.452,0.621-0.526,1.281-0.753c0.68-0.246,1.312-0.624,1.312-1.643c0-0.867-0.562-1.34-1.58-1.34
		c-1.171,0-2.179,0.623-2.366,0.623c-0.096,0-0.192-0.094-0.211-0.188L6.83,17.635c-0.039-0.076-0.039-0.131-0.039-0.207
		c0-0.491,2.245-1.114,3.509-1.114c2.284,0,3.751,1.472,3.751,3.529c0,2.435-1.93,3.075-3.009,3.454V24.581z M9.924,29.883
		c-0.906,0-1.605-0.736-1.605-1.584c0-0.906,0.699-1.604,1.605-1.604c0.887,0,1.584,0.716,1.584,1.604
		C11.508,29.147,10.79,29.883,9.924,29.883"/>
	<linearGradient id="SVGID_3_" gradientUnits="userSpaceOnUse" x1="9.765625e-04" y1="22.6714" x2="20.8438" y2="22.6714">
		<stop  offset="0" style="stop-color:#4471A8"/>
		<stop  offset="1" style="stop-color:#20376B"/>
	</linearGradient>
	<path fill="url(#SVGID_3_)" d="M10.422,12.251c-5.755,0-10.421,4.662-10.421,10.421c0,5.756,4.666,10.419,10.421,10.419
		c5.756,0,10.422-4.663,10.422-10.419C20.844,16.914,16.178,12.251,10.422,12.251 M10.422,31.569c-4.906,0-8.897-3.99-8.897-8.895
		c0-4.906,3.991-8.898,8.897-8.898s8.896,3.992,8.896,8.898C19.318,27.579,15.328,31.569,10.422,31.569"/>
</g>
<g>
</g>
<g>
</g>
<g>
</g>
<g>
</g>
<g>
</g>
<g>
</g>
</svg>
