<?xml version="1.0" encoding="utf-8"?>
<!-- Generator: Adobe Illustrator 16.0.0, SVG Export Plug-In . SVG Version: 6.00 Build 0)  -->
<!DOCTYPE svg PUBLIC "-//W3C//DTD SVG 1.1//EN" "http://www.w3.org/Graphics/SVG/1.1/DTD/svg11.dtd">
<svg version="1.1" id="Layer_1" xmlns="http://www.w3.org/2000/svg" xmlns:xlink="http://www.w3.org/1999/xlink" x="0px" y="0px"
	 width="18px" height="18px" viewBox="0 0 18 18" enable-background="new 0 0 18 18" xml:space="preserve">
<g>
	<path fill="#0B0C0C" d="M9,1C4.582,1,1,4.582,1,9s3.582,8,8,8c4.417,0,8-3.582,8-8S13.417,1,9,1z M9,3c3.309,0,6,2.691,6,6
		c0,3.311-2.691,6-6,6c-3.31,0-6.001-2.689-6.001-6C2.999,5.691,5.69,3,9,3"/>
	<path fill="#0B0C0C" d="M7.165,5.376c0.271,0,0.544,0.104,0.75,0.315l2.124,2.141c0.192,0.195,0.312,0.463,0.313,0.758
		c0,0.002,0,0.002,0,0.002v4.289c0,0.592-0.476,1.072-1.063,1.072s-1.063-0.48-1.063-1.072V9.037L6.414,7.205
		c-0.415-0.418-0.415-1.098,0-1.516C6.622,5.48,6.894,5.376,7.165,5.376z"/>
</g>
</svg>
