<?xml version="1.0" encoding="utf-8"?>
<!-- Generator: Adobe Illustrator 16.0.0, SVG Export Plug-In . SVG Version: 6.00 Build 0)  -->
<!DOCTYPE svg PUBLIC "-//W3C//DTD SVG 1.1//EN" "http://www.w3.org/Graphics/SVG/1.1/DTD/svg11.dtd">
<svg version="1.1" id="Layer_1" xmlns="http://www.w3.org/2000/svg" xmlns:xlink="http://www.w3.org/1999/xlink" x="0px" y="0px"
	 width="15.454px" height="15.102px" viewBox="0 0 15.454 15.102" enable-background="new 0 0 15.454 15.102" xml:space="preserve">
<g>
	<path d="M9.109,13.082H3.535c0,0-0.104-2.188,0.243-2.629c0.389-0.49,0.693-0.832,1.984-1.27l1.596-0.607l0.013-1.012
		c0,0-0.484-0.307-0.634-1.252c-0.303,0.07-0.356-2.254-0.33-2.475C6.502,3.031,7.481,2,8.988,2c1.505,0,2.484,1.029,2.58,1.836
		c0.025,0.221-0.027,2.543-0.33,2.473c-0.149,0.945-0.635,1.246-0.635,1.246l0.014,1.004l1.596,0.588
		c1.291,0.438,1.596,0.816,1.984,1.307c0.347,0.441,0.242,2.629,0.242,2.629H9.109"/>
	<g>
		<polygon points="1.454,6.522 2.912,6.522 2.912,5.571 5.809,7.58 2.912,9.58 2.912,8.344 1.454,8.344 		"/>
	</g>
</g>
</svg>
