<?xml version="1.0" encoding="utf-8"?>
<!-- Generator: Adobe Illustrator 16.0.0, SVG Export Plug-In . SVG Version: 6.00 Build 0)  -->
<!DOCTYPE svg PUBLIC "-//W3C//DTD SVG 1.1//EN" "http://www.w3.org/Graphics/SVG/1.1/DTD/svg11.dtd">
<svg version="1.1" id="Layer_1" xmlns="http://www.w3.org/2000/svg" xmlns:xlink="http://www.w3.org/1999/xlink" x="0px" y="0px"
	 width="18px" height="18px" viewBox="0 0 18 18" enable-background="new 0 0 18 18" xml:space="preserve">
<g>
	<path fill="#0B0C0C" d="M9,3.066c3.271,0,5.934,2.662,5.934,5.933c0,3.273-2.662,5.935-5.934,5.935s-5.934-2.661-5.934-5.935
		C3.066,5.729,5.729,3.066,9,3.066 M9,2C5.134,2,2,5.134,2,8.999C2,12.863,5.134,16,9,16c3.865,0,7-3.137,7-7.001
		C16,5.134,12.865,2,9,2"/>
	<polygon fill="#0B0C0C" points="12,8 10,8 10,6 8,6 8,8 6,8 6,10 8,10 8,12 10,12 10,10 12,10 	"/>
</g>
</svg>
