<?xml version="1.0" encoding="utf-8"?>
<!-- Generator: Adobe Illustrator 16.0.4, SVG Export Plug-In . SVG Version: 6.00 Build 0)  -->
<!DOCTYPE svg PUBLIC "-//W3C//DTD SVG 1.1//EN" "http://www.w3.org/Graphics/SVG/1.1/DTD/svg11.dtd">
<svg version="1.1" id="Layer_1" xmlns="http://www.w3.org/2000/svg" xmlns:xlink="http://www.w3.org/1999/xlink" x="0px" y="0px"
	 width="8.154px" height="20.865px" viewBox="0 0 8.154 20.865" enable-background="new 0 0 8.154 20.865" xml:space="preserve">
<g>
	<path fill="#0B0C0C" d="M3.707,0.065C4.92-0.319,6.268,1.081,5.713,2.265C5.363,3.456,3.6,3.767,2.855,2.786
		C2.039,1.919,2.533,0.302,3.707,0.065L3.707,0.065z"/>
	<path fill="#0B0C0C" d="M1.035,3.989C2.143,3.55,3.354,3.761,4.514,3.712c0.998,0.018,2.156-0.133,2.98,0.562
		c0.627,0.494,0.652,1.361,0.66,2.094c-0.01,1.605,0.01,3.213-0.006,4.818c0.016,0.361-0.133,0.916-0.58,0.9
		c-0.525,0.129-0.875-0.441-0.857-0.9c-0.01-1.559,0-3.119-0.002-4.678c-0.133,0.004-0.395,0.006-0.525,0.01
		c-0.021,4.469,0.012,8.939-0.018,13.406c0.113,1.074-1.764,1.316-1.854,0.211c-0.041-2.686-0.002-5.375-0.016-8.059
		c-0.109,0-0.328,0-0.438,0c0.002,2.344-0.008,4.684,0.004,7.027c0,0.508-0.043,1.029-0.234,1.506
		c-0.609,0.502-1.768,0.252-1.73-0.662c-0.037-4.469,0.01-8.939-0.023-13.412c-0.104,0-0.314,0-0.418,0
		c-0.027,1.482,0.002,2.965-0.01,4.447c0,0.486-0.24,1.246-0.865,1.104c-0.365,0.031-0.602-0.391-0.57-0.713
		C-0.006,9.495,0,7.614,0.01,5.735C-0.012,5.021,0.34,4.261,1.035,3.989L1.035,3.989z"/>
</g>
<g>
</g>
<g>
</g>
<g>
</g>
<g>
</g>
<g>
</g>
<g>
</g>
</svg>
