<?xml version="1.0" encoding="utf-8"?>
<!-- Generator: Adobe Illustrator 16.0.0, SVG Export Plug-In . SVG Version: 6.00 Build 0)  -->
<!DOCTYPE svg PUBLIC "-//W3C//DTD SVG 1.1//EN" "http://www.w3.org/Graphics/SVG/1.1/DTD/svg11.dtd">
<svg version="1.1" id="Layer_1" xmlns="http://www.w3.org/2000/svg" xmlns:xlink="http://www.w3.org/1999/xlink" x="0px" y="0px"
	 width="18px" height="18px" viewBox="0 0 18 18" enable-background="new 0 0 18 18" xml:space="preserve">
<path fill="#0B0C0C" d="M8.678,16.074c-0.395,0-0.753-0.2-0.958-0.536L1.167,4.904C1.01,4.65,0.961,4.349,1.031,4.055
	C1.1,3.762,1.28,3.514,1.537,3.356c0.222-0.136,0.488-0.188,0.747-0.147c1.351-1.489,2.698-1.674,5.37-0.742
	C8.2,2.656,8.795,2.752,9.424,2.752c1.546,0,2.795-0.583,2.808-0.589l0.383-0.182L17,8.92l-0.487,0.232
	c-0.058,0.028-1.445,0.682-3.215,0.682l0,0c-0.739,0-1.442-0.115-2.093-0.342C9.01,8.73,7.978,8.771,6.905,9.93l2.73,4.431
	c0.325,0.528,0.16,1.222-0.367,1.548C9.082,16.018,8.88,16.074,8.678,16.074z M2.11,4.154C1.987,4.205,1.969,4.252,1.963,4.277
	C1.958,4.302,1.952,4.351,1.983,4.4l6.555,10.637c0.087,0.145,0.173,0.086,0.234,0.05c0.069-0.042,0.094-0.147,0.047-0.224
	L5.724,9.84l0.217-0.264c0.881-1.072,1.768-1.529,2.963-1.529c0.725,0,1.555,0.172,2.615,0.54c0.549,0.191,1.147,0.288,1.778,0.288
	c0.95,0,1.786-0.22,2.292-0.391l-3.343-5.293c-0.544,0.203-1.591,0.52-2.823,0.52c-0.736,0-1.438-0.114-2.085-0.34
	c-2.35-0.818-3.36-0.729-4.528,0.695L2.555,4.377L2.205,4.18C2.175,4.163,2.141,4.154,2.11,4.154z"/>
</svg>
