<?xml version="1.0" encoding="utf-8"?>
<!-- Generator: Adobe Illustrator 16.0.0, SVG Export Plug-In . SVG Version: 6.00 Build 0)  -->
<!DOCTYPE svg PUBLIC "-//W3C//DTD SVG 1.1//EN" "http://www.w3.org/Graphics/SVG/1.1/DTD/svg11.dtd">
<svg version="1.1" id="Layer_1" xmlns="http://www.w3.org/2000/svg" xmlns:xlink="http://www.w3.org/1999/xlink" x="0px" y="0px"
	 width="18px" height="18px" viewBox="0 0 18 18" enable-background="new 0 0 18 18" xml:space="preserve">
<path fill="#0C0D0D" d="M11.643,9.059c0,1.512-1.226,2.736-2.737,2.736c-1.512,0-2.737-1.225-2.737-2.736s1.225-2.736,2.737-2.736
	C10.417,6.321,11.643,7.547,11.643,9.059z M15.473,7.963h-0.656c-0.302,0-0.621-0.234-0.709-0.523l-0.379-0.916
	c-0.142-0.266-0.084-0.656,0.129-0.869l0.467-0.465c0.213-0.215,0.213-0.563,0-0.775l-0.776-0.773c-0.212-0.215-0.561-0.215-0.773,0
	l-0.468,0.465c-0.211,0.213-0.604,0.271-0.869,0.129l-0.914-0.377C10.236,3.768,10,3.45,10,3.147V2.491
	c0-0.301-0.248-0.549-0.549-0.549H8.356c-0.301,0-0.548,0.248-0.548,0.549v0.656c0,0.303-0.234,0.621-0.521,0.711L6.369,4.235
	C6.103,4.377,5.712,4.319,5.5,4.106L5.033,3.641c-0.212-0.215-0.56-0.215-0.774,0L3.485,4.415c-0.214,0.212-0.214,0.561,0,0.773
	L3.95,5.655c0.213,0.213,0.272,0.604,0.128,0.869L3.702,7.442C3.611,7.729,3.294,7.965,2.992,7.965L2.334,7.963
	c-0.303,0-0.548,0.248-0.548,0.547v1.096c0,0.301,0.245,0.547,0.548,0.547h0.658c0.302,0.001,0.619,0.236,0.708,0.525l0.377,0.916
	c0.143,0.266,0.085,0.658-0.128,0.869L3.484,12.93c-0.213,0.213-0.213,0.561,0,0.775l0.775,0.773c0.213,0.213,0.561,0.213,0.774,0
	L5.5,14.014c0.212-0.213,0.604-0.271,0.868-0.127l0.919,0.377c0.286,0.088,0.521,0.408,0.521,0.709v0.656
	c0,0.301,0.248,0.547,0.548,0.547h1.096c0.301,0,0.549-0.246,0.549-0.547v-0.656c0-0.301,0.234-0.621,0.523-0.709l0.917-0.377
	c0.265-0.145,0.655-0.086,0.87,0.127l0.464,0.465c0.212,0.213,0.562,0.213,0.773,0l0.776-0.773c0.213-0.213,0.213-0.563,0-0.775
	l-0.467-0.467c-0.212-0.211-0.271-0.604-0.129-0.869l0.379-0.916c0.088-0.287,0.41-0.524,0.709-0.524h0.656
	c0.301,0,0.547-0.245,0.547-0.548V8.51C16.02,8.211,15.774,7.963,15.473,7.963z"/>
</svg>
