<?xml version="1.0" encoding="utf-8"?>
<!-- Generator: Adobe Illustrator 16.0.0, SVG Export Plug-In . SVG Version: 6.00 Build 0)  -->
<!DOCTYPE svg PUBLIC "-//W3C//DTD SVG 1.1//EN" "http://www.w3.org/Graphics/SVG/1.1/DTD/svg11.dtd">
<svg version="1.1" id="Layer_1" xmlns="http://www.w3.org/2000/svg" xmlns:xlink="http://www.w3.org/1999/xlink" x="0px" y="0px"
	 width="18px" height="18px" viewBox="0 0 18 18" enable-background="new 0 0 18 18" xml:space="preserve">
<path fill="#0B0C0C" d="M8.678,16.074c-0.395,0-0.753-0.2-0.958-0.536L1.167,4.904C1.01,4.65,0.961,4.349,1.031,4.055
	C1.1,3.762,1.28,3.514,1.537,3.356c0.222-0.136,0.488-0.188,0.747-0.147c1.351-1.489,2.698-1.674,5.37-0.742
	C8.2,2.656,8.795,2.752,9.424,2.752c1.546,0,2.795-0.583,2.808-0.589l0.383-0.182L17,8.92l-0.487,0.232
	c-0.058,0.028-1.445,0.682-3.215,0.682l0,0c-0.739,0-1.442-0.115-2.093-0.342C9.01,8.73,7.978,8.771,6.905,9.93l2.73,4.431
	c0.325,0.528,0.16,1.222-0.367,1.548C9.082,16.018,8.88,16.074,8.678,16.074z"/>
</svg>
