<?xml version="1.0" encoding="utf-8"?>
<!-- Generator: Adobe Illustrator 16.0.4, SVG Export Plug-In . SVG Version: 6.00 Build 0)  -->
<!DOCTYPE svg PUBLIC "-//W3C//DTD SVG 1.1//EN" "http://www.w3.org/Graphics/SVG/1.1/DTD/svg11.dtd">
<svg version="1.1" id="Layer_1" xmlns="http://www.w3.org/2000/svg" xmlns:xlink="http://www.w3.org/1999/xlink" x="0px" y="0px"
	 width="15.791px" height="15.792px" viewBox="0 0 15.791 15.792" enable-background="new 0 0 15.791 15.792" xml:space="preserve">
<polygon fill="#0B0C0C" points="8,4 6,4 6,6 4,6 4,8 6,8 6,10 8,10 8,8 10,8 10,6 8,6 "/>
<path fill="#0B0C0C" d="M15.646,13.525l-2.756-2.755C13.59,9.682,14,8.39,14,7c0-3.866-3.135-7-7-7C3.134,0,0,3.134,0,7s3.134,7,7,7
	c1.389,0,2.682-0.41,3.77-1.108l2.756,2.755c0.193,0.194,0.512,0.194,0.706,0l1.415-1.414C15.84,14.037,15.84,13.719,15.646,13.525z
	 M7,12c-2.758,0-5-2.243-5-5s2.242-5,5-5c2.756,0,5,2.243,5,5S9.756,12,7,12z"/>
<g>
</g>
<g>
</g>
<g>
</g>
<g>
</g>
<g>
</g>
<g>
</g>
</svg>
