<?xml version="1.0" encoding="utf-8"?>
<!-- Generator: Adobe Illustrator 16.0.0, SVG Export Plug-In . SVG Version: 6.00 Build 0)  -->
<!DOCTYPE svg PUBLIC "-//W3C//DTD SVG 1.1//EN" "http://www.w3.org/Graphics/SVG/1.1/DTD/svg11.dtd">
<svg version="1.1" id="Layer_1" xmlns="http://www.w3.org/2000/svg" xmlns:xlink="http://www.w3.org/1999/xlink" x="0px" y="0px"
	 width="18px" height="18px" viewBox="0 0 18 18" enable-background="new 0 0 18 18" xml:space="preserve">
<g>
	<path fill="#0B0C0C" d="M12.338,14.361h-1.766H10.57c-0.029,0-0.162-0.006-0.342-0.092c-0.288-0.197-0.592-0.5-0.865-0.965
		c-0.063-0.109-0.139-0.238-0.216-0.371c-0.244-0.418-0.302-0.521-0.313-0.541l-0.008-0.016c-0.006-0.01-0.59-1.045-1.223-2.127
		C7.229,9.609,6.5,8.925,5.579,8.925c-0.001,0-0.002,0-0.003,0h-1.77v1.001h1.768h0.001c0.118,0,0.703,0.041,1.165,0.83
		c0.302,0.516,0.592,1.02,0.813,1.406l-0.001,0.001c0.307,0.534,0.52,0.911,0.522,0.917l0.009,0.016
		c0.004,0.008,0.016,0.029,0.044,0.077c0.067,0.118,0.229,0.399,0.617,1.062c0.225,0.385,0.466,0.592,0.662,0.702
		c0.508,0.383,0.981,0.425,1.163,0.425c0,0,0,0,0.002,0h1.768v1.131l1.631-1.631l-1.631-1.631V14.361z"/>
	<path fill="#0B0C0C" d="M6.972,13.168c-0.073,0.126-0.147,0.254-0.224,0.384c-0.461,0.789-1.046,0.829-1.165,0.829c0,0,0,0-0.001,0
		H3.816v1.002h1.769c0.001,0,0.002,0,0.003,0c0.869,0,1.566-0.608,1.958-1.215c-0.156-0.268-0.299-0.514-0.343-0.596
		C7.2,13.568,7.114,13.416,6.972,13.168z"/>
	<path fill="#0B0C0C" d="M10.576,8.945c-0.266,0-1.159,0.091-1.868,1.215c0.223,0.385,0.423,0.734,0.573,0.998
		c0.064-0.111,0.139-0.237,0.224-0.382c0.471-0.806,1.008-0.83,1.075-0.83l0,0h1.768v1.13l1.631-1.631l-1.631-1.631v1.131H10.58
		C10.578,8.945,10.578,8.945,10.576,8.945z"/>
	<path fill="#0B0C0C" d="M18,7.002L9,0L0,6.989h1.011L1,18h16V7L18,7.002z M16,17H2V7h4h6h4V17z"/>
</g>
</svg>
