<?xml version="1.0" encoding="utf-8"?>
<!-- Generator: Adobe Illustrator 16.0.4, SVG Export Plug-In . SVG Version: 6.00 Build 0)  -->
<!DOCTYPE svg PUBLIC "-//W3C//DTD SVG 1.1//EN" "http://www.w3.org/Graphics/SVG/1.1/DTD/svg11.dtd">
<svg version="1.1" id="Layer_1" xmlns="http://www.w3.org/2000/svg" xmlns:xlink="http://www.w3.org/1999/xlink" x="0px" y="0px"
	 width="16.112px" height="16.111px" viewBox="0 0 16.112 16.111" enable-background="new 0 0 16.112 16.111" xml:space="preserve">
<g>
	<g>
		<path d="M3.498,11.473l-1.139,1.141c-0.157,0.156-0.237,0.363-0.237,0.568c0,0.207,0.08,0.412,0.237,0.57
			c0.313,0.314,0.823,0.314,1.139,0l1.139-1.139c0.314-0.316,0.314-0.826,0-1.141C4.323,11.158,3.812,11.158,3.498,11.473z
			 M3.223,8.055c0-0.445-0.361-0.807-0.806-0.807H0.806C0.36,7.248,0,7.609,0,8.055s0.36,0.805,0.806,0.805h1.611
			C2.861,8.859,3.223,8.5,3.223,8.055z M12.614,4.639L13.752,3.5c0.314-0.314,0.314-0.824,0-1.139c-0.312-0.314-0.822-0.314-1.139,0
			L11.475,3.5c-0.156,0.158-0.236,0.363-0.236,0.57s0.08,0.412,0.236,0.568C11.79,4.955,12.299,4.955,12.614,4.639z M3.501,4.637
			c0.313,0.314,0.823,0.314,1.139,0c0.314-0.314,0.314-0.824,0-1.139L3.501,2.359c-0.314-0.314-0.824-0.314-1.14,0
			C2.203,2.516,2.126,2.723,2.126,2.928c0,0.207,0.077,0.412,0.235,0.57L3.501,4.637z M8.058,3.223c0.445,0,0.806-0.361,0.806-0.805
			V0.807C8.863,0.361,8.503,0,8.058,0C7.613,0,7.252,0.361,7.252,0.807v1.611C7.252,2.861,7.613,3.223,8.058,3.223z M12.614,11.475
			c-0.314-0.314-0.824-0.314-1.141,0c-0.158,0.158-0.234,0.363-0.234,0.57c0,0.205,0.076,0.412,0.234,0.568l1.141,1.139
			c0.312,0.316,0.822,0.316,1.139,0c0.314-0.314,0.314-0.824,0-1.139L12.614,11.475z M15.305,7.252h-1.611
			c-0.445,0-0.805,0.359-0.805,0.805s0.359,0.807,0.805,0.807h1.611c0.447,0,0.807-0.361,0.807-0.807S15.752,7.252,15.305,7.252z
			 M8.057,4.834c-1.779,0-3.223,1.443-3.223,3.223s1.443,3.223,3.223,3.223c1.778,0,3.221-1.443,3.221-3.223
			S9.834,4.834,8.057,4.834z M8.057,9.668c-0.888,0-1.611-0.723-1.611-1.611s0.724-1.611,1.611-1.611c0.889,0,1.61,0.723,1.61,1.611
			S8.945,9.668,8.057,9.668z M8.056,12.891c-0.445,0-0.806,0.359-0.806,0.805v1.611c0,0.445,0.36,0.805,0.806,0.805
			c0.444,0,0.806-0.359,0.806-0.805v-1.611C8.861,13.25,8.5,12.891,8.056,12.891z"/>
	</g>
</g>
<g>
</g>
<g>
</g>
<g>
</g>
<g>
</g>
<g>
</g>
<g>
</g>
</svg>
