<?xml version="1.0" encoding="utf-8"?>
<!-- Generator: Adobe Illustrator 16.0.0, SVG Export Plug-In . SVG Version: 6.00 Build 0)  -->
<!DOCTYPE svg PUBLIC "-//W3C//DTD SVG 1.1//EN" "http://www.w3.org/Graphics/SVG/1.1/DTD/svg11.dtd">
<svg version="1.1" id="Layer_1" xmlns="http://www.w3.org/2000/svg" xmlns:xlink="http://www.w3.org/1999/xlink" x="0px" y="0px"
	 width="18px" height="18px" viewBox="0 0 18 18" enable-background="new 0 0 18 18" xml:space="preserve">
<path fill-rule="evenodd" clip-rule="evenodd" fill="#0B0C0C" d="M8.233,1C8.76,0.994,9.039,1.301,9.144,1.716
	c0,0.373,0,0.746,0,1.119c0,1.236,0,2.473,0,3.709c0,0.442,0,0.885,0,1.327c0,0.132-0.05,0.442,0.051,0.442
	c0.618,0,0.591-0.307,0.591-0.508c0-0.32,0-0.642,0-0.963c0-0.963,0-1.926,0-2.889c0-0.456-0.056-1.036,0.104-1.341
	c0.224-0.424,0.553-0.532,0.971-0.234c0.395,0.281,0.3,1.087,0.3,1.757c0,1.57,0,3.142,0,4.711c0,0.461-0.108,1.066,0.014,1.511
	c0.037,0.134,0.233,0.485,0.373,0.515c0.28,0.06,0.465-0.572,0.548-0.757c0.127-0.282,0.309-0.494,0.482-0.746
	c0.16-0.229,0.33-0.449,0.536-0.638c0.386-0.355,1.05-0.677,1.573-0.482c0.135,0.05,0.216,0.194,0.313,0.286
	c0.008,0.336-0.402,0.675-0.533,0.924c-0.68,1.283-1.018,2.759-1.436,4.141c-0.4,1.318-1.576,2.847-2.943,3.265
	c-0.787,0.24-1.756,0.091-2.572,0.073c-0.828-0.019-1.679-0.117-2.395-0.566c-0.818-0.513-1.342-1.325-1.521-2.268
	c-0.133-0.697-0.117-1.413-0.117-2.12c0-1.262,0-2.524,0-3.787c0-0.563,0-1.128,0-1.691c0-0.417-0.076-0.99,0.244-1.317
	C4.042,4.863,4.36,4.903,4.647,5.261c0.317,0.396,0.198,0.983,0.192,1.45c-0.009,0.655,0,1.312,0,1.967
	c0,0.33-0.047,0.702,0.013,1.016c0.009,0,0.017,0,0.026,0C4.945,9.738,5.435,9.704,5.487,9.68c0.131-0.061,0.021-1.335,0.02-1.482
	c-0.021-1.28-0.014-2.56-0.006-3.84c0-0.49,0-0.98,0-1.471c0.123-0.39,0.146-0.425,0.587-0.497C6.23,2.367,6.462,2.504,6.543,2.56
	C6.96,2.846,6.92,3.224,6.92,3.913c0,1.027,0,2.056,0,3.084c0,0.329,0,0.659,0,0.989c0,0.169-0.015,0.373,0.013,0.521
	C6.946,8.511,6.959,8.516,6.972,8.52c0.052,0.034,0.415,0.042,0.493,0.04c0.076-0.001,0.053-2.698,0.052-2.927
	C7.514,4.758,7.464,3.88,7.497,3.004c0.021-0.579-0.219-1.603,0.463-1.913C8.049,1.051,8.156,1.054,8.233,1z"/>
</svg>
