<?xml version="1.0" encoding="utf-8"?>
<!-- Generator: Adobe Illustrator 16.0.0, SVG Export Plug-In . SVG Version: 6.00 Build 0)  -->
<!DOCTYPE svg PUBLIC "-//W3C//DTD SVG 1.1//EN" "http://www.w3.org/Graphics/SVG/1.1/DTD/svg11.dtd">
<svg version="1.1" id="Layer_1" xmlns="http://www.w3.org/2000/svg" xmlns:xlink="http://www.w3.org/1999/xlink" x="0px" y="0px"
	 width="18px" height="18px" viewBox="0 0 18 18" enable-background="new 0 0 18 18" xml:space="preserve">
<g>
	<g>
		<path fill-rule="evenodd" clip-rule="evenodd" fill="#0B0C0C" d="M16.467,12.764c-0.635-0.448-1.277-0.883-1.924-1.313
			c-0.512-0.342-0.492-0.322-0.233-0.873c0.865-1.845,1.726-4.197,2.558-6.057c0.373-0.834-0.07-1.5-0.967-1.51
			C14.815,2.999,13.73,3.022,12.646,3c-0.413-0.008-0.445,0.201-0.451,0.527c-0.008,0.354,0.086,0.518,0.473,0.507
			c0.803-0.022,2.759,0.031,2.945,0.05c-0.009,0.107,0.002,0.169-0.021,0.215c-0.778,1.717-1.554,3.938-2.349,5.647
			c-0.171,0.367-0.48,0.547-0.922,0.544c-2.141-0.018-4.283-0.037-6.423,0.008c-0.698,0.016-1.051-0.268-1.315-0.867
			C3.919,8.127,2.359,4.258,2.359,4.088c0.994,0,2.128-0.074,3.141-0.049c0.333,0.009,0.388-0.16,0.354-0.419
			C5.823,3.377,6.015,3.005,5.519,3.007C4.35,3.013,3.18,2.986,2.012,3.021C1.205,3.044,0.818,3.691,1.099,4.455
			c0.034,0.094,1.899,4.63,2.803,6.585c-0.045,0.038-0.114,0.106-0.192,0.16c-0.685,0.472-1.355,0.968-2.063,1.403
			c-0.571,0.351-0.724,0.832-0.613,1.446c0.118,0.655,0.244,1.31,0.374,1.962c0.143,0.725,0.453,0.985,1.19,0.986
			c4.241,0.002,8.48,0.002,12.721,0c0.727,0,1.074-0.304,1.207-1.031c0.125-0.683,0.24-1.367,0.377-2.049
			C16.999,13.434,16.863,13.043,16.467,12.764z M2.625,13.405l2.5-2.015h7.658l2.5,2.015H2.625z"/>
	</g>
	<polygon fill="#0B0C0C" points="8.892,8.574 12.466,5 10,5 10,1 8,1 8,5 5.318,5 	"/>
</g>
</svg>
