<?xml version="1.0" encoding="utf-8"?>
<!-- Generator: Adobe Illustrator 16.0.0, SVG Export Plug-In . SVG Version: 6.00 Build 0)  -->
<!DOCTYPE svg PUBLIC "-//W3C//DTD SVG 1.1//EN" "http://www.w3.org/Graphics/SVG/1.1/DTD/svg11.dtd">
<svg version="1.1" id="Layer_1" xmlns="http://www.w3.org/2000/svg" xmlns:xlink="http://www.w3.org/1999/xlink" x="0px" y="0px"
	 width="5.51px" height="5.522px" viewBox="18 18.805 5.51 5.522" enable-background="new 18 18.805 5.51 5.522"
	 xml:space="preserve">
<polygon points="18.849,22.396 18.331,21.877 20.452,21.878 20.451,23.998 19.931,23.477 19.08,24.328 18,23.245 "/>
<polygon points="23.198,21.251 22.679,20.73 23.51,19.898 22.426,18.818 21.595,19.651 21.075,19.133 21.078,21.254 "/>
<polygon points="21.578,23.477 21.06,23.996 21.063,21.875 23.182,21.878 22.662,22.396 23.511,23.248 22.427,24.328 "/>
<polygon points="20.435,19.12 19.914,19.638 19.082,18.805 18,19.885 18.832,20.719 18.312,21.237 20.433,21.239 "/>
</svg>
