<?xml version="1.0" encoding="utf-8"?>
<!-- Generator: Adobe Illustrator 16.0.4, SVG Export Plug-In . SVG Version: 6.00 Build 0)  -->
<!DOCTYPE svg PUBLIC "-//W3C//DTD SVG 1.1//EN" "http://www.w3.org/Graphics/SVG/1.1/DTD/svg11.dtd">
<svg version="1.1" id="Layer_1" xmlns="http://www.w3.org/2000/svg" xmlns:xlink="http://www.w3.org/1999/xlink" x="0px" y="0px"
	 width="15.793px" height="15.792px" viewBox="0 0 15.793 15.792" enable-background="new 0 0 15.793 15.792" xml:space="preserve">
<rect x="4" y="6" fill="#0B0C0C" width="6" height="2"/>
<path fill="#0B0C0C" d="M15.647,13.525l-2.756-2.755C13.591,9.682,14,8.39,14,7c0-3.866-3.134-7-7-7S0,3.134,0,7s3.134,7,7,7
	c1.39,0,2.682-0.41,3.771-1.108l2.756,2.755c0.193,0.194,0.512,0.194,0.705,0l1.416-1.414
	C15.842,14.037,15.842,13.719,15.647,13.525z M7,12c-2.757,0-5-2.243-5-5s2.243-5,5-5c2.758,0,5,2.243,5,5S9.758,12,7,12z"/>
<g>
</g>
<g>
</g>
<g>
</g>
<g>
</g>
<g>
</g>
<g>
</g>
</svg>
