<?xml version="1.0" encoding="utf-8"?>
<!-- Generator: Adobe Illustrator 16.0.4, SVG Export Plug-In . SVG Version: 6.00 Build 0)  -->
<!DOCTYPE svg PUBLIC "-//W3C//DTD SVG 1.1//EN" "http://www.w3.org/Graphics/SVG/1.1/DTD/svg11.dtd">
<svg version="1.1" id="Layer_1" xmlns="http://www.w3.org/2000/svg" xmlns:xlink="http://www.w3.org/1999/xlink" x="0px" y="0px"
	 width="20.843px" height="33.091px" viewBox="0 0 20.843 33.091" enable-background="new 0 0 20.843 33.091" xml:space="preserve">
<g>
	<g>
		<linearGradient id="SVGID_1_" gradientUnits="userSpaceOnUse" x1="6.791" y1="23.0986" x2="14.0508" y2="23.0986">
			<stop  offset="0" style="stop-color:#4471A8"/>
			<stop  offset="1" style="stop-color:#20376B"/>
		</linearGradient>
		<path fill="url(#SVGID_1_)" d="M11.042,24.58c0,0.34-0.157,0.316-0.495,0.316h-1.38c-0.339,0-0.28,0.023-0.28-0.316v-2.359
			c0-0.453,0.621-0.527,1.281-0.754c0.68-0.246,1.312-0.623,1.312-1.643c0-0.867-0.562-1.34-1.58-1.34
			c-1.171,0-2.179,0.623-2.366,0.623c-0.096,0-0.192-0.094-0.211-0.188L6.83,17.635c-0.039-0.076-0.039-0.131-0.039-0.207
			c0-0.491,2.245-1.114,3.509-1.114c2.284,0,3.751,1.471,3.751,3.53c0,2.434-1.93,3.074-3.009,3.453V24.58z M9.924,29.883
			c-0.906,0-1.605-0.736-1.605-1.584c0-0.906,0.699-1.604,1.605-1.604c0.887,0,1.584,0.715,1.584,1.604
			C11.508,29.146,10.79,29.883,9.924,29.883"/>
		<linearGradient id="SVGID_2_" gradientUnits="userSpaceOnUse" x1="9.765625e-04" y1="22.6719" x2="20.8438" y2="22.6719">
			<stop  offset="0" style="stop-color:#4471A8"/>
			<stop  offset="1" style="stop-color:#20376B"/>
		</linearGradient>
		<path fill="url(#SVGID_2_)" d="M10.422,12.251c-5.755,0-10.421,4.662-10.421,10.42c0,5.756,4.666,10.42,10.421,10.42
			c5.756,0,10.422-4.664,10.422-10.42C20.844,16.914,16.178,12.251,10.422,12.251 M10.422,31.568c-4.906,0-8.897-3.99-8.897-8.895
			c0-4.906,3.991-8.897,8.897-8.897s8.896,3.991,8.896,8.897C19.318,27.578,15.328,31.568,10.422,31.568"/>
	</g>
	<linearGradient id="SVGID_3_" gradientUnits="userSpaceOnUse" x1="5.9683" y1="4" x2="12.6367" y2="4">
		<stop  offset="0" style="stop-color:#4471A8"/>
		<stop  offset="1" style="stop-color:#20376B"/>
	</linearGradient>
	<polygon fill="url(#SVGID_3_)" points="12.637,0 12.637,8 5.968,4.001 	"/>
</g>
<g>
</g>
<g>
</g>
<g>
</g>
<g>
</g>
<g>
</g>
<g>
</g>
</svg>
