<?xml version="1.0" encoding="utf-8"?>
<!-- Generator: Adobe Illustrator 16.0.0, SVG Export Plug-In . SVG Version: 6.00 Build 0)  -->
<!DOCTYPE svg PUBLIC "-//W3C//DTD SVG 1.1//EN" "http://www.w3.org/Graphics/SVG/1.1/DTD/svg11.dtd">
<svg version="1.1" id="Layer_1" xmlns="http://www.w3.org/2000/svg" xmlns:xlink="http://www.w3.org/1999/xlink" x="0px" y="0px"
	 width="13.527px" height="18.415px" viewBox="0 0 13.527 18.415" enable-background="new 0 0 13.527 18.415" xml:space="preserve">
<g>
	<path fill="#231F20" d="M12.297,7.242V5.509C12.297,2.471,9.814,0,6.764,0C3.712,0,1.229,2.471,1.229,5.509v1.733H0v11.173h13.527
		V7.242H12.297z M7.621,15.933H5.583l0.52-2.849c-0.306-0.177-0.52-0.495-0.52-0.876c0-0.568,0.456-1.027,1.019-1.027
		c0.563,0,1.02,0.459,1.02,1.027c0,0.381-0.215,0.699-0.52,0.876L7.621,15.933z M9.838,7.242H3.689V5.509
		c0-1.64,1.407-3.026,3.074-3.026c1.665,0,3.074,1.387,3.074,3.026V7.242z"/>
</g>
</svg>
