<?xml version="1.0" encoding="utf-8"?>
<!-- Generator: Adobe Illustrator 16.0.0, SVG Export Plug-In . SVG Version: 6.00 Build 0)  -->
<!DOCTYPE svg PUBLIC "-//W3C//DTD SVG 1.1//EN" "http://www.w3.org/Graphics/SVG/1.1/DTD/svg11.dtd">
<svg version="1.1" id="Layer_1" xmlns="http://www.w3.org/2000/svg" xmlns:xlink="http://www.w3.org/1999/xlink" x="0px" y="0px"
	 width="18px" height="18px" viewBox="0 0 18 18" enable-background="new 0 0 18 18" xml:space="preserve">
<g>
	<polygon fill="#0B0C0C" points="2,16 2.335,13.631 2.674,11.258 4.709,13.293 6.742,15.326 4.372,15.666 	"/>
	<polygon fill="#0B0C0C" points="13.296,7.419 7.241,13.518 6.568,12.531 12.624,6.432 11.588,5.387 5.532,11.483 4.547,10.808 
		10.604,4.709 9.932,4.032 3.205,10.808 7.241,14.871 13.969,8.098 	"/>
	<path fill="#0B0C0C" d="M15.742,6.332c0.354-0.355,0.342-0.955-0.027-1.328l-2.678-2.717c-0.369-0.373-0.961-0.383-1.313-0.025
		c-0.029,0.027-0.042,0.066-0.066,0.097l-0.016-0.016l-1.287,1.304l4.02,4.074l1.287-1.305l-0.018-0.018
		C15.678,6.374,15.713,6.363,15.742,6.332z"/>
</g>
</svg>
