<svg style="position: absolute; width: 0; height: 0; overflow: hidden;" aria-hidden="true" version="1.1" xmlns="http://www.w3.org/2000/svg" xmlns:xlink="http://www.w3.org/1999/xlink">
    <defs>
        <symbol id="icon-zoomreset" viewBox="0 0 15.791 15.792" fill="currentColor">
            <path d="M5.584 4.172 4.17 5.586 5.584 7 4.17 8.415 5.584 9.828 6.999 8.415 8.413 9.828 9.827 8.415 8.413 7 9.827 5.585 8.413 4.171 6.999 5.586z" />
            <path d="M15.646 13.525 12.89 10.77A6.94 6.94 0 0 0 14 7a7 7 0 1 0-7 7 6.96 6.96 0 0 0 3.77-1.108l2.756 2.755a0.5 0.5 0 0 0 0.706 0l1.415-1.414a0.504 0.504 0 0 0-1e-3-0.708M7 12c-2.758 0-5-2.243-5-5s2.242-5 5-5c2.756 0 5 2.243 5 5s-2.244 5-5 5" />
        </symbol>
        <symbol id="icon-zoompagewidth" viewBox="0 0 15.791 15.792" fill="currentColor">
            <path opacity="0.9" d="M9.536 0H1.454v14.898h12.414V4.728zM3.71 12.605V2.299h4.519l3.388 3.436v6.87z" />
            <path d="M9.87 6.812l2e-3-0.734 1.496 1.5-1.5 1.498 2e-3-0.734-1.201-2e-3V6.811zM5.475 9.076 5.476 8.34l1.178 2e-3 1e-3-1.529-1.178-1e-3 2e-3-0.734-1.501 1.498z" />
        </symbol>
        <symbol id="icon-zoomout" viewBox="0 0 15.793 15.792" fill="currentColor">
            <path d="M4 6h6v2H4z" />
            <path d="M15.647 13.525 12.891 10.77A6.94 6.94 0 0 0 14 7a7 7 0 1 0-7 7c1.39 0 2.682-0.41 3.771-1.108l2.756 2.755a0.5 0.5 0 0 0 0.705 0l1.416-1.414a0.5 0.5 0 0 0-1e-3-0.708M7 12c-2.757 0-5-2.243-5-5s2.243-5 5-5 5 2.243 5 5-2.242 5-5 5" />
        </symbol>
        <symbol id="icon-zoomin" viewBox="0 0 15.791 15.792" fill="currentColor">
            <path d="M8 4H6v2H4v2h2v2h2V8h2V6H8z" />
            <path d="M15.646 13.525 12.89 10.77A6.94 6.94 0 0 0 14 7a7 7 0 1 0-7 7 6.96 6.96 0 0 0 3.77-1.108l2.756 2.755a0.5 0.5 0 0 0 0.706 0l1.415-1.414a0.504 0.504 0 0 0-1e-3-0.708M7 12c-2.758 0-5-2.243-5-5s2.242-5 5-5c2.756 0 5 2.243 5 5s-2.244 5-5 5" />
        </symbol>
        <symbol id="icon-zoomfullpage" viewBox="0 0 15.791 15.792" fill="currentColor">
            <path opacity="0.9" d="M9.536 0H1.454v14.898h12.414V4.728zM3.71 12.605V2.299h4.519l3.388 3.436v6.87z" />
            <path d="M8.425 10.835l0.734 1e-3-1.499 1.5-1.498-1.499h0.735l-1e-3-1.203 1.529 1e-3zM6.167 4.142l0.736 2e-3-1e-3 1.174h1.53V4.143h0.734L7.667 2.642zM9.87 6.812l2e-3-0.734 1.496 1.5-1.5 1.498 2e-3-0.734-1.201-2e-3V6.811zM5.475 9.076 5.476 8.34l1.178 2e-3 1e-3-1.529-1.178-1e-3 2e-3-0.734-1.501 1.498z" />
        </symbol>
        <symbol id="icon-view-more" viewBox="0 0 18 18">
            <g fill="currentColor">
                <path d="M9 3.066a5.94 5.94 0 0 1 5.934 5.933c0 3.273-2.662 5.935-5.934 5.935s-5.934-2.661-5.934-5.935A5.94 5.94 0 0 1 9 3.066M9 2a7 7 0 1 0 0 14 7 7 0 0 0 0-14" />
                <path d="M12 8h-2V6H8v2H6v2h2v2h2v-2h2z" />
            </g>
        </symbol>
        <symbol id="icon-unflagged" viewBox="0 0 18 18">
            <path fill="currentColor" d="M8.678 16.074c-0.395 0-0.753-0.2-0.958-0.536L1.167 4.904a1.11 1.11 0 0 1-0.136-0.849C1.1 3.762 1.28 3.514 1.537 3.356 1.759 3.22 2.025 3.168 2.284 3.209 3.635 1.72 4.982 1.535 7.654 2.467a5.4 5.4 0 0 0 1.77 0.285c1.546 0 2.795-0.583 2.808-0.589l0.383-0.182L17 8.92 16.513 9.152c-0.058 0.028-1.445 0.682-3.215 0.682a6.3 6.3 0 0 1-2.093-0.342C9.01 8.73 7.978 8.771 6.905 9.93l2.73 4.431c0.325 0.528 0.16 1.222-0.367 1.548a1.17 1.17 0 0 1-0.59 0.165M2.11 4.154C1.987 4.205 1.969 4.252 1.963 4.277A0.17 0.17 0 0 0 1.983 4.4l6.555 10.637c0.087 0.145 0.173 0.086 0.234 0.05 0.069-0.042 0.094-0.147 0.047-0.224L5.724 9.84 5.941 9.576c0.881-1.072 1.768-1.529 2.963-1.529 0.725 0 1.555 0.172 2.615 0.54a5.4 5.4 0 0 0 1.778 0.288c0.95 0 1.786-0.22 2.292-0.391l-3.343-5.293a8.3 8.3 0 0 1-2.823 0.52 6.3 6.3 0 0 1-2.085-0.34c-2.35-0.818-3.36-0.729-4.528 0.695L2.555 4.377 2.205 4.18A0.2 0.2 0 0 0 2.11 4.154" />
        </symbol>
        <symbol id="icon-theme-light" viewBox="0 0 16.112 16.111" fill="currentColor">
            <path d="M3.498 11.473 2.359 12.614a0.8 0.8 0 0 0 0 1.138 0.806 0.806 0 0 0 1.139 0l1.139-1.139a0.805 0.805 0 1 0-1.139-1.14M3.223 8.055a0.807 0.807 0 0 0-0.806-0.807H0.806a0.806 0.806 0 1 0 0 1.612h1.611a0.807 0.807 0 0 0 0.806-0.805M12.614 4.639 13.752 3.5a0.806 0.806 0 0 0-1.139-1.139L11.475 3.5a0.801 0.801 0 0 0 0 1.138 0.8 0.8 0 0 0 1.139 1e-3M3.501 4.637A0.806 0.806 0 0 0 4.64 3.498L3.501 2.359a0.81 0.81 0 0 0-1.14 0 0.8 0.8 0 0 0-0.235 0.569 0.8 0.8 0 0 0 0.235 0.57zM8.058 3.223a0.806 0.806 0 0 0 0.806-0.805V0.807a0.807 0.807 0 0 0-1.612 0v1.611c0 0.443 0.361 0.805 0.806 0.805M12.614 11.475a0.81 0.81 0 0 0-1.141 0 0.8 0.8 0 0 0-0.234 0.57c0 0.205 0.076 0.412 0.234 0.568l1.141 1.139a0.806 0.806 0 0 0 1.139-1.139zM15.305 7.252h-1.611a0.805 0.805 0 1 0 0 1.612h1.611a0.806 0.806 0 1 0 0-1.612M8.057 4.834a3.224 3.224 0 0 0 0 6.446 3.223 3.223 0 0 0 0-6.446M8.057 9.668c-0.888 0-1.611-0.723-1.611-1.611S7.17 6.446 8.057 6.446a1.612 1.612 0 0 1 0 3.222M8.056 12.891a0.805 0.805 0 0 0-0.806 0.805v1.611a0.805 0.805 0 0 0 1.612 0v-1.611a0.806 0.806 0 0 0-0.806-0.805" />
        </symbol>
        <symbol id="icon-theme-dark" viewBox="0 0 11.483 14.947" fill="currentColor">
            <path d="M7.436 6.377c1.203 2.87 0.719 6.053-1 8.57 0.104-0.038 0.208-0.069 0.311-0.112A7.716 7.716 0 1 0 0.781 0.602Q0.375 0.775 0 0.986c3.26 0.376 6.149 2.323 7.436 5.391" />
        </symbol>
        <symbol id="icon-search" viewBox="0 0 12 12">
            <path fill="#a9a9a9" d="M0.349 9.966A1.19 1.19 0 0 0 1.193 12c0.304 0 0.609-0.116 0.842-0.349l2.202-2.199a5.13 5.13 0 0 0 2.878 0.878c2.847 0 5.165-2.317 5.165-5.165S9.962 0 7.115 0A5.17 5.17 0 0 0 1.95 5.165c0 0.92 0.245 1.784 0.668 2.533zM10.691 5.165a3.58 3.58 0 0 1-3.576 3.576c-1.971 0-3.576-1.605-3.576-3.576s1.604-3.576 3.576-3.576a3.58 3.58 0 0 1 3.576 3.576" />
        </symbol>
        <symbol id="icon-revocation" viewBox="0 0 18 18" fill="currentColor">
            <path d="M6.003 3.356l-1-1-3.536 3.537 3.536 3.535 1-1-2.536-2.535z" />
            <path d="M2.614 5.135h8.885q2.348 0 3.69 1.418 1.344 1.418 1.344 3.897c0 2.479-0.451 2.933-1.353 3.837s-2.142 1.357-3.72 1.357H2.614v-1.598h8.96q1.719 0 2.639-0.938c0.92-0.938 0.921-1.547 0.921-2.762q0-1.737-0.925-2.677-0.926-0.939-2.654-0.939H2.614z" />
        </symbol>
        <symbol id="icon-reset" viewBox="6.039 6.04 5.654 5.655">
            <path fill="currentColor" d="M11.693 10.281 10.281 8.868l1.412-1.414-1.412-1.414-1.414 1.414L7.453 6.04 6.039 7.454 7.453 8.868 6.039 10.281l1.414 1.414 1.414-1.414 1.414 1.414z" />
        </symbol>
        <symbol id="icon-replacement-attorney" viewBox="0 0 18 18">
            <g fill="currentColor">
                <path d="M15.57 6.016h-0.025c-2e-3 0-0.064 0-0.136-0.033a1.8 1.8 0 0 1-0.521-0.58l-0.353-0.609c-0.042-0.074-0.403-0.715-0.794-1.382-0.266-0.454-0.784-0.938-1.45-0.938H11.14v0.953h1.15c0.062 0 0.371 0.022 0.631 0.467 0.186 0.318 0.365 0.629 0.508 0.879l0.02 0.037c0.195 0.338 0.33 0.578 0.336 0.584l0.038 0.074c0.045 0.076 0.151 0.261 0.404 0.692 0.138 0.235 0.301 0.407 0.471 0.502 0.368 0.277 0.716 0.308 0.848 0.308h0.025v0.949l1.424-1.426-1.425-1.427z" />
                <circle cx="7.272" cy="7.05" r="3.137" />
                <path d="M7.272 11.757C3.808 11.757 1 13.863 1 16.463h12.546c0-2.6-2.808-4.706-6.274-4.706M12.927 5.563c-0.26 0.445-0.57 0.467-0.631 0.467h-1.147v0.953h1.149c0.482 0 0.953-0.275 1.295-0.728l-0.52-0.942zM14.98 3.906c0.27-0.462 0.561-0.467 0.573-0.467h0.022v0.949L17 2.963 15.576 1.537v0.949H15.55c-0.171 0-0.728 0.059-1.205 0.672l0.521 0.945z" />
            </g>
        </symbol>
        <symbol id="icon-remove" viewBox="0 0 18 18">
            <g fill="currentColor">
                <path d="M13.194 4.805a5.94 5.94 0 0 1 1e-3 8.39 5.94 5.94 0 0 1-8.392 0 5.94 5.94 0 0 1 2e-3-8.391 5.94 5.94 0 0 1 8.389 1e-3M13.948 4.051a6.999 6.999 0 1 0-9.898 9.898 7 7 0 0 0 9.899 0 6.997 6.997 0 0 0-1e-3-9.898" />
                <path d="M11.694 10.281 10.281 8.868l1.413-1.414-1.413-1.414-1.414 1.414L7.453 6.04 6.039 7.454 7.453 8.868 6.039 10.281l1.414 1.414 1.414-1.414 1.414 1.414z" />
            </g>
        </symbol>
        <symbol id="icon-rejected" viewBox="0 0 18 18">
            <g fill="currentColor">
                <path d="M11.707 1H2v16h14V5zM4 15V3h7v3h3v9z" />
                <path d="M12.182 8.025 6.526 13.681 5.819 12.974l5.656-5.656z" />
                <path d="M11.475 13.682 5.819 8.026 6.526 7.319l5.656 5.656z" />
            </g>
        </symbol>
        <symbol id="icon-registration" viewBox="0 0 18 18">
            <g fill="currentColor">
                <path d="M11.707 1H2v16h14V5.074zM14 15H4V3h7v3h3z" />
                <path d="M5.987 9.585 5.281 10.346l2.164 2.517 0.383 0.445 0.399-0.43 4.062-4.392-0.715-0.758-3.833 3.15z" />
            </g>
        </symbol>
        <symbol id="icon-referred" viewBox="0 0 18 18">
            <path fill="currentColor" d="M16.363 9 9 1.637V7H1v4h8v5.363z" />
        </symbol>
        <symbol id="icon-processing" viewBox="0 0 18 18">
            <path fill="currentColor" d="M11.643 9.059a2.736 2.736 0 1 1-5.473 0 2.736 2.736 0 0 1 5.473 0M15.473 7.963h-0.656a0.79 0.79 0 0 1-0.709-0.523l-0.379-0.916a0.78 0.78 0 0 1 0.129-0.869l0.467-0.465a0.55 0.55 0 0 0 0-0.775l-0.776-0.773a0.544 0.544 0 0 0-0.773 0l-0.468 0.465a0.78 0.78 0 0 1-0.869 0.129l-0.914-0.377A0.795 0.795 0 0 1 10 3.147V2.491a0.55 0.55 0 0 0-0.549-0.549H8.356a0.55 0.55 0 0 0-0.548 0.549v0.656a0.79 0.79 0 0 1-0.521 0.711L6.369 4.235A0.78 0.78 0 0 1 5.5 4.106L5.033 3.641a0.545 0.545 0 0 0-0.774 0L3.485 4.415a0.546 0.546 0 0 0 0 0.773L3.95 5.655a0.78 0.78 0 0 1 0.128 0.869L3.702 7.442a0.79 0.79 0 0 1-0.71 0.523l-0.658-2e-3A0.55 0.55 0 0 0 1.786 8.51v1.096c0 0.301 0.245 0.547 0.548 0.547h0.658A0.79 0.79 0 0 1 3.7 10.678l0.377 0.916a0.78 0.78 0 0 1-0.128 0.869L3.484 12.93a0.55 0.55 0 0 0 0 0.775l0.775 0.773a0.55 0.55 0 0 0 0.774 0L5.5 14.014a0.78 0.78 0 0 1 0.868-0.127l0.919 0.377a0.79 0.79 0 0 1 0.521 0.709v0.656a0.55 0.55 0 0 0 0.548 0.547h1.096a0.55 0.55 0 0 0 0.549-0.547v-0.656c0-0.301 0.234-0.621 0.523-0.709l0.917-0.377a0.78 0.78 0 0 1 0.87 0.127l0.464 0.465a0.547 0.547 0 0 0 0.773 0l0.776-0.773a0.55 0.55 0 0 0 0-0.775l-0.467-0.467a0.79 0.79 0 0 1-0.129-0.869l0.379-0.916a0.79 0.79 0 0 1 0.709-0.524h0.656a0.55 0.55 0 0 0 0.547-0.548V8.51a0.55 0.55 0 0 0-0.546-0.547" />
        </symbol>
        <symbol id="icon-print" viewBox="0 0 21.702 20.114">
            <path fill="currentColor" d="M21.702 15.4V6.378h-4.413V0H9.316l-4.9 4.9v1.528H0V15.4c0 0.583 0.475 1.057 1.058 1.057h3.358v3.657h12.873v-3.657h3.355c0.585 0 1.058-0.474 1.058-1.057M5.66 16.457h10.385v2.413H5.66zM18.52 12.346H3.185v-4.19h1.231v2.409H5.66V6.544c0.055-1.959 4.326-0.92 4.326-0.92s-0.891-4.381 0.958-4.381h5.101v9.321h1.244v-2.46h1.23zM20.252 14.711a0.845 0.845 0 1 1-1.69 0 0.845 0.845 0 0 1 1.69 0M14.572 9.148H7.424v1.244h7.148zM7.424 7.953h7.148V6.71H7.424z" />
        </symbol>
        <symbol id="icon-opendoc" viewBox="0 0 27.915 14.898">
            <path fill="currentColor" d="M8.082 0H0v14.898h12.415V4.728zM2.257 12.606V2.292h4.515V5.73h3.385v6.877zM23.582 0H15.5v14.898h12.415V4.728zM17.757 12.606V2.292h4.515V5.73h3.385v6.877z" />
        </symbol>
        <symbol id="icon-office-copy" viewBox="0 0 18 18">
            <g fill="currentColor">
                <path d="M2 15V1.936L11 2V1H1v14" />
                <path d="M12.707 3H3v14h14V7zM5 15V5h7v3h3v7z" />
                <path d="M6 9h8v1H6zM6 11h8v1H6zM6 13h8v1H6z" />
            </g>
        </symbol>
        <symbol id="icon-objections" viewBox="0 0 18 18">
            <path fill="currentColor" d="M9.001 1.889C5.135 1.889 2 4.528 2 7.785c0 1.948 1.125 3.669 2.851 4.74l-1.417 3.363 4.73-2.253c0.273 0.028 0.551 0.048 0.837 0.048 3.864 0 6.999-2.643 6.999-5.898 0-3.257-3.135-5.896-6.999-5.896M10 11.979H8v-2h2zM10 8.729H8v-5h2z" />
        </symbol>
        <symbol id="icon-notes" viewBox="0 0 18 18">
            <path fill="currentColor" d="M2 16l0.335-2.369 0.339-2.373 2.035 2.035 2.033 2.033-2.37 0.34zM13.296 7.419 7.241 13.518 6.568 12.531l6.056-6.099-1.036-1.045-6.056 6.096-0.985-0.675 6.057-6.099-0.672-0.677-6.727 6.776 4.036 4.063 6.728-6.773zM15.742 6.332c0.354-0.355 0.342-0.955-0.027-1.328l-2.678-2.717c-0.369-0.373-0.961-0.383-1.313-0.025-0.029 0.027-0.042 0.066-0.066 0.097l-0.016-0.016-1.287 1.304 4.02 4.074 1.287-1.305-0.018-0.018c0.034-0.024 0.069-0.035 0.098-0.066" />
        </symbol>
        <symbol id="icon-new-attorney" viewBox="0 0 18 18" fill="currentColor">
            <circle cx="7.275" cy="6.637" r="3.138" />
            <path d="M1 16.049c0-2.598 2.809-4.705 6.273-4.705 3.467 0 6.276 2.107 6.276 4.705M11.997 3.059h5v1h-5z" />
            <path d="M13.997 1.059h1v5h-1z" />
        </symbol>
        <symbol id="icon-lpa" viewBox="0 0 18 18" fill="currentColor">
            <path d="M11.707 1.037H2v16h14V5.11zM14 15.037H4v-12h7v3h3z" />
            <path d="M6.107 12V7.717h0.908V12zM11.893 12h-1.154L8.875 8.76H8.849q0.056 0.858 0.056 1.225V12H8.093V7.717h1.146l1.861 3.208h0.02q-0.043-0.835-0.043-1.181V7.717h0.816z" />
        </symbol>
        <symbol id="icon-locked" viewBox="0 0 13.527 18.415">
            <path fill="currentColor" d="M12.297 7.242V5.509C12.297 2.471 9.814 0 6.764 0 3.712 0 1.229 2.471 1.229 5.509v1.733H0v11.173h13.527V7.242zM7.621 15.933H5.583l0.52-2.849a1.01 1.01 0 0 1-0.52-0.876c0-0.568 0.456-1.027 1.019-1.027s1.02 0.459 1.02 1.027c0 0.381-0.215 0.699-0.52 0.876zM9.838 7.242H3.689V5.509c0-1.64 1.407-3.026 3.074-3.026 1.665 0 3.074 1.387 3.074 3.026z" />
        </symbol>
        <symbol id="icon-letter" viewBox="0 0 18 18">
            <g fill="currentColor">
                <path d="M11.707 1H2v16h14V5zM4 15V3h7v3h3v9z" />
                <path d="M5 9h8v1H5zM5 11h8v1H5zM5 13h8v1H5z" />
            </g>
        </symbol>
        <symbol id="icon-investigation" viewBox="0 0 18 18">
            <path fill="currentColor" d="M16.545 14.167l-2.956-2.955c0.552-0.976 0.87-2.101 0.87-3.3 0-3.711-3.02-6.73-6.729-6.73S1 4.201 1 7.912c0 3.71 3.02 6.729 6.729 6.729a6.7 6.7 0 0 0 3.751-1.145l2.869 2.867a1.554 1.554 0 0 0 2.196-2.196M3.07 7.912a4.667 4.667 0 0 1 4.659-4.66c2.569 0 4.659 2.092 4.659 4.66s-2.09 4.658-4.659 4.658A4.665 4.665 0 0 1 3.07 7.912" />
        </symbol>
        <symbol id="icon-imperfect" viewBox="0 0 18 18" fill="currentColor">
            <path d="M11.707 1H2v16h14V5zM4 15V3h7v3h3v9z" />
            <path d="M8.161 11.43v-0.326q0-0.421 0.18-0.733c0.18-0.312 0.34-0.43 0.659-0.664q0.461-0.33 0.609-0.537a0.77 0.77 0 0 0 0.147-0.461q0-0.285-0.211-0.436C9.334 8.122 9.208 8.125 8.956 8.125q-0.659 0-1.503 0.43L6.974 7.593a4.2 4.2 0 0 1 2.079-0.55q0.906 0 1.439 0.436c0.533 0.436 0.533 0.677 0.533 1.16q0 0.483-0.219 0.835c-0.219 0.352-0.426 0.498-0.835 0.791Q9.55 10.577 9.437 10.74a0.74 0.74 0 0 0-0.112 0.427v0.264zM8.02 12.932q0-0.369 0.198-0.558c0.198-0.189 0.324-0.188 0.576-0.188q0.364 0 0.564 0.193c0.2 0.193 0.2 0.313 0.2 0.553q0 0.347-0.202 0.548-0.202 0.2-0.563 0.2-0.37 0-0.571-0.196C8.021 13.288 8.02 13.17 8.02 12.932" />
        </symbol>
        <symbol id="icon-help-open" viewBox="0 0 20.843 33.091">
            <linearGradient id="a" gradientUnits="userSpaceOnUse" x1="6.791" x2="14.051" y1="23.099" y2="23.099">
                <stop offset="0" stop-color="#4471a8" />
                <stop offset="1" stop-color="#20376b" />
            </linearGradient>
            <path fill="url(#a)" d="M11.042 24.58c0 0.34-0.157 0.316-0.495 0.316h-1.38c-0.339 0-0.28 0.023-0.28-0.316v-2.359c0-0.453 0.621-0.527 1.281-0.754 0.68-0.246 1.312-0.623 1.312-1.643 0-0.867-0.562-1.34-1.58-1.34-1.171 0-2.179 0.623-2.366 0.623-0.096 0-0.192-0.094-0.211-0.188L6.83 17.635c-0.039-0.076-0.039-0.131-0.039-0.207 0-0.491 2.245-1.114 3.509-1.114 2.284 0 3.751 1.471 3.751 3.53 0 2.434-1.93 3.074-3.009 3.453zM9.924 29.883a1.6 1.6 0 0 1-1.605-1.584 1.58 1.58 0 0 1 1.605-1.604c0.887 0 1.584 0.715 1.584 1.604 0 0.847-0.718 1.584-1.584 1.584" />
            <linearGradient id="b" gradientUnits="userSpaceOnUse" x1="1e-3" x2="20.844" y1="22.672" y2="22.672">
                <stop offset="0" stop-color="#4471a8" />
                <stop offset="1" stop-color="#20376b" />
            </linearGradient>
            <path fill="url(#b)" d="M10.422 12.251c-5.755 0-10.421 4.662-10.421 10.42 0 5.756 4.666 10.42 10.421 10.42 5.756 0 10.422-4.664 10.422-10.42s-4.666-10.42-10.422-10.42M10.422 31.568c-4.906 0-8.897-3.99-8.897-8.895 0-4.906 3.991-8.897 8.897-8.897s8.896 3.991 8.896 8.897c0 4.905-3.99 8.895-8.896 8.895" />
            <linearGradient id="c" gradientUnits="userSpaceOnUse" x1="5.968" x2="12.637" y1="4" y2="4">
                <stop offset="0" stop-color="#4471a8" />
                <stop offset="1" stop-color="#20376b" />
            </linearGradient>
            <path fill="url(#c)" d="M12.637 0v8L5.968 4.001z" />
        </symbol>
        <symbol id="icon-help-close" viewBox="0 0 20.843 33.091">
            <linearGradient id="a1" gradientTransform="rotate(180 812.565 -840.473)" gradientUnits="userSpaceOnUse" x1="1610.698" x2="1617.366" y1="-1684.946" y2="-1684.946">
                <stop offset="0" stop-color="#4471a8" />
                <stop offset="1" stop-color="#20376b" />
            </linearGradient>
            <path fill="url(#a1)" d="M7.765 8V0l6.668 3.999z" />
            <path fill="url(#a)" d="M11.042 24.581c0 0.34-0.157 0.315-0.495 0.315h-1.38c-0.339 0-0.28 0.024-0.28-0.315v-2.36c0-0.452 0.621-0.526 1.281-0.753 0.68-0.246 1.312-0.624 1.312-1.643 0-0.867-0.562-1.34-1.58-1.34-1.171 0-2.179 0.623-2.366 0.623-0.096 0-0.192-0.094-0.211-0.188L6.83 17.635c-0.039-0.076-0.039-0.131-0.039-0.207 0-0.491 2.245-1.114 3.509-1.114 2.284 0 3.751 1.472 3.751 3.529 0 2.435-1.93 3.075-3.009 3.454zM9.924 29.883a1.6 1.6 0 0 1-1.605-1.584 1.58 1.58 0 0 1 1.605-1.604c0.887 0 1.584 0.716 1.584 1.604 0 0.848-0.718 1.584-1.584 1.584" />
            <linearGradient id="c1" gradientUnits="userSpaceOnUse" x1="1e-3" x2="20.844" y1="22.671" y2="22.671">
                <stop offset="0" stop-color="#4471a8" />
                <stop offset="1" stop-color="#20376b" />
            </linearGradient>
            <path fill="url(#c1)" d="M10.422 12.251c-5.755 0-10.421 4.662-10.421 10.421 0 5.756 4.666 10.419 10.421 10.419 5.756 0 10.422-4.663 10.422-10.419 0-5.758-4.666-10.421-10.422-10.421M10.422 31.569c-4.906 0-8.897-3.99-8.897-8.895 0-4.906 3.991-8.898 8.897-8.898s8.896 3.992 8.896 8.898-3.99 8.895-8.896 8.895" />
        </symbol>
        <symbol id="icon-fullscreen" viewBox="18 18.805 5.51 5.523" fill="currentColor">
            <path d="M19.602 23.808l0.519 0.52H18v-2.12l0.52 0.519 0.85-0.85 1.081 1.082zM21.389 18.818l0.519 0.521-0.832 0.831 1.082 1.082 0.832-0.832 0.52 0.519v-2.121zM22.99 22.726l0.52-0.518-2e-3 2.12-2.121-2e-3 0.52-0.519-0.848-0.851 1.082-1.08zM18 20.925l0.521-0.519 0.831 0.833 1.082-1.08-0.831-0.833 0.52-0.519-2.121-2e-3z" />
        </symbol>
        <symbol id="icon-flagged" viewBox="0 0 18 18">
            <path fill="currentColor" d="M8.678 16.074c-0.395 0-0.753-0.2-0.958-0.536L1.167 4.904a1.11 1.11 0 0 1-0.136-0.849C1.1 3.762 1.28 3.514 1.537 3.356 1.759 3.22 2.025 3.168 2.284 3.209 3.635 1.72 4.982 1.535 7.654 2.467a5.4 5.4 0 0 0 1.77 0.285c1.546 0 2.795-0.583 2.808-0.589l0.383-0.182L17 8.92 16.513 9.152c-0.058 0.028-1.445 0.682-3.215 0.682a6.3 6.3 0 0 1-2.093-0.342C9.01 8.73 7.978 8.771 6.905 9.93l2.73 4.431c0.325 0.528 0.16 1.222-0.367 1.548a1.17 1.17 0 0 1-0.59 0.165" />
        </symbol>
        <symbol id="icon-expand" viewBox="0 0 18 18">
            <g fill="currentColor">
                <path d="M9 3.066a5.94 5.94 0 0 1 5.934 5.933c0 3.273-2.662 5.935-5.934 5.935s-5.934-2.661-5.934-5.935A5.94 5.94 0 0 1 9 3.066M9 2a7 7 0 1 0 0 14 7 7 0 0 0 0-14" />
                <path d="M12 8h-2V6H8v2H6v2h2v2h2v-2h2z" />
            </g>
        </symbol>
        <symbol id="icon-exit-fullscreen" viewBox="18 18.805 5.51 5.522" fill="currentColor">
            <path d="M18.849 22.396l-0.518-0.519 2.121 1e-3-1e-3 2.12-0.52-0.521-0.851 0.851L18 23.245zM23.198 21.251 22.679 20.73l0.831-0.832-1.084-1.08-0.831 0.833-0.52-0.518 3e-3 2.121zM21.578 23.477 21.06 23.996l3e-3-2.121 2.119 3e-3-0.52 0.518 0.849 0.852-1.084 1.08zM20.435 19.12l-0.521 0.518-0.832-0.833L18 19.885l0.832 0.834-0.52 0.518 2.121 2e-3z" />
        </symbol>
        <symbol id="icon-email" viewBox="0 0 18 18">
            <g fill="currentColor">
                <path d="M17 3H1l8 6.422zM12.207 8.269c0 0 5.793 5.222 5.793 5.031V3.715c0-0.131-5.793 4.554-5.793 4.554M0 3.715V13.3c0 0.161 5.715-5.048 5.715-5.048S0 3.563 0 3.715" />
                <path d="M9 10.984 6.623 9 1 14h16l-5.418-5z" />
            </g>
        </symbol>
        <symbol id="icon-download" viewBox="0 0 9.7 11.1">
            <path fill="#1f3766" d="M6.3 0v3.9h2L4.8 8.7 1.3 3.9h2V0zM0 9.5h9.7v1.6H0z" />
        </symbol>
        <symbol id="icon-document" viewBox="0 0 18 18" fill="currentColor">
            <path clip-rule="evenodd" d="M16.467 12.764a84 84 0 0 0-1.924-1.313c-0.512-0.342-0.492-0.322-0.233-0.873 0.865-1.845 1.726-4.197 2.558-6.057 0.373-0.834-0.07-1.5-0.967-1.51C14.815 2.999 13.73 3.022 12.646 3c-0.413-8e-3-0.445 0.201-0.451 0.527-8e-3 0.354 0.086 0.518 0.473 0.507 0.803-0.022 2.759 0.031 2.945 0.05-9e-3 0.107 2e-3 0.169-0.021 0.215-0.778 1.717-1.554 3.938-2.349 5.647q-0.258 0.55-0.922 0.544c-2.141-0.018-4.283-0.037-6.423 8e-3C5.2 10.514 4.847 10.23 4.583 9.631 3.919 8.127 2.359 4.258 2.359 4.088c0.994 0 2.128-0.074 3.141-0.049 0.333 9e-3 0.388-0.16 0.354-0.419-0.031-0.243 0.161-0.615-0.335-0.613C4.35 3.013 3.18 2.986 2.012 3.021 1.205 3.044 0.818 3.691 1.099 4.455c0.034 0.094 1.899 4.63 2.803 6.585-0.045 0.038-0.114 0.106-0.192 0.16-0.685 0.472-1.355 0.968-2.063 1.403-0.571 0.351-0.724 0.832-0.613 1.446q0.178 0.983 0.374 1.962c0.143 0.725 0.453 0.985 1.19 0.986q6.36 3e-3 12.721 0c0.727 0 1.074-0.304 1.207-1.031 0.125-0.683 0.24-1.367 0.377-2.049 0.096-0.483-0.04-0.874-0.436-1.153M2.625 13.405l2.5-2.015h7.658l2.5 2.015z" fill-rule="evenodd" />
            <path d="M8.892 8.574 12.466 5H10V1H8v4H5.318z" />
        </symbol>
        <symbol id="icon-disclaimer" viewBox="0 0 18 18">
            <path fill="currentColor" clip-rule="evenodd" d="M8.233 1c0.527-6e-3 0.806 0.301 0.911 0.716v6.155c0 0.132-0.05 0.442 0.051 0.442 0.618 0 0.591-0.307 0.591-0.508V3.953c0-0.456-0.056-1.036 0.104-1.341 0.224-0.424 0.553-0.532 0.971-0.234 0.395 0.281 0.3 1.087 0.3 1.757v4.711c0 0.461-0.108 1.066 0.014 1.511 0.037 0.134 0.233 0.485 0.373 0.515 0.28 0.06 0.465-0.572 0.548-0.757 0.127-0.282 0.309-0.494 0.482-0.746 0.16-0.229 0.33-0.449 0.536-0.638 0.386-0.355 1.05-0.677 1.573-0.482 0.135 0.05 0.216 0.194 0.313 0.286 8e-3 0.336-0.402 0.675-0.533 0.924-0.68 1.283-1.018 2.759-1.436 4.141-0.4 1.318-1.576 2.847-2.943 3.265-0.787 0.24-1.756 0.091-2.572 0.073-0.828-0.019-1.679-0.117-2.395-0.566-0.818-0.513-1.342-1.325-1.521-2.268-0.133-0.697-0.117-1.413-0.117-2.12V6.506c0-0.417-0.076-0.99 0.244-1.317 0.315-0.326 0.633-0.286 0.92 0.072 0.317 0.396 0.198 0.983 0.192 1.45-9e-3 0.655 0 1.312 0 1.967 0 0.33-0.047 0.702 0.013 1.016h0.026c0.067 0.044 0.557 0.01 0.609-0.014 0.131-0.061 0.021-1.335 0.02-1.482-0.021-1.28-0.014-2.56-6e-3-3.84V2.887c0.123-0.39 0.146-0.425 0.587-0.497 0.142-0.023 0.374 0.114 0.455 0.17C6.96 2.846 6.92 3.224 6.92 3.913v4.073c0 0.169-0.015 0.373 0.013 0.521L6.972 8.52c0.052 0.034 0.415 0.042 0.493 0.04 0.076-1e-3 0.053-2.698 0.052-2.927-3e-3-0.875-0.053-1.753-0.02-2.629 0.021-0.579-0.219-1.603 0.463-1.913C8.049 1.051 8.156 1.054 8.233 1" fill-rule="evenodd" />
        </symbol>
        <symbol id="icon-delete" viewBox="0 0 13.5 13.501">
            <linearGradient id="SVGID_1_" gradientUnits="userSpaceOnUse" x1="6.75" x2="6.75" y1="1.582" y2="11.923">
                <stop offset="0" stop-color="#fff" />
                <stop offset="1" stop-color="#ababab" />
            </linearGradient>
            <path fill="url(#SVGID_1_)" d="M6.75 11.923a5.177 5.177 0 0 1-5.171-5.171c0-2.851 2.32-5.17 5.171-5.17a5.176 5.176 0 0 1 5.17 5.17 5.176 5.176 0 0 1-5.17 5.171" />
            <path fill="#fff" d="M6.75 2.082c2.575 0 4.67 2.095 4.67 4.67s-2.095 4.671-4.67 4.671c-2.576 0-4.671-2.096-4.671-4.671s2.095-4.67 4.671-4.67M6.75 1.082a5.67 5.67 0 1 0-2e-3 11.34 5.67 5.67 0 0 0 2e-3-11.34" />
            <linearGradient id="SVGID_2_" gradientUnits="userSpaceOnUse" x1="6.75" x2="6.75" y1="0" y2="13.502">
                <stop offset="0" stop-color="#4471a8" />
                <stop offset="1" stop-color="#20376b" />
            </linearGradient>
            <path fill="url(#SVGID_2_)" d="M6.748 13.501A6.755 6.755 0 0 1 0 6.75 6.756 6.756 0 0 1 6.748 0C10.471 0 13.5 3.028 13.5 6.75a6.76 6.76 0 0 1-6.752 6.751M6.748 1.08a5.677 5.677 0 0 0-5.669 5.67 5.68 5.68 0 0 0 5.669 5.673 5.68 5.68 0 0 0 5.672-5.673 5.68 5.68 0 0 0-5.672-5.67" />
            <path stroke-width="1.5" stroke="#20376b" fill="none" class="st3" d="M4.902 4.886 8.596 8.617M8.557 4.886 4.902 8.579" stroke-miterlimit="8" />
        </symbol>
        <symbol id="icon-deadline" viewBox="0 0 18 18">
            <g fill="currentColor">
                <path d="M9 1a8 8 0 1 0 0 16 8 8 0 0 0 0-16M9 3c3.309 0 6 2.691 6 6 0 3.311-2.691 6-6 6a6.005 6.005 0 0 1-6.001-6C2.999 5.691 5.69 3 9 3" />
                <path d="M7.165 5.376c0.271 0 0.544 0.104 0.75 0.315l2.124 2.141c0.192 0.195 0.312 0.463 0.313 0.758v4.291c0 0.592-0.476 1.072-1.063 1.072s-1.063-0.48-1.063-1.072V9.037L6.414 7.205a1.08 1.08 0 0 1 0-1.516c0.208-0.209 0.48-0.313 0.751-0.313" />
            </g>
        </symbol>
        <symbol id="icon-confirm" viewBox="0 0 18 18">
            <path fill="currentColor" d="M9 2.5a6.5 6.5 0 1 0 0 13 6.5 6.5 0 0 0 0-13M8.695 11.81 8.233 12.308 7.79 11.792 5.281 8.875 6.099 7.993 8.132 9.491 12.576 5.84l0.828 0.88z" />
        </symbol>
        <symbol id="icon-complete" viewBox="0 0 15.454 15.102" fill="currentColor">
            <path d="M6.917 12.378 6.179 13.175l-0.71-0.822-4.015-4.67 1.31-1.412 3.254 2.398 7.112-5.846 1.324 1.41z" />
        </symbol>
        <symbol id="icon-comments" viewBox="0 0 18 18">
            <path fill="currentColor" d="M9.001 2C5.135 2 2 4.639 2 7.896c0 1.948 1.125 3.669 2.851 4.74L3.434 16l4.73-2.254c0.273 0.028 0.551 0.048 0.837 0.048 3.864 0 6.999-2.642 6.999-5.898S12.865 2 9.001 2" />
        </symbol>
        <symbol id="icon-closedoc" viewBox="0 0 12.415 14.898">
            <path fill="#231f20" d="M8.082 0H0v14.898h12.415V4.728zM2.257 12.606V2.292h4.515V5.73h3.385v6.877z" />
            <path fill="#0b0c0c" d="M4.974 6.438 3.65 7.762 4.956 9.067 3.63 10.392l1.306 1.304 1.324-1.324 1.306 1.306 1.323-1.324L7.585 9.05 8.91 7.724 7.605 6.419 6.279 7.742z" />
        </symbol>
        <symbol id="icon-close" viewBox="0 0 13.129 13.129">
            <g fill="#6f777b">
                <path d="M2.63 2.629a5.574 5.574 0 0 1 7.87 0 5.573 5.573 0 0 1 1e-3 7.871 5.57 5.57 0 0 1-7.871-1e-3 5.574 5.574 0 0 1 0-7.87M1.923 1.922a6.566 6.566 0 0 0 9.285 9.285 6.565 6.565 0 0 0-9.285-9.285" />
                <path d="M7.963 9.058 9.377 7.644 7.963 6.229 9.377 4.814 7.963 3.4 6.549 4.814 5.135 3.4 3.721 4.814 5.135 6.229 3.721 7.644 5.135 9.058 6.549 7.644z" />
            </g>
        </symbol>
        <symbol id="icon-caseperson" viewBox="0 0 8.154 20.865">
            <path fill="currentColor" d="M3.707 0.065c1.213-0.384 2.561 1.016 2.006 2.2C5.363 3.456 3.6 3.767 2.855 2.786 2.039 1.919 2.533 0.302 3.707 0.065M1.035 3.989C2.143 3.55 3.354 3.761 4.514 3.712 5.512 3.73 6.67 3.579 7.494 4.274c0.627 0.494 0.652 1.361 0.66 2.094-0.01 1.605 0.01 3.213-6e-3 4.818 0.016 0.361-0.133 0.916-0.58 0.9-0.525 0.129-0.875-0.441-0.857-0.9-0.01-1.559 0-3.119-2e-3-4.678-0.133 4e-3-0.395 6e-3-0.525 0.01-0.021 4.469 0.012 8.939-0.018 13.406 0.113 1.074-1.764 1.316-1.854 0.211-0.041-2.686-2e-3-5.375-0.016-8.059H3.858c2e-3 2.344-8e-3 4.684 4e-3 7.027 0 0.508-0.043 1.029-0.234 1.506-0.609 0.502-1.768 0.252-1.73-0.662-0.037-4.469 0.01-8.939-0.023-13.412H1.457C1.43 8.017 1.459 9.5 1.447 10.982c0 0.486-0.24 1.246-0.865 1.104-0.365 0.031-0.602-0.391-0.57-0.713a378 378 0 0 1-2e-3-5.638c-0.022-0.714 0.33-1.474 1.025-1.746" />
        </symbol>
        <symbol id="icon-caseinfo" viewBox="0 0 18.079 18.078">
            <circle fill="#0b0c0c" cx="9.039" cy="9.039" r="9.039" />
            <path fill="#fff" d="M10.583 3.201c0.027 0.615-0.577 1.107-1.539 1.107-0.852 0-1.457-0.492-1.457-1.107 0-0.636 0.632-1.128 1.512-1.128 0.906 0 1.484 0.492 1.484 1.128M7.89 15.916V5.99h2.418v9.926z" />
        </symbol>
        <symbol id="icon-cancel" viewBox="0 0 18 18" fill="currentColor">
            <path d="M11.593 1.375H1.885v16h14V5.448zM13.885 15.375h-10v-12h7v3h3z" />
            <path clip-rule="evenodd" d="M7.912 4.928c0.294-3e-3 0.448 0.168 0.507 0.398v3.421c0 0.073-0.028 0.245 0.028 0.245 0.343 0 0.328-0.17 0.328-0.281v-2.14c0-0.254-0.031-0.576 0.058-0.745 0.125-0.235 0.308-0.296 0.54-0.131C9.592 5.851 9.54 6.299 9.54 6.671v2.618c0 0.256-0.061 0.593 7e-3 0.84 0.021 0.074 0.13 0.27 0.208 0.286 0.156 0.033 0.259-0.317 0.304-0.421 0.071-0.156 0.172-0.274 0.27-0.414 0.088-0.127 0.183-0.25 0.297-0.354 0.214-0.199 0.583-0.376 0.874-0.269 0.075 0.028 0.119 0.107 0.174 0.159 4e-3 0.187-0.224 0.375-0.297 0.514-0.377 0.713-0.565 1.533-0.799 2.302-0.221 0.732-0.875 1.582-1.634 1.814-0.438 0.133-0.977 0.05-1.43 0.04-0.46-0.011-0.933-0.065-1.331-0.315a1.87 1.87 0 0 1-0.846-1.26c-0.074-0.388-0.065-0.785-0.065-1.178V7.989c0-0.232-0.042-0.551 0.136-0.732 0.175-0.182 0.352-0.159 0.511 0.04 0.176 0.22 0.11 0.546 0.107 0.805-5e-3 0.365 0 0.73 0 1.094 0 0.183-0.026 0.39 7e-3 0.564h0.015c0.037 0.025 0.309 6e-3 0.338-8e-3 0.072-0.033 0.011-0.742 0.011-0.823a89 89 0 0 1-3e-3-2.134V5.977C6.461 5.76 6.475 5.74 6.72 5.7 6.8 5.688 6.928 5.764 6.973 5.795c0.232 0.158 0.21 0.369 0.209 0.752v2.264c0 0.095-8e-3 0.208 7e-3 0.289l0.022 8e-3c0.029 0.02 0.23 0.023 0.274 0.022 0.042-1e-3 0.03-1.5 0.029-1.627-1e-3-0.485-0.029-0.974-0.011-1.461 0.012-0.321-0.122-0.891 0.257-1.063 0.05-0.023 0.109-0.021 0.152-0.051" fill-rule="evenodd" />
        </symbol>
        <symbol id="icon-call" viewBox="0 0 18 18">
            <path fill="currentColor" d="M13.728 16.11c-0.649 0.123-4.987-0.041-8.52-3.713C1.46 8.504 1.847 4.113 1.994 3.844c0.289-0.533 0.908-1.1 1.697-1.555q0.171-0.098 0.357-0.134c0.518-0.097 1.004 0.191 1.326 0.383l0.164 0.097c0.438 0.231 0.981 2.863 0.96 3.187C6.474 6.2 6.025 6.572 4.949 7.451 5.261 8.43 6.214 9.772 6.973 10.559c0.7 0.727 2.206 1.973 3.279 2.4 0.926-0.756 1.4-1.137 1.778-1.209q0.084-0.016 0.163-0.01c0.351 0.02 3.123 0.83 3.322 1.26l0.082 0.164c0.203 0.383 0.543 1.025 0.068 1.564-0.588 0.668-1.273 1.166-1.879 1.367z" />
        </symbol>
        <symbol id="icon-backtotimeline" viewBox="0 0 21.454 23.827">
            <path opacity="0.9" fill="#fff" d="M17.629 18.22c-0.153-0.934-0.894-2.088-1.846-2.277v-1.028c0.934-0.216 1.867-1.157 1.867-2.288s-0.934-2.072-1.867-2.289V9.321a4.674 4.674 0 0 0 4.215-4.65 4.673 4.673 0 0 0-9.345 0 4.67 4.67 0 0 0 4.194 4.649v1.017c-0.83 0.193-1.657 1.343-1.83 2.277h-2.842v0.934h2.894c0.245 0.936 1.008 1.188 1.778 1.366v1.032c-1.061 0.219-1.857 1.159-1.857 2.286s0.797 2.067 1.857 2.286v1.52l-1.066-1.07-0.657 0.66 2.199 2.199 2.2-2.199-0.666-0.66-1.074 1.07v-1.517c0.885-0.176 1.581-0.433 1.799-1.366h2.872V18.22zM11.588 4.671a3.74 3.74 0 0 1 3.738-3.736 3.74 3.74 0 0 1 3.736 3.736 3.74 3.74 0 0 1-3.736 3.738 3.74 3.74 0 0 1-3.738-3.738M13.924 12.626c0-0.772 0.627-1.402 1.402-1.402a1.402 1.402 0 0 1 0 2.803 1.4 1.4 0 0 1-1.402-1.401M15.326 19.634a1.402 1.402 0 0 1 0-2.802c0.771 0 1.4 0.629 1.4 1.401s-0.628 1.401-1.4 1.401M6.668 8.186v8L0 12.187z" />
        </symbol>
        <symbol id="icon-amendment" viewBox="0 0 18 18">
            <path fill="currentColor" clip-rule="evenodd" d="M8.389 9.457c-1e-3-0.406-6e-3-3.863-0.01-3.945H4.965c0.272 0.551 2.218 4.471 2.908 5.904 0.167 0.348 0.064 0.725-0.042 1.074-0.34 1.114-1.112 1.842-2.168 2.252-1.53 0.594-3.001 0.438-4.339-0.533C0.521 13.627 0.036 12.83 0 11.811a1 1 0 0 1 0.088-0.462c1.091-2.21 2.192-4.414 3.287-6.622 0.155-0.309 0.38-0.446 0.732-0.444 1.375 0.012 4.214 0.012 4.287 5e-3 0-0.231-0.011-1.472 2e-3-1.696h1.219c6e-3 0.206 2e-3 1.462 2e-3 1.697 0.353 0 3.177 0.01 4.258-6e-3 0.387-6e-3 0.622 0.149 0.787 0.486 0.837 1.711 2.942 6.003 3.177 6.428 0.239 0.433 0.175 0.865 0.045 1.298-0.333 1.11-1.105 1.829-2.149 2.243-1.436 0.568-2.841 0.457-4.147-0.383-0.891-0.572-1.454-1.383-1.526-2.471a1.2 1.2 0 0 1 0.121-0.592c0.907-1.854 1.828-3.702 2.745-5.552 0.035-0.069 0.065-0.142 0.106-0.229H9.618c0 0.305 2e-3 3.773 0 3.953M6.348 11.069l-2.372-4.8-2.386 4.8zM16.403 11.066 14.032 6.268l-2.384 4.798z" fill-rule="evenodd" />
        </symbol>
        <symbol id="icon-allocate" viewBox="0 0 15.454 15.102" fill="currentColor">
            <path d="M9.109 13.082H3.535c0 0-0.104-2.188 0.243-2.629 0.389-0.49 0.693-0.832 1.984-1.27l1.596-0.607 0.013-1.012c0 0-0.484-0.307-0.634-1.252-0.303 0.07-0.356-2.254-0.33-2.475C6.502 3.031 7.481 2 8.988 2c1.505 0 2.484 1.029 2.58 1.836 0.025 0.221-0.027 2.543-0.33 2.473-0.149 0.945-0.635 1.246-0.635 1.246l0.014 1.004 1.596 0.588c1.291 0.438 1.596 0.816 1.984 1.307 0.347 0.441 0.242 2.629 0.242 2.629z" />
            <path d="M1.454 6.522h1.458V5.571L5.809 7.58l-2.897 2V8.344H1.454z" />
        </symbol>
        <symbol id="icon-alert" viewBox="0 0 18 18">
            <path fill="currentColor" d="M16.738 15.123 10.176 1.853c-0.646-1.149-1.705-1.13-2.35 0.019l-6.563 13.25C0.617 16.271 1.203 17 2.566 17h12.867c1.364 0 1.95-0.727 1.305-1.877M10 14H8v-2h2zM10 10H8V5h2z" />
        </symbol>
        <symbol id="icon-address-change" viewBox="0 0 18 18">
            <g fill="currentColor">
                <path d="M12.338 14.361H10.57a0.84 0.84 0 0 1-0.342-0.092c-0.288-0.197-0.592-0.5-0.865-0.965l-0.216-0.371a38 38 0 0 1-0.313-0.541l-8e-3-0.016c-6e-3-0.01-0.59-1.045-1.223-2.127C7.229 9.609 6.5 8.925 5.579 8.925H3.806v1.001h1.769c0.118 0 0.703 0.041 1.165 0.83 0.302 0.516 0.592 1.02 0.813 1.406l-1e-3 1e-3c0.307 0.534 0.52 0.911 0.522 0.917l9e-3 0.016 0.044 0.077c0.067 0.118 0.229 0.399 0.617 1.062 0.225 0.385 0.466 0.592 0.662 0.702 0.508 0.383 0.981 0.425 1.163 0.425h1.77v1.131l1.631-1.631-1.631-1.631zM6.972 13.168q-0.109 0.189-0.224 0.384c-0.461 0.789-1.046 0.829-1.165 0.829H3.816v1.002h1.772c0.869 0 1.566-0.608 1.958-1.215a35 35 0 0 1-0.343-0.596z" />
                <path d="M10.576 8.945c-0.266 0-1.159 0.091-1.868 1.215 0.223 0.385 0.423 0.734 0.573 0.998l0.224-0.382c0.471-0.806 1.008-0.83 1.075-0.83h1.768v1.13l1.631-1.631-1.631-1.631v1.131h-1.772" />
                <path d="M18 7.002 9 0 0 6.989h1.011L1 18h16V7zM16 17H2V7h14z" />
            </g>
        </symbol>
        <symbol id="calendar-previous-month" viewBox="0 0 7 7.8">
            <path fill="#333" d="M7 0 0 3.9 7 7.8z" />
        </symbol>
        <symbol id="calendar-open" viewBox="0 0 19.1 19.6">
            <g fill="currentColor">
                <path d="M12.1 0h1.2v2.8h-1.2z" />
                <path d="M18.3 1.7h-4.8v1.6h-1.7V1.7H7v1.6H5.3V1.7H0.8C0.4 1.7 0 2.1 0 2.5v1.6h19.1V2.5c0-0.4-0.4-0.8-0.8-0.8M0 18.8c0 0.5 0.4 0.8 0.8 0.8h17.4c0.5 0 0.8-0.4 0.8-0.8V4.6H0zM14.1 6.3h3.3v3.3h-3.3zM14.1 10.4h3.3v3.3h-3.3zM14.1 14.6h3.3V18h-3.3zM10 6.3h3.3v3.3H10zM10 10.4h3.3v3.3H10zM10 14.6h3.3V18H10zM5.8 6.3h3.3v3.3H5.8zM5.8 10.4h3.3v3.3H5.8zM5.8 14.6h3.3V18H5.8zM1.7 6.3H5v3.3H1.7zM1.7 10.4H5v3.3H1.7zM1.7 14.6H5V18H1.7z" />
                <path d="M5.5 0h1.2v2.8H5.5z" />
            </g>
        </symbol>
        <symbol id="calendar-next-month" viewBox="0 0 7 7.8">
            <path fill="#333" d="M0 0 7 3.9 0 7.8z" />
        </symbol>
        <symbol id="aw-tab-workflow" viewBox="-9.666 -12.5 55 55" fill="currentColor">
            <path d="M20.668 30H5.708c0 0-0.285-5.797 0.667-7.008 1.066-1.346 1.901-2.184 5.443-3.381l4.38-1.615 0.034-2.752c0 0-1.33-0.827-1.738-3.423-0.832 0.196-0.979-6.177-0.905-6.783C13.85 2.826 16.536 0 20.668 0s6.818 2.826 7.079 5.038c0.073 0.606-0.073 6.979-0.905 6.783-0.408 2.596-1.738 3.423-1.738 3.423l0.035 2.752 4.379 1.615c3.543 1.197 4.379 2.035 5.443 3.381C35.913 24.203 35.628 30 35.628 30z" />
            <path d="M0 12.771h4.5V9.797l7.948 5.516L4.5 20.797v-3.026H0z" />
        </symbol>
        <symbol id="aw-tab-timeline" viewBox="-16.061 -2.564 55 55" fill="currentColor">
            <path d="M11.459 50.414 6.752 45.707l1.414-1.414 3.293 3.293 3.293-3.293 1.414 1.414zM11.42 23c1.654 0 3 1.346 3 3s-1.346 3-3 3-3-1.346-3-3 1.346-3 3-3M11.42 21a5 5 0 0 0-5 5c0 2.762 2.238 5 5 5s5-2.238 5-5a5 5 0 0 0-5-5" />
            <path d="M0 25h7.867v2H0zM11.459 35c1.654 0 3 1.346 3 3s-1.346 3-3 3-3-1.346-3-3 1.346-3 3-3M11.459 33c-2.762 0-5 2.238-5 5s2.238 5 5 5 5-2.238 5-5-2.238-5-5-5" />
            <path d="M15.012 37h7.867v2h-7.867zM12.439 34.13v-4.271c0 0.082-0.652 0.142-1 0.142s-1-0.06-1-0.142v4.296c0-0.091 0.678-0.154 1.04-0.154 0.334-1e-3 0.96 0.052 0.96 0.129M12.439 22.142v-3.418h-2v3.418c0-0.083 0.652-0.142 1-0.142s1 0.059 1 0.142M10.439 41.846v5.879h2V41.87c0 0.077-0.627 0.13-0.96 0.13-0.362 0-1.04-0.062-1.04-0.154" />
            <path d="M11.459 1c4.412 0 8 3.589 8 8s-3.588 8-8 8c-4.41 0-8-3.589-8-8s3.59-8 8-8M11.459-1c-5.521 0-10 4.478-10 10s4.479 10 10 10c5.523 0 10-4.478 10-10s-4.477-10-10-10" />
        </symbol>
        <symbol id="aw-tab-email" viewBox="-10.5 -16.886 55 55" fill="currentColor">
            <path d="M16.934 12.933 31.855 0.021c-0.102-0.014-0.19 0.205-0.295 0.205H2.301C2.237 0.227 2.182-6e-3 2.119 0zM34 1.789c0-0.248-0.236-0.479-0.316-0.7l-10.625 9.302 10.533 9.103C33.754 19.195 34 18.871 34 18.51zM0.269 0.981C0.165 1.23 0 1.502 0 1.789V18.51c0 0.305 0.178 0.59 0.296 0.851l10.5-9.002z" />
            <path d="M21.393 12.098l-4.464 3.785-4.452-4.043-10.288 9.091c0.039 2e-3 0.073 0.296 0.111 0.296h29.166z" />
        </symbol>
        <symbol id="aw-tab-alerts" viewBox="-14 -15.292 55 55" fill="currentColor">
            <path d="M26.605 21.593l-3.908-6.978c-0.971-1.761-2.557-4.514-3.523-6.273l-3.91-7.037c-0.971-1.761-2.558-1.729-3.525 0.031l-3.91 7.146c-0.969 1.762-2.556 4.682-3.526 6.441l-3.908 6.665c-0.969 1.763-0.09 2.827 1.955 2.827h22.303c2.042 1e-3 2.921-1.061 1.952-2.822M15.5 20.416h-3v-2h3zM15.5 15.416h-3v-8h3z" />
        </symbol>
        <symbol id="aw-tab-administration" viewBox="0 0 55 55">
            <path fill="currentColor" d="M35.574 25.305h-1.58c-0.725 0-1.496-0.563-1.71-1.254l-0.909-2.199c-0.342-0.635-0.202-1.576 0.309-2.086l1.124-1.115a1.315 1.315 0 0 0 0-1.859l-1.869-1.857a1.325 1.325 0 0 0-1.863 0l-1.128 1.119c-0.508 0.51-1.454 0.65-2.096 0.307l-2.203-0.904c-0.693-0.213-1.26-0.98-1.26-1.701V12.18c0-0.721-0.595-1.314-1.32-1.314h-2.641a1.32 1.32 0 0 0-1.318 1.314v1.576c0 0.721-0.567 1.488-1.26 1.701l-2.206 0.904c-0.646 0.344-1.585 0.205-2.099-0.307l-1.124-1.119a1.327 1.327 0 0 0-1.864 0l-1.865 1.857a1.306 1.306 0 0 0 0 1.857l1.117 1.117c0.515 0.51 0.658 1.451 0.311 2.086l-0.906 2.201c-0.219 0.689-0.982 1.254-1.711 1.254l-1.584-2e-3a1.32 1.32 0 0 0-1.318 1.313v2.627c0 0.719 0.593 1.313 1.318 1.313h1.584c0.729 0 1.492 0.566 1.707 1.256l0.91 2.199c0.346 0.637 0.206 1.578-0.311 2.086l-1.121 1.117a1.315 1.315 0 0 0 0 1.859l1.869 1.855a1.323 1.323 0 0 0 1.864 0l1.124-1.115c0.513-0.51 1.453-0.648 2.09-0.305l2.215 0.904c0.689 0.213 1.26 0.98 1.26 1.703v1.57c0 0.723 0.592 1.313 1.318 1.313h2.641c0.726 0 1.32-0.59 1.32-1.313v-1.57c0-0.723 0.566-1.49 1.26-1.703l2.212-0.904c0.636-0.344 1.581-0.205 2.097 0.305l1.118 1.115a1.32 1.32 0 0 0 1.863 0l1.869-1.855a1.315 1.315 0 0 0 0-1.859l-1.124-1.117c-0.509-0.508-0.65-1.449-0.309-2.086l0.909-2.199c0.214-0.688 0.991-1.256 1.71-1.256h1.58a1.32 1.32 0 0 0 1.321-1.311v-2.629a1.32 1.32 0 0 0-1.321-1.313M19.752 34.494c-3.643 0-6.597-2.936-6.597-6.564 0-3.625 2.954-6.564 6.597-6.564s6.598 2.939 6.598 6.564c0 3.629-2.955 6.564-6.598 6.564M51.54 19.158l-0.769-0.262c-0.35-0.119-0.632-0.521-0.622-0.895l-0.087-1.224c-0.06-0.365 0.164-0.803 0.493-0.966l0.721-0.357a0.677 0.677 0 0 0 0.303-0.906l-0.603-1.217a0.68 0.68 0 0 0-0.904-0.308l-0.721 0.357c-0.332 0.164-0.813 0.077-1.067-0.193l-0.921-0.81c-0.303-0.219-0.451-0.686-0.335-1.037l0.257-0.771a0.69 0.69 0 0 0-0.426-0.859L45.58 9.275a0.67 0.67 0 0 0-0.852 0.422l-0.256 0.771c-0.116 0.351-0.517 0.629-0.887 0.617l-1.213 0.08c-0.365 0.058-0.799-0.169-0.965-0.504l-0.361-0.729a0.68 0.68 0 0 0-0.906-0.308l-1.203 0.596a0.676 0.676 0 0 0-0.299 0.904L39 11.855c0.166 0.334 0.081 0.818-0.188 1.074l-0.797 0.916c-0.219 0.304-0.676 0.452-1.028 0.332l-0.769-0.264a0.67 0.67 0 0 0-0.852 0.422l-0.426 1.281a0.677 0.677 0 0 0 0.425 0.857l0.766 0.266c0.352 0.12 0.633 0.522 0.62 0.895l0.091 1.223c0.06 0.367-0.161 0.801-0.493 0.965l-0.725 0.359a0.677 0.677 0 0 0-0.3 0.904l0.603 1.215a0.68 0.68 0 0 0 0.902 0.313l0.725-0.359c0.332-0.164 0.811-0.076 1.066 0.193l0.917 0.811c0.304 0.219 0.457 0.686 0.337 1.037l-0.254 0.77a0.685 0.685 0 0 0 0.426 0.861l1.277 0.434a0.666 0.666 0 0 0 0.852-0.422l0.258-0.768c0.118-0.352 0.513-0.629 0.884-0.615l1.215-0.08c0.366-0.059 0.803 0.166 0.968 0.502l0.36 0.725c0.165 0.336 0.57 0.475 0.901 0.311l1.203-0.596a0.68 0.68 0 0 0 0.304-0.908l-0.36-0.725c-0.165-0.336-0.083-0.818 0.185-1.072l0.802-0.918c0.212-0.305 0.675-0.453 1.027-0.334l0.765 0.262a0.665 0.665 0 0 0 0.852-0.422l0.429-1.279a0.694 0.694 0 0 0-0.428-0.863M44.96 20.854c-1.662 0.824-3.684 0.131-4.516-1.547-0.83-1.676-0.156-3.704 1.506-4.528 1.661-0.822 3.684-0.132 4.515 1.545s0.156 3.707-1.505 4.53" />
        </symbol>
        <symbol id="aw-security-breach" viewBox="0 0 62 62">
            <path fill="currentColor" d="M40.5 15.5c-4.963 0-9 4.038-9 9h-18v22h22v-22h-1.996c0-3.857 3.139-6.996 6.996-6.996s6.996 3.139 6.996 6.996H49.5c0-4.962-4.037-9-9-9M26.5 40.804h-4l0.799-6.394a2 2 0 0 1-0.799-1.591 2 2 0 0 1 4 0c0 0.651-0.316 1.226-0.799 1.591z" />
        </symbol>
        <symbol id="aw-safeguarding-referral" viewBox="0 0 62 62">
            <g fill="currentColor">
                <path d="M13 21.957v18C13 41.607 14.252 43 15.901 43h30C47.552 43 49 41.607 49 39.957v-18C49 20.308 47.552 19 45.901 19H37v-3.043C37 14.308 35.552 13 33.901 13h-6C26.252 13 25 14.308 25 15.957V19h-9.099C14.252 19 13 20.308 13 21.957M27 17h8v2h-8zM24.002 26.333 26.334 24l4.665 4.666L35.665 24l2.333 2.333-4.666 4.666 4.666 4.666-2.333 2.332-4.666-4.665L26.334 38l-2.332-2.333L28.666 31z" />
                <path d="M7.5 31c0-7.802 3.825-14.723 9.694-19h-4.642C7.592 16.819 4.5 23.553 4.5 31s3.092 14.182 8.053 19h4.642C11.325 45.723 7.5 38.802 7.5 31M49.446 12h-4.64c5.869 4.277 9.693 11.198 9.693 19s-3.824 14.723-9.693 19h4.64c4.962-4.818 8.054-11.553 8.054-19s-3.092-14.181-8.054-19" />
            </g>
        </symbol>
        <symbol id="aw-remove-user" viewBox="0 0 62 62">
            <path fill="currentColor" d="M44.021 21.9h-3v-3h9v3h-3M31.332 46.404H16.04c0 0-0.285-6.002 0.667-7.213 1.066-1.344 1.9-2.283 5.443-3.482l4.38-1.666 0.034-2.777c0 0-1.33-0.84-1.738-3.436-0.832 0.195-0.979-6.184-0.906-6.789C24.182 18.828 26.867 16 31 16c4.132 0 6.818 2.824 7.079 5.035 0.073 0.607-0.073 6.979-0.905 6.783-0.408 2.596-1.738 3.422-1.738 3.422l0.033 2.752 4.381 1.615c3.542 1.198 4.377 2.24 5.443 3.585 0.951 1.211 0.667 7.212 0.667 7.212z" />
        </symbol>
        <symbol id="aw-remove-person" viewBox="0 0 62 62" fill="currentColor">
            <g>
                <circle cx="29" cy="23.5" r="7.502" />
                <path d="M14 46c0-6.213 6.714-11.25 14.998-11.25C37.286 34.75 44 39.787 44 46" />
            </g>
            <path d="M42.021 21.9h-3v-3h9v3h-3" />
        </symbol>
        <symbol id="aw-remove-case" viewBox="0 0 62 62">
            <path fill="currentColor" d="M45.901 22H37v-3.043C37 17.308 35.552 16 33.901 16h-6C26.251 16 25 17.308 25 18.957V22h-9.099C14.251 22 13 23.308 13 24.957v18C13 44.607 14.251 46 15.901 46h30C47.552 46 49 44.607 49 42.957v-18C49 23.308 47.552 22 45.901 22M27 20h8v2h-8zM37.998 38.664l-2.333 2.332-4.666-4.665L26.333 41l-2.332-2.333L28.666 34l-4.665-4.667L26.333 27l4.666 4.666L35.665 27l2.333 2.333-4.666 4.666z" />
        </symbol>
        <symbol id="aw-new-template" viewBox="0 0 62 62">
            <g fill="currentColor">
                <path d="M14 15.9v32h28v-24l-8.586-8zM38 43.9H18v-24h14v6h6zM46 15.9v-3h-3v3h-3v3h3v3h3v-3h3v-3z" />
                <path d="M20 27.847V33.9h16v-6.053H20M34 31.9H22v-2.053h12zM22 35.9h-2v6h16v-6H22M34 39.9H22v-2h12z" />
            </g>
        </symbol>
        <symbol id="aw-new-task" viewBox="0 0 62 62">
            <path fill="currentColor" d="M18.891 44.816a4.154 4.154 0 1 1-8.308 2e-3 4.154 4.154 0 0 1 8.308-2e-3M18.891 33.74a4.154 4.154 0 1 1-8.308 0 4.154 4.154 0 0 1 8.308 0M18.891 22.663a4.154 4.154 0 1 1-4.153-4.154 4.16 4.16 0 0 1 4.153 4.154M24 21.24h19v3H24zM24 32.24h19v3H24zM24 43.24h19v3H24zM52 15.24h-3v-3h-3v3h-3v3h3v3h3v-3h3z" />
        </symbol>
        <symbol id="aw-new-event" viewBox="0 0 62 62" fill="currentColor">
            <path d="M58 15v3h-3v3h-3v-3h-3v-3h3v-3h3v3zM18.306 20.5H49.5v22.508H18.306V28.37H14.95c-0.467 2.364-2.553 4.155-5.052 4.155-2.842 0-5.154-2.313-5.154-5.155s2.313-5.154 5.154-5.154a5.16 5.16 0 0 1 5.052 4.154h3.356zM13.051 27.37a3.16 3.16 0 0 0-3.153-3.154c-1.739 0-3.154 1.415-3.154 3.154s1.415 3.155 3.154 3.155a3.16 3.16 0 0 0 3.153-3.155M20.306 41.008H47.5V22.5H20.306z" />
        </symbol>
        <symbol id="aw-my-profile" viewBox="0 0 62 62">
            <path fill="currentColor" d="M31.332 46.404H16.04c0 0-0.285-6.002 0.667-7.213 1.066-1.344 1.9-2.283 5.443-3.482l4.38-1.666 0.034-2.777c0 0-1.33-0.84-1.738-3.436-0.832 0.195-0.979-6.184-0.906-6.789C24.182 18.828 26.867 16 31 16c4.132 0 6.818 2.824 7.079 5.035 0.073 0.607-0.073 6.979-0.905 6.783-0.408 2.596-1.738 3.422-1.738 3.422l0.033 2.752 4.381 1.615c3.542 1.198 4.377 2.24 5.443 3.585 0.951 1.211 0.667 7.212 0.667 7.212z" />
        </symbol>
        <symbol id="aw-mi" viewBox="0 0 62 62" fill="currentColor">
            <path d="M49.864 17.813H13.111V46h36.753V17.813M48.051 19.75v24.5H15.125v-24.5z" />
            <path d="M18.828 40.605l-1.626-1.164 5.914-8.26 0.826 1.026c0.016 0.02 1.479 1.838 2.36 2.84 1.083-0.109 4.737-1.885 7.686-3.592l0.466-0.27 4.754 2.371 5.21-9.915 1.77 0.931-6.12 11.648-5.544-2.765c-8.147 4.659-9.077 3.629-9.528 3.131a69 69 0 0 1-1.781-2.104z" />
        </symbol>
        <symbol id="aw-log-deceased" viewBox="0 0 62 62" fill="currentColor" baseProfile="tiny">
            <path d="M31 6.5C17.49 6.5 6.5 17.49 6.5 31S17.49 55.5 31 55.5 55.5 44.509 55.5 31 44.509 6.5 31 6.5M30.998 13a7.5 7.5 0 1 1 0 15 7.5 7.5 0 0 1-7.5-7.5c0-4.143 3.356-7.5 7.5-7.5M16 43c0-6.213 6.714-11.25 14.998-11.25C39.285 31.75 46 36.787 46 43zM47.021 18.9h-6v-3h6z" />
        </symbol>
        <symbol id="aw-log-complaint" viewBox="0 0 62 62" fill="currentColor">
            <g>
                <circle cx="26" cy="27.5" r="7.502" />
                <path d="M11 50c0-6.213 6.714-11.25 14.998-11.25C34.285 38.75 41 43.787 41 50" />
            </g>
            <path d="M44.002 12C39.584 12 36 15.017 36 18.739c0 2.227 1.285 4.193 3.259 5.417L37.639 28l5.406-2.575c0.313 0.032 0.629 0.055 0.957 0.055 4.416 0 7.998-3.02 7.998-6.741C52 15.017 48.418 12 44.002 12M45.143 23.531h-2.285v-2.286h2.285zM45.143 19.817h-2.285v-5.714h2.285z" />
        </symbol>
        <symbol id="aw-lodging-checklist" viewBox="0 0 36.7 42" fill="#1f3766">
            <path d="M0 0v42h36.7V10.5L25.5 0zM32.7 38.7H3.9V3.5h19.7v8.4h9.2z" />
            <path d="M9.6 14.7c0.1 0.6 0.3 1.1 0.6 1.6 0.5 0.8 1.8 0 1.3-0.8-0.3-0.4-0.4-0.8-0.5-1.3-0.2-0.9-1.6-0.5-1.4 0.5" />
            <path d="M11.5 16.3c0.9-1.4 1.8-2.8 3.1-3.9 0.7-0.6-0.3-1.7-1.1-1.1-1.3 1.2-2.3 2.7-3.3 4.2-0.5 0.9 0.8 1.7 1.3 0.8M11.5 32.5c-0.3 0-0.5 0.1-0.7 0.3s-0.2 0.5-0.2 0.9 0.1 0.7 0.2 0.9c0.2 0.2 0.4 0.3 0.7 0.3q0.9 0 0.9-1.2t-0.9-1.2M15.1 32.6h-0.4v2.3H15c0.7 0 1.1-0.4 1.1-1.2 0-0.7-0.3-1.1-1-1.1" />
            <path d="M4.9 29.6v8.1h26.9v-8.1zM9.4 35.5H7.2V32H8v2.9h1.4zM12.8 35.1c-0.3 0.3-0.7 0.5-1.3 0.5-0.5 0-1-0.2-1.3-0.5s-0.4-0.8-0.4-1.4 0.1-1 0.4-1.4c0.3-0.3 0.7-0.5 1.3-0.5 0.5 0 1 0.2 1.3 0.5s0.4 0.8 0.4 1.4-0.1 1.1-0.4 1.4M16.4 35.1c-0.3 0.3-0.8 0.5-1.4 0.5h-1V32h1.1c0.6 0 1 0.2 1.4 0.5 0.3 0.3 0.5 0.7 0.5 1.3-0.1 0.5-0.2 0.9-0.6 1.3M20.4 35.4c-0.2 0.1-0.4 0.1-0.6 0.2h-0.6c-0.5 0-1-0.2-1.2-0.5-0.3-0.3-0.4-0.8-0.4-1.4s0.2-1 0.5-1.3 0.8-0.5 1.4-0.5c0.4 0 0.7 0.1 1.1 0.2l-0.3 0.6c-0.3-0.1-0.5-0.2-0.8-0.2s-0.6 0.1-0.8 0.3q-0.3 0.3-0.3 0.9c0 0.4 0.1 0.7 0.2 0.9 0.2 0.2 0.4 0.3 0.7 0.3h0.5v-0.7H19v-0.6h1.4zM22.1 35.5h-0.8V32h0.8zM26.1 35.5h-1l-1.6-2.7v2.7h-0.7V32h1l1.6 2.7V32h0.7zM29.8 35.4c-0.2 0.1-0.4 0.1-0.6 0.2h-0.6c-0.5 0-1-0.2-1.2-0.5-0.3-0.3-0.4-0.8-0.4-1.4s0.2-1 0.5-1.3 0.8-0.5 1.4-0.5c0.4 0 0.7 0.1 1.1 0.2l-0.3 0.6c-0.3-0.1-0.5-0.2-0.8-0.2s-0.6 0.1-0.8 0.3q-0.3 0.3-0.3 0.9c0 0.4 0.1 0.7 0.2 0.9 0.2 0.2 0.4 0.3 0.7 0.3h0.5v-0.7h-0.7v-0.6h1.4v1.8zM16.4 12.9h9.9v1.8h-9.9zM9.6 20.3c0.1 0.6 0.3 1.1 0.6 1.6 0.5 0.8 1.8 0 1.3-0.8-0.3-0.4-0.4-0.8-0.5-1.3-0.2-0.8-1.6-0.4-1.4 0.5" />
            <path d="M11.5 22c0.9-1.4 1.8-2.8 3.1-3.9 0.7-0.6-0.3-1.7-1.1-1.1-1.3 1.2-2.3 2.7-3.3 4.2-0.5 0.9 0.8 1.6 1.3 0.8M16.4 18.6h9.9v1.8h-9.9zM9.6 26c0.1 0.6 0.3 1.1 0.6 1.6 0.5 0.8 1.8 0 1.3-0.8-0.3-0.4-0.4-0.8-0.5-1.3-0.2-0.8-1.6-0.4-1.4 0.5" />
            <path d="M11.5 27.7c0.9-1.4 1.8-2.8 3.1-3.9 0.7-0.6-0.3-1.7-1.1-1.1-1.3 1.2-2.3 2.7-3.3 4.2-0.5 0.9 0.8 1.6 1.3 0.8M16.4 24.2h9.9V26h-9.9z" />
        </symbol>
        <symbol id="aw-link" viewBox="0 0 62 62" fill="currentColor">
            <path d="M23.725 27.493a2.713 2.713 0 0 1 2.702 2.708v3.16a2.713 2.713 0 0 1-2.702 2.707h-8.107a2.714 2.714 0 0 1-2.705-2.707v-3.16a2.715 2.715 0 0 1 2.705-2.708zM23.725 23.432h-8.107c-3.727 0-6.756 3.033-6.756 6.77v3.16c0 3.732 3.029 6.77 6.756 6.77h8.107c3.723 0 6.758-3.037 6.758-6.77v-3.16c-1e-3-3.737-3.036-6.77-6.758-6.77M47.048 27.52a2.73 2.73 0 0 1 2.726 2.724v2.724c0 1.5-1.227 2.727-2.726 2.727h-8.172a2.735 2.735 0 0 1-2.726-2.727v-2.724c0-1.5 1.227-2.724 2.726-2.724zM47.048 23.432h-8.172c-3.757 0-6.81 3.057-6.81 6.812v2.724c0 3.754 3.053 6.812 6.81 6.812h8.172c3.756 0 6.813-3.058 6.813-6.812v-2.724c0-3.756-3.057-6.812-6.813-6.812" />
            <path d="M41.029 31.078c0 1.5-1.223 2.723-2.713 2.723h-13.56c-1.49 0-2.709-1.223-2.709-2.723s1.219-2.725 2.709-2.725h13.561a2.727 2.727 0 0 1 2.712 2.725" />
        </symbol>
        <symbol id="aw-future-task" viewBox="0 0 62 62">
            <g fill="currentColor">
                <path d="M47.83 15.204c-0.753 0.019-1.191 0.679-1.07 1.388-0.296 0.263-0.334 0.794-0.214 1.158q0.104 0.303 0.328 0.532c-0.045 0.091-0.113 0.291-0.107 0.396-9e-3 0.167-0.012 0.375 0.027 0.537 0.107 0.869 1.308 1.423 1.877 1.928-0.839 0.324-0.688 1.492-0.169 2.03 0.302 0.399 0.674 0.795 0.997 1.186 0.057 0.101 0.159 0.223 0.256 0.31-0.086 0.42-0.193 0.836-0.234 1.264-0.095 0.975-0.048 2.008-0.043 2.983 0.121 0.915-0.231 1.658-0.418 2.496-0.58 1.659-0.866 3.608-0.607 5.363 0.21 0.263 0.222 0.942 0.431 1.28 0.227 0.406 0.519 0.789 0.786 1.168 0.55 0.778 1.078 1.641 1.721 2.348 0.381 0.451 0.875-0.049 1.198-0.28 0.737-0.528 1.471-0.985 2.306-1.349 0.711-0.31 1.706-0.529 2.314-1.02 0.606-0.488-0.059-1.48-0.189-2.064-0.364-1.631-0.452-3.19-0.529-4.853-0.039-0.977-0.157-1.954-0.184-2.93-0.064-0.642 0.14-1.292 0.036-1.928-0.168-0.857-0.771-1.699-1.14-2.483-0.516-1.093-0.931-2.245-1.381-3.375-0.811-2.04-2.691-3.163-4.104-4.753-0.469-0.557-1.084-1.35-1.888-1.332M15.17 15.204c0.753 0.019 1.191 0.679 1.07 1.388 0.296 0.263 0.334 0.794 0.214 1.158a1.4 1.4 0 0 1-0.328 0.532c0.045 0.091 0.113 0.291 0.107 0.396 9e-3 0.167 0.012 0.375-0.027 0.537-0.107 0.869-1.308 1.423-1.877 1.928 0.839 0.324 0.688 1.492 0.169 2.03-0.302 0.399-0.674 0.795-0.997 1.186a1.4 1.4 0 0 1-0.256 0.31c0.086 0.42 0.193 0.836 0.234 1.264 0.095 0.975 0.048 2.008 0.043 2.983-0.121 0.915 0.231 1.658 0.418 2.496 0.58 1.659 0.866 3.608 0.607 5.363-0.21 0.263-0.222 0.942-0.431 1.28-0.227 0.406-0.519 0.789-0.786 1.168-0.55 0.778-1.078 1.641-1.721 2.348-0.381 0.451-0.875-0.049-1.198-0.28-0.737-0.528-1.471-0.985-2.306-1.349-0.711-0.31-1.706-0.529-2.314-1.02-0.606-0.488 0.059-1.48 0.189-2.064 0.364-1.631 0.452-3.19 0.529-4.853 0.039-0.977 0.157-1.954 0.184-2.93 0.064-0.642-0.14-1.292-0.036-1.928 0.168-0.857 0.771-1.699 1.14-2.483 0.516-1.093 0.931-2.245 1.381-3.375 0.811-2.04 2.691-3.163 4.104-4.753 0.469-0.557 1.084-1.35 1.888-1.332M42.412 46.796l0.033-8.504a14.1 14.1 0 0 1-10.946 5.166c-4.43 0-8.378-2.023-10.944-5.166v8.504" />
                <path d="M31.499 41.458c7.18 0 13.001-5.667 13.001-12.658s-5.821-12.658-13.001-12.658S18.5 21.81 18.5 28.8s5.819 12.658 12.999 12.658M35.305 20.243a4.501 4.501 0 0 1 0 9 4.5 4.5 0 0 1 0-9" />
            </g>
        </symbol>
        <symbol id="aw-edit-user" viewBox="0 0 62 62">
            <g fill="currentColor">
                <path d="M31.332 46.404H16.04c0 0-0.285-6.002 0.667-7.213 1.066-1.344 1.9-2.283 5.443-3.482l4.38-1.666 0.034-2.777c0 0-1.33-0.84-1.738-3.436-0.832 0.195-0.979-6.184-0.906-6.789C24.182 18.828 26.867 16 31 16c4.132 0 6.818 2.824 7.079 5.035 0.073 0.607-0.073 6.979-0.905 6.783-0.408 2.596-1.738 3.422-1.738 3.422l0.033 2.752 4.381 1.615c3.542 1.198 4.377 2.24 5.443 3.585 0.951 1.211 0.667 7.212 0.667 7.212z" />
                <path d="M39 31l0.287-2.03 0.289-2.034 1.746 1.744 1.742 1.743-2.03 0.291zM48.682 23.645l-5.19 5.228-0.576-0.846 5.19-5.228-0.889-0.896-5.19 5.226-0.843-0.579 5.193-5.228-0.578-0.58-5.766 5.808 3.459 3.482 5.767-5.805zM50.779 22.713c0.303-0.305 0.293-0.819-0.023-1.139l-2.296-2.329c-0.315-0.32-0.823-0.328-1.124-0.021-0.025 0.023-0.036 0.057-0.058 0.083l-0.014-0.013-1.103 1.117 3.445 3.492 1.103-1.118-0.015-0.015c0.029-0.021 0.06-0.03 0.085-0.057" />
            </g>
        </symbol>
        <symbol id="aw-edit-team" viewBox="0 0 78 113.198" fill="#20376b">
            <path fill="#fff" class="st3" d="M39 8C21.906 8 8 21.906 8 39 8 56.092 21.906 70 39 70c17.093 0 31-13.908 31-31 0-17.094-13.907-31-31-31" />
            <linearGradient id="SVGID_1_1" fill="#000" gradientUnits="userSpaceOnUse" x1="38.999" x2="38.999" y1="0" y2="78.001">
                <stop offset="0" stop-color="#4471a8" />
                <stop offset="1" stop-color="#20376b" />
            </linearGradient>
            <path fill="url(#SVGID_1_1)" d="M39 78C17.495 78 0 60.505 0 39S17.495 0 39 0 78 17.495 78 39 60.504 78 39 78M39 8C21.906 8 8 21.906 8 39 8 56.092 21.906 70 39 70c17.093 0 31-13.908 31-31 0-17.094-13.907-31-31-31" />
            <linearGradient id="SVGID_2_1" fill="#000" gradientUnits="userSpaceOnUse" x1="38.999" x2="38.999" y1="9" y2="69.001">
                <stop offset="0" stop-color="#fff" />
                <stop offset="1" stop-color="#ababab" />
            </linearGradient>
            <path fill="url(#SVGID_2_1)" d="M39 69C22.459 69 9 55.542 9 39S22.459 9 39 9c16.543 0 30 13.458 30 30S55.543 69 39 69" />
            <path fill="#fff" class="st3" d="M39 10c15.99 0 29 13.009 29 29S54.99 68 39 68 10 54.99 10 39 23.009 10 39 10M39 8C21.906 8 8 21.906 8 39 8 56.092 21.906 70 39 70c17.093 0 31-13.908 31-31 0-17.094-13.907-31-31-31" />
            <path fill="#010101" class="st4" d="M31.988 95.282h-4.934v-8.566h4.934v1.488h-3.117v1.881h2.9v1.488h-2.9v2.209h3.117zM40.883 90.917q0 2.115-1.205 3.24-1.204 1.125-3.478 1.125h-2.426v-8.566h2.689q2.097 0 3.258 1.107 1.162 1.108 1.162 3.094M38.996 90.964q0-2.76-2.438-2.76h-0.967v5.578h0.779q2.626 0 2.626-2.818M42.658 95.282v-8.566h1.816v8.566zM49.936 95.282H48.12v-7.055h-2.326v-1.512h6.469v1.512h-2.326zM26.99 109.683h-1.816v-7.055h-2.326v-1.512h6.469v1.512H26.99zM35.568 109.683h-4.934v-8.566h4.934v1.488h-3.117v1.881h2.9v1.488h-2.9v2.209h3.117zM42.6 109.683l-0.621-2.039h-3.124l-0.621 2.039h-1.957l3.023-8.602h2.221l3.035 8.602zM41.545 106.12q-0.861-2.772-0.971-3.135c-0.11-0.363-0.123-0.434-0.154-0.574q-0.194 0.75-1.108 3.709zM49.262 109.683 47.2 102.962h-0.053q0.111 2.05 0.111 2.736v3.984h-1.623v-8.566h2.473l2.027 6.551h0.035l2.15-6.551h2.473v8.566H53.1v-4.055q0-0.287 8e-3-0.662c8e-3-0.375 0.033-0.914 0.08-1.992h-0.053l-2.209 6.709z" />
            <path class="st0" d="M35.404 53.405H20.11c0 0-0.284-6.003 0.668-7.214 1.066-1.344 1.9-2.283 5.444-3.482l4.379-1.666 0.035-2.777c0 0-1.33-0.84-1.738-3.436-0.832 0.195-0.979-6.184-0.907-6.789C28.254 25.828 30.939 23 35.072 23c4.131 0 6.818 2.824 7.078 5.034 0.074 0.608-0.072 6.979-0.904 6.783-0.408 2.596-1.738 3.422-1.738 3.422l0.033 2.752 4.381 1.615c3.542 1.198 4.377 2.24 5.443 3.585 0.951 1.21 0.666 7.212 0.666 7.212H35.404" />
            <path class="st0" d="M54.021 44.833c-0.912-1.15-1.627-2.041-4.655-3.066l-3.747-1.381-0.027-2.353c0 0 1.139-0.707 1.486-2.926 0.712 0.167 0.838-5.281 0.775-5.801-0.223-1.887-2.516-4.298-6.039-4.305 0.746 0.908 1.215 1.925 1.331 2.917 8e-3 0.053 0.146 6.239-0.956 7.482l-0.04 0.044c-0.371 1.761-1.13 2.76-1.634 3.254l0.019 1.593 3.735 1.376c3.809 1.288 4.769 2.5 5.881 3.902 0.73 0.931 0.916 3.367 0.934 5.431h3.508c0 0 0.244-5.132-0.571-6.167M25.904 41.761l3.708-1.412 0.021-1.628c-0.505-0.496-1.264-1.5-1.633-3.265l-0.041-0.042c-1.098-1.237-0.965-7.435-0.957-7.492 0.117-0.993 0.588-2.012 1.336-2.921-3.529 4e-3-5.824 2.419-6.047 4.31-0.061 0.518 0.062 5.973 0.775 5.806 0.35 2.22 1.486 2.938 1.486 2.938l-0.029 2.375-3.745 1.424c-3.03 1.025-3.743 1.829-4.655 2.978-0.814 1.035-0.57 6.168-0.57 6.168h3.512c0.015-2.064 0.203-4.501 0.931-5.427 1.223-1.542 2.231-2.567 5.908-3.812" />
            <path class="st0" d="M49.71 36.487l0.285-2.03 0.29-2.035 1.746 1.745 1.742 1.742-2.028 0.291zM59.392 29.131 54.201 34.36l-0.575-0.846 5.188-5.228-0.886-0.896-5.192 5.226-0.841-0.578 5.191-5.229-0.58-0.58-5.765 5.809 3.46 3.482 5.768-5.807zM61.488 28.2c0.301-0.304 0.293-0.818-0.021-1.139l-2.299-2.328c-0.312-0.32-0.821-0.327-1.122-0.021-0.026 0.023-0.037 0.057-0.058 0.083l-0.016-0.013-1.102 1.117 3.445 3.492 1.102-1.118-0.014-0.015c0.029-0.022 0.06-0.03 0.085-0.058" />
        </symbol>
        <symbol id="aw-edit-person" viewBox="0 0 62 62">
            <g fill="currentColor">
                <circle cx="29" cy="23.5" r="7.502" />
                <path d="M14 46c0-6.213 6.714-11.25 14.998-11.25C37.286 34.75 44 39.787 44 46" />
            </g>
            <path d="M39.039 21.836 39.25 20.34l0.215-1.496 1.283 1.283 1.283 1.283-1.496 0.215zM46.168 16.419 42.346 20.27l-0.424-0.622 3.822-3.85-0.654-0.66-3.822 3.846-0.622-0.425 3.823-3.849-0.424-0.427-4.246 4.276 2.547 2.566 4.248-4.276zM47.713 15.735c0.223-0.225 0.215-0.603-0.018-0.839l-1.691-1.715a0.583 0.583 0 0 0-0.828-0.017c-0.018 0.018-0.025 0.042-0.041 0.061l-0.01-9e-3-0.812 0.822 2.537 2.571 0.812-0.822-9e-3-0.01c0.019-0.017 0.04-0.023 0.06-0.042" />
        </symbol>
        <symbol id="aw-edit-case" viewBox="0 0 62 62" fill="currentColor">
            <path d="M41.944 24.574h-7.83v-2.678c0-1.449-1.273-2.602-2.727-2.602h-5.279c-1.452 0-2.552 1.152-2.552 2.602v2.678H15.55c-1.451 0-2.551 1.15-2.551 2.602v15.836c0 1.451 1.1 2.676 2.551 2.676h26.394c1.453 0 2.727-1.225 2.727-2.676V27.176c0-1.451-1.274-2.602-2.727-2.602M25.316 22.814h7.039v1.76h-7.039zM41.039 18.836 41.25 17.34l0.215-1.496 1.283 1.283 1.283 1.283-1.496 0.215zM48.168 13.419 44.346 17.27l-0.424-0.622 3.822-3.85-0.654-0.66-3.822 3.846-0.622-0.425 3.823-3.849-0.424-0.427-4.246 4.276 2.547 2.566 4.248-4.276zM49.713 12.735c0.223-0.225 0.215-0.603-0.018-0.839l-1.691-1.715a0.583 0.583 0 0 0-0.828-0.017c-0.018 0.018-0.025 0.042-0.041 0.061l-0.01-9e-3-0.812 0.822 2.537 2.571 0.812-0.822-9e-3-0.01c0.019-0.017 0.04-0.023 0.06-0.042" />
        </symbol>
        <symbol id="aw-crec" viewBox="0 0 36.7 42" fill="#1f3766">
            <path d="M0 0v42h36.7V10.5L25.5 0zM32.7 38.7H3.9V3.5h19.7v8.4h9.2z" />
            <g>
                <path d="M16 32.6h-0.3v1.2H16c0.3 0 0.5 0 0.6-0.1s0.2-0.2 0.2-0.5c0-0.2-0.1-0.3-0.2-0.4-0.1-0.2-0.3-0.2-0.6-0.2" />
                <path d="M4.9 30v8h26.8v-8zM12.8 35.4c0.3 0 0.7-0.1 1.1-0.2V36c-0.4 0.1-0.7 0.2-1.2 0.2-0.6 0-1.1-0.2-1.4-0.6s-0.5-0.9-0.5-1.6c0-0.4 0.1-0.8 0.2-1.2 0.2-0.3 0.4-0.6 0.7-0.8s0.7-0.3 1.1-0.3 0.8 0.1 1.3 0.3l-0.3 0.7c-0.2-0.1-0.3-0.1-0.5-0.2s-0.3-0.1-0.5-0.1c-0.3 0-0.6 0.1-0.8 0.4s-0.3 0.6-0.3 1.1c0 1 0.4 1.5 1.1 1.5M17.2 36.1l-1-1.6h-0.5v1.6h-0.9v-4.3H16c0.6 0 1 0.1 1.3 0.3s0.4 0.5 0.4 1c0 0.3-0.1 0.5-0.2 0.7s-0.3 0.4-0.6 0.5c0.6 1 1.1 1.6 1.3 1.9h-1zM21.2 32.6h-1.6v0.9h1.5v0.7h-1.5v1.1h1.6v0.8h-2.5v-4.3h2.5zM24 35.4c0.3 0 0.7-0.1 1.1-0.2V36c-0.4 0.1-0.7 0.2-1.2 0.2-0.6 0-1.1-0.2-1.4-0.6S22 34.7 22 34c0-0.4 0.1-0.8 0.2-1.2 0.2-0.3 0.4-0.6 0.7-0.8s0.7-0.3 1.1-0.3 0.8 0.1 1.3 0.3L25 32.7c-0.2-0.1-0.3-0.1-0.5-0.2s-0.3-0.1-0.5-0.1c-0.3 0-0.6 0.1-0.8 0.4s-0.3 0.6-0.3 1.1c0 1 0.3 1.5 1.1 1.5" />
            </g>
            <path d="M13.9 28.4h9M13.9 28.2c0 0 0.1-0.2 0.4-0.5 0.2-0.3 0.6-0.6 1-1 0.4-0.3 0.9-0.6 1.4-0.8 0.3-0.1 0.5-0.2 0.8-0.2 0.3-0.1 0.6-0.1 0.8-0.1 0.3 0 0.6 0 0.8 0.1 0.3 0 0.5 0.1 0.8 0.2 0.5 0.2 1 0.5 1.4 0.8s0.8 0.7 1 1 0.4 0.5 0.4 0.5v0.3c0 0-0.6 0-1.4 0.1-0.8 0-2 0-3.1 0.1-1.1 0-2.3-0.1-3.1-0.1s-1.4-0.1-1.4-0.1v-0.3z" />
            <path d="M15.7 23.4H9.6M15.7 23.5c0 0-0.4 0.6-0.9 1-0.3 0.2-0.6 0.4-1 0.5s-0.7 0.2-1.1 0.2-0.8-0.1-1.1-0.2c-0.2-0.1-0.4-0.2-0.5-0.2-0.2-0.1-0.3-0.2-0.5-0.3-0.6-0.4-0.9-1-0.9-1v-0.2c0 0 0.4 0 0.9-0.1h4.2c0.6 0 0.9 0.1 0.9 0.1z" />
            <path d="M19.4 26.1c0 0.6-0.4 1-1 1s-1-0.4-1-1V13c0-0.6 0.4-1 1-1s1 0.5 1 1z" />
            <path d="M25.3 13.7c0 0.5-0.5 0.9-1 0.9H12.5c-0.6 0-1-0.4-1-0.9s0.4-0.9 1-0.9h11.8c0.6 0 1 0.4 1 0.9" />
            <path d="M10.3 23.3l1.1 0.4 1.8-9.1-1.1-0.4z" />
            <path d="M14 23.7l1.1-0.3-1.6-9.2-1.1 0.3z" />
            <path d="M26.9 23.4h-6.1M26.9 23.5c0 0-0.4 0.6-0.9 1-0.3 0.2-0.6 0.4-1 0.5s-0.7 0.2-1.1 0.2-0.8-0.1-1.1-0.2c-0.2-0.1-0.4-0.2-0.5-0.2-0.2-0.1-0.3-0.2-0.5-0.3-0.6-0.4-0.9-1-0.9-1v-0.2c0 0 0.4 0 0.9-0.1H26c0.6 0 0.9 0.1 0.9 0.1z" />
            <path d="M21.6 23.3l1.1 0.4 1.7-9.1-1.1-0.4z" />
            <path d="M25.2 23.7l1.1-0.3-1.6-9.2-1.1 0.3z" />
        </symbol>
        <symbol id="aw-create-warning" viewBox="0 0 62 62">
            <path fill="#fff" d="M29 37.74l7.225-4.985L29 27.74V31h-4v4h4v-0.02z" />
            <path d="M31.209 15C21.707 15 14 22.705 14 32.209s7.707 17.209 17.209 17.209c9.504 0 17.209-7.705 17.209-17.209S40.713 15 31.209 15M37.749 41.051c-0.22 2.219-1.099 4.133-4.685 4.133H26.71c-4.767 0-4.767-3.375-4.767-6.354V26.12c0-0.872 0.715-1.587 1.59-1.587h1.59v-1.59c0-0.872 0.713-1.59 1.587-1.59h1.589c0-0.869 0.713-1.589 1.588-1.589h1.59c0.873 0 1.587 0.72 1.587 1.589h1.588c0.871 0 1.589 0.718 1.589 1.59V33.41l2.057-2.052c0.968-0.968 1.974-1.171 2.649-1.171 1.521 0 2.576 0.975 2.773 1.171 0.572 0.574 0.621 1.484 0.111 2.119z" />
            <path d="M39.418 32.48c-1.588 1.59-3.178 3.176-3.178 3.176v-6e-3h-1.588V22.943h-1.588v9.531h-1.588V21.353h-1.59v11.121h-1.588v-9.53H26.71v9.53h-1.587V26.12h-1.59v12.71c0 3.174 0 4.764 3.177 4.764h6.354c2.586 0 3.06-1.07 3.146-3.178h0.029v-0.027l6.355-7.908c0 0-0.709-0.705-1.648-0.705-0.471-1e-3-0.998 0.176-1.528 0.704" />
        </symbol>
        <symbol id="aw-create-user" viewBox="0 0 62 62">
            <path fill="currentColor" d="M31.332 46.404H16.04c0 0-0.285-6.002 0.667-7.213 1.066-1.344 1.9-2.283 5.443-3.482l4.38-1.666 0.034-2.777c0 0-1.33-0.84-1.738-3.436-0.832 0.195-0.979-6.184-0.906-6.789C24.182 18.828 26.867 16 31 16c4.132 0 6.818 2.824 7.079 5.035 0.073 0.607-0.073 6.979-0.905 6.783-0.408 2.596-1.738 3.422-1.738 3.422l0.033 2.752 4.381 1.615c3.542 1.198 4.377 2.24 5.443 3.585 0.951 1.211 0.667 7.212 0.667 7.212zM49.762 18.826h-3v-3h-3v3h-3v3h3v3h3v-3h3z" />
        </symbol>
        <symbol id="aw-create-team" viewBox="0 0 78 113.199" fill="#20376b">
            <path fill="#fff" class="st3" d="M39 8C21.906 8 8 21.906 8 39 8 56.093 21.906 70 39 70s31-13.907 31-31C70 21.906 56.094 8 39 8" />
            <linearGradient id="SVGID_1_2" fill="#000" gradientUnits="userSpaceOnUse" x1="38.999" x2="38.999" y1="0" y2="78">
                <stop offset="0" stop-color="#4471a8" />
                <stop offset="1" stop-color="#20376b" />
            </linearGradient>
            <path fill="url(#SVGID_1_2)" d="M39 78C17.495 78 0 60.505 0 39S17.495 0 39 0 78 17.495 78 39 60.504 78 39 78M39 8C21.906 8 8 21.906 8 39 8 56.093 21.906 70 39 70s31-13.907 31-31C70 21.906 56.094 8 39 8" />
            <linearGradient id="SVGID_2_2" fill="#000" gradientUnits="userSpaceOnUse" x1="38.999" x2="38.999" y1="9" y2="69">
                <stop offset="0" stop-color="#fff" />
                <stop offset="1" stop-color="#ababab" />
            </linearGradient>
            <path fill="url(#SVGID_2_2)" d="M39 69C22.459 69 9 55.542 9 39S22.459 9 39 9c16.543 0 30 13.458 30 30S55.543 69 39 69" />
            <path fill="#fff" class="st3" d="M39 10c15.99 0 29 13.01 29 29S54.99 68 39 68 10 54.99 10 39 23.01 10 39 10M39 8C21.906 8 8 21.906 8 39 8 56.093 21.906 70 39 70s31-13.907 31-31C70 21.906 56.094 8 39 8" />
            <path fill="#010101" class="st4" d="M21.836 88.105q-1.026 0-1.588 0.771c-0.562 0.771-0.562 1.229-0.562 2.147q0 2.865 2.15 2.865 0.903 0 2.186-0.451v1.523q-1.054 0.44-2.355 0.439-1.869 0-2.859-1.134c-0.99-1.134-0.99-1.841-0.99-3.255q0-1.336 0.486-2.341c0.486-1.005 0.79-1.184 1.397-1.541s1.319-0.536 2.136-0.536q1.248 0 2.508 0.604l-0.586 1.477q-0.48-0.228-0.967-0.398c-0.487-0.17-0.643-0.17-0.956-0.17M27.661 91.996v3.287h-1.816v-8.566h2.496q1.746 0 2.584 0.636c0.838 0.636 0.838 1.067 0.838 1.931q0 0.756-0.416 1.345c-0.416 0.589-0.67 0.7-1.178 0.923a328 328 0 0 0 2.52 3.732h-2.016l-2.045-3.287zM27.661 90.519h0.586q0.861 0 1.271-0.287c0.41-0.287 0.41-0.492 0.41-0.902q0-0.609-0.419-0.867c-0.419-0.258-0.712-0.258-1.298-0.258H27.66zM38.7 95.283h-4.934v-8.566H38.7v1.488h-3.117v1.881h2.9v1.488h-2.9v2.209H38.7zM45.731 95.283 45.11 93.244h-3.123l-0.621 2.039h-1.957l3.023-8.602h2.221l3.035 8.602zM44.677 91.72q-0.861-2.772-0.971-3.135c-0.11-0.363-0.123-0.434-0.154-0.574q-0.193 0.75-1.107 3.709zM52.071 95.283h-1.816v-7.055h-2.326v-1.512h6.469v1.512h-2.326zM60.649 95.283h-4.934v-8.566h4.934v1.488h-3.117v1.881h2.9v1.488h-2.9v2.209h3.117zM26.99 109.683h-1.816v-7.055h-2.326v-1.512h6.469v1.512H26.99zM35.568 109.683h-4.934v-8.566h4.934v1.488h-3.117v1.881h2.9v1.488h-2.9v2.209h3.117zM42.599 109.683l-0.621-2.039h-3.123l-0.621 2.039h-1.957l3.023-8.602h2.221l3.035 8.602zM41.544 106.121q-0.86-2.772-0.969-3.135a6 6 0 0 1-0.156-0.574q-0.193 0.75-1.107 3.709zM49.261 109.683l-2.062-6.721h-0.053q0.111 2.05 0.111 2.736v3.984h-1.623v-8.566h2.473l2.027 6.551h0.035l2.15-6.551h2.473v8.566h-1.693v-4.055q0-0.287 0.01-0.662c0.01-0.375 0.031-0.914 0.078-1.992h-0.053l-2.209 6.709z" />
            <path class="st0" d="M58.021 23.901h-3v-3h-3v3h-3v3h3v3h3v-3h3zM35.404 49.405H20.111c0 0-0.285-6.003 0.668-7.214 1.066-1.344 1.9-2.283 5.443-3.482l4.379-1.666 0.035-2.777c0 0-1.33-0.84-1.738-3.436-0.832 0.195-0.979-6.184-0.906-6.789 0.262-2.213 2.947-5.041 7.08-5.041 4.131 0 6.818 2.824 7.078 5.035 0.074 0.608-0.072 6.979-0.904 6.784-0.408 2.596-1.738 3.422-1.738 3.422l0.033 2.752 4.381 1.615c3.542 1.198 4.377 2.24 5.443 3.585 0.951 1.21 0.666 7.212 0.666 7.212z" />
            <path class="st0" d="M54.021 40.833c-0.912-1.15-1.627-2.041-4.655-3.066l-3.747-1.381-0.027-2.353c0 0 1.139-0.707 1.486-2.926 0.711 0.167 0.838-5.281 0.775-5.801-0.223-1.887-2.516-4.298-6.039-4.305 0.746 0.908 1.215 1.925 1.332 2.917 7e-3 0.053 0.145 6.239-0.957 7.482l-0.04 0.044c-0.37 1.761-1.13 2.76-1.634 3.254l0.019 1.593 3.735 1.376c3.809 1.288 4.768 2.5 5.881 3.902 0.73 0.931 0.916 3.367 0.934 5.431h3.508c0 0 0.244-5.132-0.571-6.167M25.904 37.762l3.709-1.412 0.02-1.628c-0.504-0.496-1.264-1.5-1.633-3.265l-0.041-0.042c-1.098-1.237-0.965-7.435-0.957-7.492 0.117-0.994 0.588-2.013 1.336-2.922-3.529 4e-3-5.824 2.419-6.047 4.31-0.061 0.518 0.062 5.973 0.775 5.806 0.35 2.22 1.486 2.938 1.486 2.938l-0.029 2.375-3.745 1.425c-3.03 1.025-3.743 1.829-4.655 2.978-0.814 1.035-0.57 6.167-0.57 6.167h3.512c0.016-2.064 0.203-4.501 0.931-5.427 1.223-1.542 2.231-2.566 5.908-3.811" />
        </symbol>
        <symbol id="aw-create-person" viewBox="0 0 62 62" fill="currentColor">
            <g>
                <circle cx="29" cy="23.5" r="7.502" />
                <path d="M14 46c0-6.213 6.714-11.25 14.998-11.25C37.286 34.75 44 39.787 44 46" />
            </g>
            <path d="M48.021 18.9h-3v-3h-3v3h-3v3h3v3h3v-3h3z" />
        </symbol>
        <symbol id="aw-create-letter" viewBox="0 0 62 62">
            <g fill="currentColor">
                <path d="M33.414 16H14v32h28V24zM18 44V20h14v6h6v18z" />
                <path d="M20 32h16v2H20zM20 36h16v2H20zM20 40h16v2H20zM49 16h-3v-3h-3v3h-3v3h3v3h3v-3h3z" />
            </g>
        </symbol>
        <symbol id="aw-create-contact" viewBox="0 0 62 62" fill="currentColor">
            <g>
                <circle cx="29" cy="23.5" r="7.502" />
                <path d="M14 46c0-6.213 6.714-11.25 14.998-11.25C37.286 34.75 44 39.787 44 46" />
            </g>
            <path d="M48.021 18.9h-3v-3h-3v3h-3v3h3v3h3v-3h3z" />
        </symbol>
        <symbol id="aw-create-case" viewBox="0 0 62 62">
            <path fill="currentColor" d="M52 15.24h-3v-3h-3v3h-3v3h3v3h3v-3h3z" />
            <path d="M42.943 24.887h-7.83v-2.678c0-1.449-1.273-2.603-2.727-2.603h-5.279c-1.451 0-2.551 1.151-2.551 2.603v2.678H16.55c-1.45 0-2.551 1.15-2.551 2.602v15.836c0 1.45 1.101 2.675 2.551 2.675h26.394c1.453 0 2.727-1.225 2.727-2.676V27.488c-1e-3-1.451-1.275-2.601-2.728-2.601M26.314 23.127h7.039v1.76h-7.039z" />
        </symbol>
        <symbol id="aw-close-case" viewBox="0 0 62 62">
            <g fill="currentColor">
                <path d="M34.893 23.125h-2.797V18.9h-2.172v4.225h-3.031l4 3.775z" />
                <path d="M48.992 32.827a0.5 0.5 0 0 0-0.123-0.315l-2.879-3.176c0.748-0.551 1.303-1.375 1.434-2.305l1.152-8.134C48.809 17.248 47.65 15.9 46 15.9H16c-1.65 0-2.809 1.348-2.576 2.997l1.152 8.134c0.133 0.947 0.705 1.785 1.475 2.335l-2.92 3.223a0.5 0.5 0 0 0-0.113 0.238H13v5.046c0 1.665 1.35 3.027 3 3.027h8.892v2.543c0 1.649 1.448 2.457 3.099 2.457h6c1.65 0 2.901-0.808 2.901-2.457V40.9H46c1.65 0 3-1.362 3-3.027zM46 16.909c0.504 0 0.943 0.189 1.238 0.532s0.419 0.811 0.348 1.313l-1.152 8.136c-0.111 0.79-0.673 1.488-1.385 1.855q-0.017 8e-3-0.033 0.017A2.3 2.3 0 0 1 44 29.02H18c-1.156 0-2.271-0.976-2.434-2.131l-1.152-8.134c-0.071-0.503 0.053-0.971 0.348-1.313S15.496 16.91 16 16.91M34.892 42.4h-8v-1.5h8zM46 32.674H14.271l2.703-2.956C17.305 29.829 17.648 29.9 18 29.9h26c0.371 0 0.733-0.076 1.08-0.199l2.719 2.973z" />
            </g>
        </symbol>
        <symbol id="aw-change-status" viewBox="0 0 62 62">
            <path fill="currentColor" d="M37.5 25v-9h-22v22h9v8h22V25zM44.5 44h-18V27h18z" />
        </symbol>
        <symbol id="aw-back-icon" viewBox="0 0 6.668 10">
            <path fill="#fff" d="M6.668 0v10L0 5.001z" />
        </symbol>
        <symbol id="aw-back-icon-dark" viewBox="0 0 6.668 10" fill="currentColor">
            <path d="M6.668 0v10L0 5.001z" />
        </symbol>
        <symbol id="aw-assign-task" viewBox="0 0 62 62">
            <path fill="currentColor" d="M29.947 41.076a4.154 4.154 0 1 1-8.308 2e-3 4.154 4.154 0 0 1 8.308-2e-3M29.947 30a4.154 4.154 0 1 1-8.308 0 4.154 4.154 0 0 1 8.308 0M29.947 18.923a4.155 4.155 0 0 1-4.153 4.155 4.155 4.155 0 0 1 0-8.309 4.157 4.157 0 0 1 4.153 4.154M36 18h19v3H36zM36 29h19v3H36zM36 40h19v3H36zM12 35l7.225-4.985L12 25v3H8v4h4v0.24z" />
        </symbol>
        <symbol id="aw-allocate-case" viewBox="0 0 62 62">
            <path fill="#0a0c0c" d="M46.401 21H37v-3.043C37 16.308 36.052 15 34.401 15h-6C26.751 15 25 16.308 25 17.957V21h-8.599C14.751 21 13 22.308 13 23.957v18C13 43.607 14.751 45 16.401 45h30C48.052 45 49 43.607 49 41.957v-18C49 22.308 48.052 21 46.401 21M35 21h-8v-2h8z" />
            <path fill="#fff" d="M29 37.74l7.225-4.985L29 27.74V31h-4v4h4v-0.02z" />
        </symbol>
    </defs>
</svg>