<?xml version="1.0" encoding="utf-8"?>
<!-- Generator: Adobe Illustrator 16.0.0, SVG Export Plug-In . SVG Version: 6.00 Build 0)  -->
<!DOCTYPE svg PUBLIC "-//W3C//DTD SVG 1.1//EN" "http://www.w3.org/Graphics/SVG/1.1/DTD/svg11.dtd">
<svg version="1.1" id="Layer_1" xmlns="http://www.w3.org/2000/svg" xmlns:xlink="http://www.w3.org/1999/xlink" x="0px" y="0px"
	 width="18px" height="18px" viewBox="0 0 18 18" enable-background="new 0 0 18 18" xml:space="preserve">
<g>
	<g>
		<path fill="#0B0C0C" d="M11.593,1.375H1.885v16h14V5.448L11.593,1.375z M13.885,15.375h-10v-12h7v3h3V15.375z"/>
	</g>
	<path fill-rule="evenodd" clip-rule="evenodd" fill="#0B0C0C" d="M7.912,4.928C8.206,4.925,8.36,5.096,8.419,5.326
		c0,0.207,0,0.414,0,0.621c0,0.688,0,1.375,0,2.063c0,0.246,0,0.491,0,0.737c0,0.073-0.028,0.245,0.028,0.245
		c0.343,0,0.328-0.17,0.328-0.281c0-0.178,0-0.356,0-0.535c0-0.535,0-1.07,0-1.605c0-0.254-0.031-0.576,0.058-0.745
		c0.125-0.235,0.308-0.296,0.54-0.131C9.592,5.851,9.54,6.299,9.54,6.671c0,0.873,0,1.746,0,2.618c0,0.256-0.061,0.593,0.007,0.84
		c0.021,0.074,0.13,0.27,0.208,0.286c0.156,0.033,0.259-0.317,0.304-0.421c0.071-0.156,0.172-0.274,0.27-0.414
		c0.088-0.127,0.183-0.25,0.297-0.354C10.84,9.027,11.209,8.85,11.5,8.957c0.075,0.028,0.119,0.107,0.174,0.159
		c0.004,0.187-0.224,0.375-0.297,0.514c-0.377,0.713-0.565,1.533-0.799,2.302c-0.221,0.732-0.875,1.582-1.634,1.814
		c-0.438,0.133-0.977,0.05-1.43,0.04c-0.46-0.011-0.933-0.065-1.331-0.315c-0.455-0.284-0.746-0.736-0.846-1.26
		c-0.074-0.388-0.065-0.785-0.065-1.178c0-0.701,0-1.403,0-2.105c0-0.313,0-0.627,0-0.939c0-0.232-0.042-0.551,0.136-0.732
		C5.583,7.075,5.76,7.098,5.919,7.297c0.176,0.22,0.11,0.546,0.107,0.805c-0.005,0.365,0,0.73,0,1.094
		C6.026,9.379,6,9.586,6.033,9.76c0.005,0,0.01,0,0.015,0c0.037,0.025,0.309,0.006,0.338-0.008C6.458,9.719,6.397,9.01,6.397,8.929
		C6.385,8.217,6.389,7.506,6.394,6.795c0-0.273,0-0.545,0-0.818C6.461,5.76,6.475,5.74,6.72,5.7C6.8,5.688,6.928,5.764,6.973,5.795
		c0.232,0.158,0.21,0.369,0.209,0.752c0,0.571,0,1.143,0,1.715c0,0.183,0,0.365,0,0.549c0,0.095-0.008,0.208,0.007,0.289
		c0.008,0.003,0.015,0.006,0.022,0.008c0.029,0.02,0.23,0.023,0.274,0.022c0.042-0.001,0.03-1.5,0.029-1.627
		C7.513,7.018,7.485,6.529,7.503,6.042C7.515,5.721,7.381,5.151,7.76,4.979C7.81,4.956,7.869,4.958,7.912,4.928z"/>
</g>
</svg>
