<?xml version="1.0" encoding="utf-8"?>
<!-- Generator: Adobe Illustrator 16.0.0, SVG Export Plug-In . SVG Version: 6.00 Build 0)  -->
<!DOCTYPE svg PUBLIC "-//W3C//DTD SVG 1.1//EN" "http://www.w3.org/Graphics/SVG/1.1/DTD/svg11.dtd">
<svg version="1.1" id="Layer_1" xmlns="http://www.w3.org/2000/svg" xmlns:xlink="http://www.w3.org/1999/xlink" x="0px" y="0px"
	 width="18px" height="18px" viewBox="0 0 18 18" enable-background="new 0 0 18 18" xml:space="preserve">
<g>
	<g>
		<path fill="#0B0C0C" d="M11.707,1H2v16h14V5L11.707,1z M4,15V3h7v3h3v9H4z"/>
	</g>
	<g>
		<path fill="#0B0C0C" d="M8.161,11.43v-0.326c0-0.281,0.06-0.525,0.18-0.733S8.681,9.941,9,9.707
			C9.308,9.486,9.51,9.309,9.609,9.17c0.098-0.137,0.147-0.291,0.147-0.461c0-0.19-0.07-0.336-0.211-0.436S9.208,8.125,8.956,8.125
			c-0.439,0-0.94,0.143-1.503,0.43L6.974,7.593c0.653-0.366,1.346-0.55,2.079-0.55c0.604,0,1.084,0.146,1.439,0.436
			s0.533,0.677,0.533,1.16c0,0.322-0.072,0.601-0.219,0.835s-0.426,0.498-0.835,0.791c-0.281,0.208-0.459,0.366-0.534,0.475
			c-0.074,0.108-0.112,0.251-0.112,0.427v0.264H8.161z M8.02,12.932c0-0.246,0.066-0.432,0.198-0.558s0.324-0.188,0.576-0.188
			c0.243,0,0.431,0.064,0.564,0.193s0.2,0.313,0.2,0.553c0,0.232-0.067,0.414-0.202,0.548c-0.135,0.133-0.322,0.2-0.563,0.2
			c-0.246,0-0.437-0.066-0.571-0.196S8.02,13.17,8.02,12.932z"/>
	</g>
</g>
</svg>
