<?xml version="1.0" encoding="utf-8"?>
<!-- Generator: Adobe Illustrator 16.0.0, SVG Export Plug-In . SVG Version: 6.00 Build 0)  -->
<!DOCTYPE svg PUBLIC "-//W3C//DTD SVG 1.1//EN" "http://www.w3.org/Graphics/SVG/1.1/DTD/svg11.dtd">
<svg version="1.1" id="Layer_1" xmlns="http://www.w3.org/2000/svg" xmlns:xlink="http://www.w3.org/1999/xlink" x="0px" y="0px"
	 width="18px" height="18px" viewBox="0 0 18 18" enable-background="new 0 0 18 18" xml:space="preserve">
<path fill="#0B0C0C" d="M16.545,14.167l-2.956-2.955c0.552-0.976,0.87-2.101,0.87-3.3c0-3.711-3.02-6.73-6.729-6.73S1,4.201,1,7.912
	c0,3.71,3.02,6.729,6.729,6.729c1.388,0,2.679-0.421,3.751-1.145l2.869,2.867c0.303,0.303,0.699,0.455,1.096,0.455
	s0.797-0.152,1.1-0.455C17.152,15.756,17.152,14.774,16.545,14.167 M3.07,7.912c0-2.568,2.092-4.66,4.659-4.66
	c2.569,0,4.659,2.092,4.659,4.66s-2.09,4.658-4.659,4.658C5.162,12.57,3.07,10.48,3.07,7.912"/>
</svg>
