<?xml version="1.0" encoding="utf-8"?>
<!-- Generator: Adobe Illustrator 16.0.0, SVG Export Plug-In . SVG Version: 6.00 Build 0)  -->
<!DOCTYPE svg PUBLIC "-//W3C//DTD SVG 1.1//EN" "http://www.w3.org/Graphics/SVG/1.1/DTD/svg11.dtd">
<svg version="1.1" id="Layer_1" xmlns="http://www.w3.org/2000/svg" xmlns:xlink="http://www.w3.org/1999/xlink" x="0px" y="0px"
	 width="18px" height="18px" viewBox="0 0 18 18" enable-background="new 0 0 18 18" xml:space="preserve">
<g>
	<g>
		<polygon fill="#0B0C0C" points="6.003,3.356 5.003,2.356 1.467,5.893 5.003,9.428 6.003,8.428 3.467,5.893 		"/>
	</g>
	<g>
		<path fill="#0B0C0C" d="M2.614,5.135h8.885c1.565,0,2.796,0.473,3.69,1.418c0.896,0.945,1.344,2.244,1.344,3.897
			s-0.451,2.933-1.353,3.837s-2.142,1.357-3.72,1.357H2.614v-1.598h8.96c1.146,0,2.025-0.313,2.639-0.938s0.921-1.547,0.921-2.762
			c0-1.158-0.309-2.05-0.925-2.677c-0.617-0.626-1.502-0.939-2.654-0.939H2.614V5.135z"/>
	</g>
</g>
</svg>
