<?xml version="1.0" encoding="utf-8"?>
<!-- Generator: Adobe Illustrator 16.0.0, SVG Export Plug-In . SVG Version: 6.00 Build 0)  -->
<!DOCTYPE svg PUBLIC "-//W3C//DTD SVG 1.1//EN" "http://www.w3.org/Graphics/SVG/1.1/DTD/svg11.dtd">
<svg version="1.1" id="Layer_1" xmlns="http://www.w3.org/2000/svg" xmlns:xlink="http://www.w3.org/1999/xlink" x="0px" y="0px"
	 width="18px" height="18px" viewBox="0 0 18 18" enable-background="new 0 0 18 18" xml:space="preserve">
<g>
	<path fill="#0B0C0C" d="M15.57,6.016h-0.025c-0.002,0-0.064,0-0.136-0.033c-0.199-0.135-0.373-0.33-0.521-0.58l-0.353-0.609
		c-0.042-0.074-0.403-0.715-0.794-1.382c-0.266-0.454-0.784-0.938-1.45-0.938H11.14v0.953h1.15c0.062,0,0.371,0.022,0.631,0.467
		c0.186,0.318,0.365,0.629,0.508,0.879l0.02,0.037c0.195,0.338,0.33,0.578,0.336,0.584c0.004,0.009,0.014,0.029,0.038,0.074
		c0.045,0.076,0.151,0.261,0.404,0.692c0.138,0.235,0.301,0.407,0.471,0.502c0.368,0.277,0.716,0.308,0.848,0.308h0.025v0.949
		l1.424-1.426L15.57,5.066V6.016z"/>
	<circle fill="#0B0C0C" cx="7.272" cy="7.05" r="3.137"/>
	<path fill="#0B0C0C" d="M7.272,11.757C3.808,11.757,1,13.863,1,16.463h12.546C13.546,13.863,10.738,11.757,7.272,11.757z"/>
	<path fill="#0B0C0C" d="M12.927,5.563c-0.26,0.445-0.57,0.467-0.631,0.467h-1.147v0.953h1.149c0.482,0,0.953-0.275,1.295-0.728
		l-0.52-0.942L12.927,5.563z"/>
	<path fill="#0B0C0C" d="M14.98,3.906c0.27-0.462,0.561-0.467,0.573-0.467h0.022v0.949L17,2.963l-1.424-1.426v0.949H15.55
		c-0.171,0-0.728,0.059-1.205,0.672l0.521,0.945L14.98,3.906z"/>
</g>
</svg>
