<?xml version="1.0" encoding="utf-8"?>
<!-- Generator: Adobe Illustrator 16.0.0, SVG Export Plug-In . SVG Version: 6.00 Build 0)  -->
<!DOCTYPE svg PUBLIC "-//W3C//DTD SVG 1.1//EN" "http://www.w3.org/Graphics/SVG/1.1/DTD/svg11.dtd">
<svg version="1.1" id="Layer_1" xmlns="http://www.w3.org/2000/svg" xmlns:xlink="http://www.w3.org/1999/xlink" x="0px" y="0px"
	 width="18px" height="18px" viewBox="0 0 18 18" enable-background="new 0 0 18 18" xml:space="preserve">
<g>
	<path fill="#0C0D0D" d="M13.728,16.11c-0.649,0.123-4.987-0.041-8.52-3.713C1.46,8.504,1.847,4.113,1.994,3.844
		c0.289-0.533,0.908-1.1,1.697-1.555C3.805,2.223,3.924,2.18,4.048,2.155c0.518-0.097,1.004,0.191,1.326,0.383l0.164,0.097
		c0.438,0.231,0.981,2.863,0.96,3.187C6.474,6.2,6.025,6.572,4.949,7.451c0.312,0.979,1.265,2.321,2.024,3.108
		c0.7,0.727,2.206,1.973,3.279,2.4c0.926-0.756,1.4-1.137,1.778-1.209c0.056-0.01,0.11-0.014,0.163-0.01
		c0.351,0.02,3.123,0.83,3.322,1.26l0.082,0.164c0.203,0.383,0.543,1.025,0.068,1.564c-0.588,0.668-1.273,1.166-1.879,1.367
		L13.728,16.11z"/>
</g>
</svg>
