<?xml version="1.0" encoding="utf-8"?>
<!-- Generator: Adobe Illustrator 16.0.0, SVG Export Plug-In . SVG Version: 6.00 Build 0)  -->
<!DOCTYPE svg PUBLIC "-//W3C//DTD SVG 1.1//EN" "http://www.w3.org/Graphics/SVG/1.1/DTD/svg11.dtd">
<svg version="1.1" id="Layer_1" xmlns="http://www.w3.org/2000/svg" xmlns:xlink="http://www.w3.org/1999/xlink" x="0px" y="0px"
	 width="5.51px" height="5.523px" viewBox="18 18.805 5.51 5.523" enable-background="new 18 18.805 5.51 5.523"
	 xml:space="preserve">
<polygon points="19.602,23.808 20.121,24.328 18,24.328 18,22.208 18.52,22.727 19.37,21.877 20.451,22.959 "/>
<polygon points="21.389,18.818 21.908,19.339 21.076,20.17 22.158,21.252 22.99,20.42 23.51,20.939 23.51,18.818 "/>
<polygon points="22.99,22.726 23.51,22.208 23.508,24.328 21.387,24.326 21.907,23.807 21.059,22.956 22.141,21.876 "/>
<polygon points="18,20.925 18.521,20.406 19.352,21.239 20.434,20.159 19.603,19.326 20.123,18.807 18.002,18.805 "/>
</svg>
