<?xml version="1.0" encoding="utf-8"?>
<!-- Generator: Adobe Illustrator 16.0.4, SVG Export Plug-In . SVG Version: 6.00 Build 0)  -->
<!DOCTYPE svg PUBLIC "-//W3C//DTD SVG 1.1//EN" "http://www.w3.org/Graphics/SVG/1.1/DTD/svg11.dtd">
<svg version="1.1" id="Layer_1" xmlns="http://www.w3.org/2000/svg" xmlns:xlink="http://www.w3.org/1999/xlink" x="0px" y="0px"
	 width="21.454px" height="23.827px" viewBox="0 0 21.454 23.827" enable-background="new 0 0 21.454 23.827" xml:space="preserve">
<g opacity="0.9">
	<g>
		<path fill="#FFFFFF" d="M17.629,18.22c-0.153-0.934-0.894-2.088-1.846-2.277v-1.028c0.934-0.216,1.867-1.157,1.867-2.288
			s-0.934-2.072-1.867-2.289V9.321c2.365-0.23,4.215-2.224,4.215-4.65C19.998,2.092,17.904,0,15.326,0
			c-2.581,0-4.673,2.092-4.673,4.671c0,2.421,1.839,4.41,4.194,4.649v1.017c-0.83,0.193-1.657,1.343-1.83,2.277h-2.842v0.934h2.894
			c0.245,0.936,1.008,1.188,1.778,1.366v1.032c-1.061,0.219-1.857,1.159-1.857,2.286s0.797,2.067,1.857,2.286v1.52l-1.066-1.07
			l-0.657,0.66l2.199,2.199l2.2-2.199l-0.666-0.66l-1.074,1.07v-1.517c0.885-0.176,1.581-0.433,1.799-1.366h2.872V18.22H17.629z
			 M11.588,4.671c0-2.06,1.676-3.736,3.738-3.736c2.06,0,3.736,1.677,3.736,3.736c0,2.062-1.677,3.738-3.736,3.738
			C13.264,8.409,11.588,6.733,11.588,4.671z M13.924,12.626c0-0.772,0.627-1.402,1.402-1.402c0.771,0,1.4,0.63,1.4,1.402
			c0,0.773-0.629,1.401-1.4,1.401C14.551,14.027,13.924,13.399,13.924,12.626z M15.326,19.634c-0.775,0-1.402-0.629-1.402-1.401
			s0.627-1.401,1.402-1.401c0.771,0,1.4,0.629,1.4,1.401S16.098,19.634,15.326,19.634z"/>
	</g>
</g>
<polygon opacity="0.9" fill="#FFFFFF" points="6.668,8.186 6.668,16.186 0,12.187 "/>
</svg>
