<?xml version="1.0" encoding="utf-8"?>
<!-- Generator: Adobe Illustrator 16.0.4, SVG Export Plug-In . SVG Version: 6.00 Build 0)  -->
<!DOCTYPE svg PUBLIC "-//W3C//DTD SVG 1.1//EN" "http://www.w3.org/Graphics/SVG/1.1/DTD/svg11.dtd">
<svg version="1.1" id="Layer_1" xmlns="http://www.w3.org/2000/svg" xmlns:xlink="http://www.w3.org/1999/xlink" x="0px" y="0px"
	 width="21.702px" height="20.114px" viewBox="0 0 21.702 20.114" enable-background="new 0 0 21.702 20.114" xml:space="preserve">
<path fill="#231F20" d="M21.702,15.4V6.378h-4.413V0H9.316l-4.9,4.9v1.528H0V15.4c0,0.583,0.475,1.057,1.058,1.057h3.358v3.657
	h12.873v-3.657h3.355C21.229,16.457,21.702,15.983,21.702,15.4z M5.66,16.457h10.385v2.413H5.66V16.457z M18.52,12.346H3.185v-4.19
	h1.231v2.409H5.66V6.544c0.055-1.959,4.326-0.92,4.326-0.92s-0.891-4.381,0.958-4.381h5.101v9.321h1.244v-2.46h1.23V12.346z
	 M20.252,14.711c0,0.467-0.379,0.845-0.845,0.845c-0.467,0-0.845-0.378-0.845-0.845s0.378-0.845,0.845-0.845
	C19.873,13.866,20.252,14.244,20.252,14.711z M14.572,9.148H7.424v1.244h7.148V9.148z M7.424,7.953h7.148V6.71H7.424V7.953z"/>
<g>
</g>
<g>
</g>
<g>
</g>
<g>
</g>
<g>
</g>
<g>
</g>
</svg>
